DBRep_DrawableShape

CASCADE Topology V1, (c) Matra-Datavision
Locations 11
1
              1               0               0               0 
              0               1               0               0 
              0               0               1               0 
1
              1               0               0               0 
              0               1               0               0 
              0               0               1               0 
1
              1               0               0               6 
              0               1               0               9 
              0               0               1            2.04 
1
              1               0               0            15.6 
              0               1               0               9 
              0               0               1            2.04 
1
              1               0               0            25.2 
              0               1               0               9 
              0               0               1            2.04 
2  3 -1 0
2  4 -1 0
2  5 -1 0
2  3 1 2 1 0
2  4 1 2 1 0
2  5 1 2 1 0
Curve2ds 30
2 5 2 -1 0 0 1 0.85833333333333339
1 0 0.099999999999999645 1 0 
2 13 2 -1 0 0 1 0.90833333333333344
1 0 0.099999999999999645 1 0 
2 21 2 -1 0 0 1 0.95833333333333337
1 0 0.099999999999999645 1 0 
8 0.74758434966902065 5.5356009575105656
1 0 6.2999999999999998 1 0 
8 0.74143528958765048 5.5417500175919354
1 0 6.2999999999999998 1 0 
8 0.73543576951281997 5.5477495376667658
1 0 6.2999999999999998 1 0 
1 6.2831853071795862 -0 0 1 
1 0 -0 0 1 
1 0 3.2999999999999998 1 0 
2 0 0 1 0 -0 1 0.85833333333333339
1 6.2831853071795862 -0 0 1 
1 0 -0 0 1 
1 0 3.2999999999999998 1 0 
2 0 0 1 0 -0 1 0.90833333333333344
1 6.2831853071795862 -0 0 1 
1 0 -0 0 1 
1 0 3.2999999999999998 1 0 
2 0 0 1 0 -0 1 0.95833333333333337
8 0 6.2999999999999998
1 5.5356009575105656 0 0 1 
8 0.74758434966902076 5.5356009575105656
1 0 0 1 0 
8 0 6.2999999999999998
1 0.74758434966902088 0 0 1 
8 0 6.2999999999999998
1 5.5417500175919354 0 0 1 
8 0.74143528958765037 5.5417500175919354
1 0 0 1 0 
8 0 6.2999999999999998
1 0.74143528958765037 0 0 1 
8 0 6.2999999999999998
1 5.5477495376667667 0 0 1 
8 0.73543576951281975 5.5477495376667667
1 0 0 1 0 
8 0 6.2999999999999998
1 0.73543576951281986 0 0 1 
Curves 39
1 0 0 0 0 0 1 
1 0 0 8 -0 1 0 
1 0 15 0 0 0 1 
1 0 0 0 -0 1 0 
1 0 0 0 1 0 -0 
1 26 0 0 0 0 1 
1 0 0 8 1 0 -0 
1 0 15 8 1 0 -0 
1 26 0 8 -0 1 0 
2 5 2 8 0 0 -1 -1 0 -0 0 1 0 0.85833333333333339
2 13 2 8 0 0 -1 -1 0 -0 0 1 0 0.90833333333333344
2 21 2 8 0 0 -1 -1 0 -0 0 1 0 0.95833333333333337
2 5 7.5 8 0 0 1 1 0 -0 -0 1 0 3.1499999999999999
1 7.3100000000000005 1.7583333333333337 7.9999999999999982 0 1 0 
2 13 7.5 8 0 0 1 1 0 -0 -0 1 0 3.2000000000000002
1 15.359999999999999 1.7333333333333334 7.9999999999999982 0 1 0 
2 21 7.5 8 0 0 1 1 0 -0 -0 1 0 3.2499999999999996
1 23.41 1.7083333333333337 7.9999999999999982 0 1 0 
1 0 15 0 1 0 -0 
1 26 15 0 0 0 1 
1 26 0 0 -0 1 0 
1 4.1416666666666666 1.9999999999999996 8.0999999999999996 0 0 -1 
2 5 2 4.7999999999999998 0 0 -1 -1 0 -0 0 1 0 0.85833333333333339
1 12.091666666666667 2 8.0999999999999996 0 0 -1 
2 13 2 4.7999999999999998 0 0 -1 -1 0 -0 0 1 0 0.90833333333333344
1 20.041666666666668 1.9999999999999996 8.0999999999999996 0 0 -1 
2 21 2 4.7999999999999998 0 0 -1 -1 0 -0 0 1 0 0.95833333333333337
1 1.3100000000000001 -3.6415881957089695 -0.33999999999999986 0 0 1 
2 -1 -1.5 -0.33999999999999986 0 0 1 1 0 -0 -0 1 0 3.1499999999999999
1 1.3100000000000001 0.64158819570896952 -0.33999999999999986 0 0 1 
1 1.3100000000000001 -3.4916666666666663 -0.33999999999999986 0 1 0 
1 -0.23999999999999977 -3.6611108254784157 -0.33999999999999986 0 0 1 
2 -2.5999999999999996 -1.5 -0.33999999999999986 0 0 1 1 0 -0 -0 1 0 3.2000000000000002
1 -0.23999999999999977 0.66111082547841571 -0.33999999999999986 0 0 1 
1 -0.23999999999999977 -3.5166666666666666 -0.33999999999999986 0 1 0 
1 -1.7899999999999996 -3.680458667345015 -0.33999999999999986 0 0 1 
2 -4.1999999999999993 -1.5 -0.33999999999999986 0 0 1 1 0 -0 -0 1 0 3.2499999999999996
1 -1.7899999999999996 0.68045866734501503 -0.33999999999999986 0 0 1 
1 -1.7899999999999996 -3.5416666666666665 -0.33999999999999986 0 1 0 
Polygon3D 0
PolygonOnTriangulations 0
Surfaces 21
1 0 0 0 1 0 -0 0 0 1 0 -1 0 
1 0 0 0 -0 1 0 0 0 1 1 0 -0 
1 0 0 8 0 0 1 1 0 -0 -0 1 0 
2 5 2 8.0999999999999996 0 0 -1 -1 0 -0 0 1 0 0.85833333333333339
2 13 2 8.0999999999999996 0 0 -1 -1 0 -0 0 1 0 0.90833333333333344
2 21 2 8.0999999999999996 0 0 -1 -1 0 -0 0 1 0 0.95833333333333337
2 -1 -1.5 -0.33999999999999986 0 0 1 1 0 -0 -0 1 0 3.1499999999999999
2 -2.5999999999999996 -1.5 -0.33999999999999986 0 0 1 1 0 -0 -0 1 0 3.2000000000000002
2 -4.1999999999999993 -1.5 -0.33999999999999986 0 0 1 1 0 -0 -0 1 0 3.2499999999999996
1 0 15 0 -0 1 0 0 0 1 1 0 -0 
1 0 0 0 0 0 1 1 0 -0 -0 1 0 
1 26 0 0 1 0 -0 0 0 1 0 -1 0 
1 5 2 4.7999999999999998 0 0 -1 -1 0 -0 0 1 0 
1 13 2 4.7999999999999998 0 0 -1 -1 0 -0 0 1 0 
1 21 2 4.7999999999999998 0 0 -1 -1 0 -0 0 1 0 
1 1.3100000000000001 -5.4833333333333325 -1.1733333333333333 1 0 0 0 0 1 0 -1 0 
1 -0.23999999999999977 -5.5333333333333332 -1.1733333333333333 1 0 0 0 0 1 0 -1 0 
1 -1.7899999999999996 -5.583333333333333 -1.1733333333333333 1 0 0 0 0 1 0 -1 0 
1 -1 -1.5 -0.33999999999999986 0 0 1 1 0 -0 -0 1 0 
1 -2.5999999999999996 -1.5 -0.33999999999999986 0 0 1 1 0 -0 -0 1 0 
1 -4.1999999999999993 -1.5 -0.33999999999999986 0 0 1 1 0 -0 -0 1 0 
Triangulations 0

TShapes 121
Ve
1e-07
0 0 8
0 0

0101101
*
Ve
1e-07
0 0 0
0 0

0101101
*
Ed
 8.3333333e-08 1 1 0
1  1 0 0 8
0

0101000
-121 0 +120 0 *
Ve
1e-07
0 15 8
0 0

0101101
*
Ed
 8.3333333e-08 1 1 0
1  2 0 0 15
0

0101000
-118 0 +121 0 *
Ve
1e-07
0 15 0
0 0

0101101
*
Ed
 8.3333333e-08 1 1 0
1  3 0 0 8
0

0101000
-118 0 +116 0 *
Ed
 8.3333333e-08 1 1 0
1  4 0 0 15
0

0101000
-116 0 +120 0 *
Wi

0101100
-119 0 -117 0 +115 0 +114 0 *
Fa
0  8.3333333e-08 1 0

0101000
+113 0 *
Ve
1e-07
26 0 0
0 0

0101101
*
Ed
 8.3333333e-08 1 1 0
1  5 0 0 26
0

0101000
-111 0 +120 0 *
Ve
1e-07
26 0 8
0 0

0101101
*
Ed
 8.3333333e-08 1 1 0
1  6 0 0 8
0

0101000
-109 0 +111 0 *
Ed
 8.3333333e-08 1 1 0
1  7 0 0 26
0

0101000
-109 0 +121 0 *
Wi

0101100
-110 0 -108 0 +107 0 +119 0 *
Fa
0  8.3333333e-08 2 0

0101000
+106 0 *
Ve
1e-07
26 15 8
0 0

0101101
*
Ed
 8.3333333e-08 1 1 0
1  8 0 0 26
0

0101000
-104 0 +118 0 *
Ed
 8.3333333e-08 1 1 0
1  9 0 0 15
0

0101000
-104 0 +109 0 *
Wi

0101100
-117 2 -103 2 +107 2 +102 2 *
Ve
1.00000000444089e-07
4.14166666666667 2 8
0 0

0101101
*
Ed
 1e-07 1 1 0
1  10 0 0 6.28318530717959
2  1 3 2 0 6.28318530717959
2  2 4 0 0 6.28318530717959
0

0101100
+100 0 -100 0 *
Wi

0101100
+99 0 *
Ve
1.00000000222045e-07
12.0916666666667 2 8
0 0

0101101
*
Ed
 1e-07 1 1 0
1  11 0 0 6.28318530717959
2  3 3 2 0 6.28318530717959
2  4 5 0 0 6.28318530717959
0

0101100
+97 0 -97 0 *
Wi

0101100
+96 0 *
Ve
1.00000000444089e-07
20.0416666666667 2 8
0 0

0101101
*
Ed
 1e-07 1 1 0
1  12 0 0 6.28318530717959
2  5 3 2 0 6.28318530717959
2  6 6 0 0 6.28318530717959
0

0101100
+94 0 -94 0 *
Wi

0101100
+93 0 *
Ve
1.25000002e-07
7.31 9.64158819570897 8
0 0

0101101
*
Ve
1.25000002e-07
7.31 5.35841180429103 8
0 0

0101101
*
Ed
 8.3333333e-08 1 1 0
1  13 0 0.747584349669021 5.53560095751057
2  7 7 3 0.747584349669021 5.53560095751057
0

0101000
+91 0 -90 0 *
Ed
 1.25e-07 1 1 0
1  14 0 3.6000784709577 7.88325486237564
0

0101000
+90 0 -91 0 *
Wi

0101100
-89 2 -88 2 *
Ve
1.25000001e-07
15.36 9.66111082547842 8
0 0

0101101
*
Ve
1.25000002e-07
15.36 5.33888917452158 8
0 0

0101101
*
Ed
 8.3333333e-08 1 1 0
1  15 0 0.74143528958765 5.54175001759194
2  8 8 4 0.74143528958765 5.54175001759194
0

0101000
+86 0 -85 0 *
Ed
 1.25e-07 1 1 0
1  16 0 3.60555584118825 7.92777749214508
0

0101000
+85 0 -86 0 *
Wi

0101100
-84 2 -83 2 *
Ve
1.25000001e-07
23.41 9.68045866734502 8
0 0

0101101
*
Ve
1.25000001e-07
23.41 5.31954133265499 8
0 0

0101101
*
Ed
 8.3333333e-08 1 1 0
1  17 0 0.73543576951282 5.54774953766677
2  9 9 5 0.73543576951282 5.54774953766677
0

0101000
+81 0 -80 0 *
Ed
 1.25e-07 1 1 0
1  18 0 3.61120799932165 7.97212533401168
0

0101000
+80 0 -81 0 *
Wi

0101100
-79 2 -78 2 *
Fa
0  1e-07 3 2

0101000
+101 0 +98 0 +95 0 +92 0 +87 0 +82 0 +77 0 *
Ve
1e-07
26 15 0
0 0

0101101
*
Ed
 8.3333333e-08 1 1 0
1  19 0 0 26
0

0101000
-75 0 +116 0 *
Ed
 8.3333333e-08 1 1 0
1  20 0 0 8
0

0101000
-104 0 +75 0 *
Wi

0101100
-74 0 -73 0 +103 0 +115 0 *
Fa
0  8.3333333e-08 10 0

0101000
+72 0 *
Ed
 8.3333333e-08 1 1 0
1  21 0 0 15
0

0101000
-75 0 +111 0 *
Wi

0101100
-114 0 -74 0 +70 0 +110 0 *
Fa
0  8.3333333e-08 11 0

0101000
+69 0 *
Wi

0101100
-108 0 -102 0 +73 0 +70 0 *
Fa
0  8.3333333e-08 12 0

0101000
+67 0 *
Ve
1e-07
4.14166666666667 2 4.8
0 0

0101101
*
Ed
 1e-07 1 1 0
1  22 0 0.0999999999999996 3.3
3  10 11CN 4 0 0.0999999999999996 3.3
0

0101000
+100 0 -65 0 *
Ed
 1e-07 1 1 0
1  23 0 0 6.28318530717959
2  12 4 0 0 6.28318530717959
2  13 13 0 0 6.28318530717959
0

0101000
+65 0 -65 0 *
Wi

0101100
+64 0 +99 0 -64 0 -63 0 *
Fa
0  1e-07 4 0

0101000
+62 0 *
Ve
1e-07
12.0916666666667 2 4.8
0 0

0101101
*
Ed
 1e-07 1 1 0
1  24 0 0.0999999999999996 3.3
3  14 15CN 5 0 0.0999999999999996 3.3
0

0101000
+97 0 -60 0 *
Ed
 1e-07 1 1 0
1  25 0 0 6.28318530717959
2  16 5 0 0 6.28318530717959
2  17 14 0 0 6.28318530717959
0

0101000
+60 0 -60 0 *
Wi

0101100
+59 0 +96 0 -59 0 -58 0 *
Fa
0  1e-07 5 0

0101000
+57 0 *
Ve
1e-07
20.0416666666667 2 4.8
0 0

0101101
*
Ed
 1e-07 1 1 0
1  26 0 0.0999999999999996 3.3
3  18 19CN 6 0 0.0999999999999996 3.3
0

0101000
+94 0 -55 0 *
Ed
 1e-07 1 1 0
1  27 0 0 6.28318530717959
2  20 6 0 0 6.28318530717959
2  21 15 0 0 6.28318530717959
0

0101000
+55 0 -55 0 *
Wi

0101100
+54 0 +93 0 -54 0 -53 0 *
Fa
0  1e-07 6 0

0101000
+52 0 *
Ve
1.25e-07
7.31 5.35841180429103 1.7
0 0

0101101
*
Ed
 8.3333333e-08 1 1 0
1  28 0 0 6.3
2  22 7 0 0 6.3
0

0101000
+50 6 -90 6 *
Ve
1.25000001e-07
7.31 9.64158819570897 1.7
0 0

0101101
*
Ed
 8.3333333e-08 1 1 0
1  29 0 0.747584349669021 5.53560095751057
2  23 7 0 0.747584349669021 5.53560095751057
0

0101000
+48 6 -50 6 *
Ed
 8.3333333e-08 1 1 0
1  30 0 0 6.3
2  24 7 0 0 6.3
0

0101000
+48 6 -91 6 *
Wi

0101100
-89 0 +49 3 +47 3 -46 3 *
Fa
0  8.3333333e-08 7 3

0101000
+45 0 *
Ed
 1.25e-07 1 1 0
1  31 0 -0.149921529042303 4.13325486237564
0

0101000
+50 6 -48 6 *
Wi

0101100
-49 3 -88 0 +46 3 +43 3 *
Fa
0  8.3333333e-08 16 3

0101000
+42 0 *
Ve
1.25000001e-07
15.36 5.33888917452158 1.7
0 0

0101101
*
Ed
 8.3333333e-08 1 1 0
1  32 0 0 6.3
2  25 8 0 0 6.3
0

0101000
+40 7 -85 7 *
Ve
1.25e-07
15.36 9.66111082547842 1.7
0 0

0101101
*
Ed
 8.3333333e-08 1 1 0
1  33 0 0.74143528958765 5.54175001759194
2  26 8 0 0.74143528958765 5.54175001759194
0

0101000
+38 7 -40 7 *
Ed
 8.3333333e-08 1 1 0
1  34 0 0 6.3
2  27 8 0 0 6.3
0

0101000
+38 7 -86 7 *
Wi

0101100
-84 0 +39 4 +37 4 -36 4 *
Fa
0  8.3333333e-08 8 4

0101000
+35 0 *
Ed
 1.25e-07 1 1 0
1  35 0 -0.144444158811751 4.17777749214508
0

0101000
+40 7 -38 7 *
Wi

0101100
-39 4 -83 0 +36 4 +33 4 *
Fa
0  8.3333333e-08 17 4

0101000
+32 0 *
Ve
1.25e-07
23.41 5.31954133265499 1.7
0 0

0101101
*
Ed
 8.3333333e-08 1 1 0
1  36 0 0 6.3
2  28 9 0 0 6.3
0

0101000
+30 8 -80 8 *
Ve
1.25e-07
23.41 9.68045866734502 1.7
0 0

0101101
*
Ed
 8.3333333e-08 1 1 0
1  37 0 0.73543576951282 5.54774953766677
2  29 9 0 0.73543576951282 5.54774953766677
0

0101000
+28 8 -30 8 *
Ed
 8.3333333e-08 1 1 0
1  38 0 0 6.3
2  30 9 0 0 6.3
0

0101000
+28 8 -81 8 *
Wi

0101100
-79 0 +29 5 +27 5 -26 5 *
Fa
0  8.3333333e-08 9 5

0101000
+25 0 *
Ed
 1.25e-07 1 1 0
1  39 0 -0.138792000678349 4.22212533401168
0

0101000
+30 8 -28 8 *
Wi

0101100
-29 5 -78 0 +26 5 +23 5 *
Fa
0  8.3333333e-08 18 5

0101000
+22 0 *
Wi

0101100
+63 0 *
Fa
0  1e-07 13 0

0101000
+20 0 *
Wi

0101100
+58 0 *
Fa
0  1e-07 14 0

0101000
+18 0 *
Wi

0101100
+53 0 *
Fa
0  1e-07 15 0

0101000
+16 0 *
Wi

0101100
+43 0 +47 0 *
Fa
0  8.3333333e-08 19 0

0101000
+14 0 *
Wi

0101100
+33 0 +37 0 *
Fa
0  8.3333333e-08 20 0

0101000
+12 0 *
Wi

0101100
+23 0 +27 0 *
Fa
0  8.3333333e-08 21 0

0101000
+10 0 *
Sh

0101100
-112 2 -105 2 +76 0 +71 2 -68 2 +66 2 -61 0 -56 0 -51 0 -44 2 
-41 2 -34 2 -31 2 -24 2 -21 2 -19 0 -17 0 -15 0 +13 9 +11 10 
+9 11 *
So

0100000
+8 0 *
Co

0100000
+7 0 *
Co

0100000
+6 0 *
Co

0100000
+5 0 *
Co

0100000
+4 0 *
Co

0100000
+3 0 *
Co

1100000
+2 0 *

+1 1 