DBRep_DrawableShape

CASCADE Topology V1, (c) Matra-Datavision
Locations 3
1
              1               0               0               0 
              0               1               0               0 
              0               0               1               0 
1
              1               0               0            43.2 
              0               1               0               9 
              0               0               1               0 
2  2 -1 0
Curve2ds 12
8 0.20000000000000001 4.7999999999999998
1 5.51619129931772 0 0 1 
8 0 4.7491972914558538
1 0.76699400786186656 0.20000000000000001 1 0 
8 0 4.7491972914558538
1 0 0 1 0 
8 0 4.7491972914558538
1 0.76699400786186656 4.7999999999999998 1 0 
8 0 4.7491972914558538
1 0 0 1 0 
8 0.20000000000000001 4.7999999999999998
1 0.76699400786186656 0 0 1 
7 0 0  5 6 2  6.8000000000000001e-16 6.5000000000000001e-16  0.0054881485837140302 0.057709501266172462  0.011069611182659809 0.11484852314671649  0.016747388903214921 0.17141706564165157  0.022524663125442421 0.22741512875094619  0.028404822322278159 0.28284271247462384 
 -2.081922188747698 6 -1.9995999599919978 6
8 0.028404822322277031 4.7207924691335768
1 0 0.28284271247461906 1 0 
7 0 0  5 6 2  4.7491972914558529 -5.6300000000000004e-15  4.7437091428721399 0.057709501266166738  4.7381276802731946 0.11484852314671723  4.7324499025526521 0.17141706564163955  4.7266726283304106 0.22741512875094225  4.720792469133575 0.28284271247462045 
 -2.0819221887476997 6 -1.9995999599919989 6
7 0 0  5 6 2  1.3e-15 7.8499999999999994e-15  0.0054881485837145298 0.05770950126617834  0.01106961118266017 0.11484852314672334  0.016747388903214089 0.17141706564164749  0.022524663125442549 0.2274151287509486  0.028404822322278159 0.28284271247462506 
 -2.0819221887476962 6 -1.9995999599919978 6
8 0.028404822322277031 4.7207924691335768
1 0 0.28284271247461906 1 0 
7 0 0  5 6 2  4.7491972914558529 -5.7599999999999997e-15  4.7437091428721399 0.057709501266166377  4.7381276802732089 0.11484852314671853  4.7324499025526379 0.17141706564164194  4.7266726283304115 0.22741512875094208  4.7207924691335759 0.28284271247462006 
 -2.0819221887476997 6 -1.9995999599919994 6
Curves 26
1 -5.0399999999999956 -3.5819221887476966 0 0 0 1 
2 -7.1999999999999957 -1.5 0.20000000000000001 0 -0 1 0.71999999999999997 0.69397406291589891 0 -0.69397406291589891 0.71999999999999997 0 3
2 -7.1999999999999957 -1.5 4.7999999999999998 0 -0 1 0.71999999999999997 0.69397406291589891 0 -0.69397406291589891 0.71999999999999997 0 3
1 -5.0399999999999956 0.58192218874769663 0 0 0 1 
1 -5.0399999999999956 -3.5819221887476962 0.20000000000000001 0 1 0 
1 -5.0399999999999956 -3.5819221887476962 4.7999999999999998 0 1 0 
8 -2.081922188747698 -1.9995999599919978
4 -7.6199999999999966 -1.5 -2.3799999999999977 0.70710678118654724 0 -0.70710678118654791 0.70710678118654791 0 0.70710678118654724 0 -1 0 0.29698484809835057
2 -7.1999999999999957 -1.5 0 0 -0 1 0.71999999999999997 0.69397406291589891 0 -0.69397406291589891 0.71999999999999997 0 2.7999999999999998
8 -2.0819221887476997 -1.9995999599919989
4 -7.6199999999999966 -1.5 -2.3799999999999977 -0.70710678118654724 0 0.70710678118654791 0.70710678118654791 0 0.70710678118654724 0 1 -0 0.29698484809835057
8 -2.0819221887476962 -1.9995999599919978
4 -7.6199999999999966 -1.5 7.3800000000000017 -0.70710678118654757 -0 -0.70710678118654757 0.70710678118654757 0 -0.70710678118654757 0 -1 0 0.29698484809835041
2 -7.1999999999999957 -1.5 5 0 -0 1 0.71999999999999997 0.69397406291589891 0 -0.69397406291589891 0.71999999999999997 0 2.7999999999999998
8 -2.0819221887476997 -1.9995999599919994
4 -7.6199999999999966 -1.5 7.3800000000000017 0.70710678118654757 -0 0.70710678118654757 0.70710678118654757 0 -0.70710678118654757 0 1 0 0.29698484809835041
1 -5.2399999999999967 -3.5819221887476962 0 0 1 0 
1 -5.2399999999999967 -3.5819221887476962 5 0 1 0 
1 30 1 5 -0 1 0 
1 30 14.000000000000002 5 1 0 -0 
1 30 1 5 1 0 -0 
1 42 1 5 -0 1 0 
1 30 1 5 0 0 1 
1 30 1 7.0000000000000009 -0 1 0 
1 30 14.000000000000002 5 0 0 1 
1 42 14.000000000000002 5 0 0 1 
1 30 14.000000000000002 7.0000000000000009 1 0 -0 
1 42 1 5 0 0 1 
1 30 1 7.0000000000000009 1 0 -0 
1 42 1 7.0000000000000009 -0 1 0 
Polygon3D 0
PolygonOnTriangulations 0
Surfaces 13
2 -7.1999999999999957 -1.5 0 0 0 1 1 0 -0 -0 1 0 3
3 -7.1999999999999957 -1.5 0.20000000000000001 -0 -0 -1 0.71999999999999997 0.69397406291589891 -0 -0.69397406291589891 0.71999999999999997 -0 3
-0.78539816339744839
3 -7.1999999999999957 -1.5 4.7999999999999998 0 0 1 0.71999999999999997 0.69397406291589891 -0 -0.69397406291589891 0.71999999999999997 0 3
-0.78539816339744795
1 -5.0399999999999956 -5.333333333333333 -0.83333333333333337 1 0 0 0 0 1 0 -1 0 
1 -5.1399999999999961 -3.5819221887476962 0.10000000000000001 -0.70710678118654724 0 0.70710678118654791 0 1 0 -0.70710678118654791 0 -0.70710678118654724 
1 -5.1399999999999961 -3.5819221887476962 4.9000000000000004 0.70710678118654757 0 0.70710678118654757 -0 1 0 0.70710678118654757 0 -0.70710678118654757 
1 -7.1999999999999957 -1.5 0 0 0 1 1 0 -0 -0 1 0 
1 30 1 5 0 0 1 1 0 -0 -0 1 0 
1 30 1 5 1 0 -0 0 0 1 0 -1 0 
1 30 14.000000000000002 5 -0 1 0 0 0 1 1 0 -0 
1 30 1 5 -0 1 0 0 0 1 1 0 -0 
1 42 1 5 1 0 -0 0 0 1 0 -1 0 
1 30 1 7.0000000000000009 0 0 1 1 0 -0 -0 1 0 
Triangulations 0

TShapes 72
Ve
1e-07
38.16 5.41807781125231 0.2
0 0

0101101
*
Ve
1e-07
38.16 5.41807781125231 4.8
0 0

0101101
*
Ed
 8.3333333e-08 1 1 0
1  1 0 0.2 4.8
2  1 1 0 0.2 4.8
0

0101000
+72 3 -71 3 *
Ve
1e-07
38.16 9.5819221887477 0.2
0 0

0101101
*
Ed
 8.3333333e-08 1 1 0
1  2 0 0 4.74919729145585
2  2 1 0 0 4.74919729145585
2  3 2 0 0 4.74919729145585
0

0101000
+69 3 -72 3 *
Ve
1e-07
38.16 9.5819221887477 4.8
0 0

0101101
*
Ed
 8.3333333e-08 1 1 0
1  3 0 0 4.74919729145585
2  4 1 0 0 4.74919729145585
2  5 3 0 0 4.74919729145585
0

0101000
+67 3 -71 3 *
Ed
 8.3333333e-08 1 1 0
1  4 0 0.2 4.8
2  6 1 0 0.2 4.8
0

0101000
+69 3 -67 3 *
Wi

0101100
+70 0 +68 0 -66 0 -65 0 *
Fa
0  8.3333333e-08 1 0

0101000
+64 0 *
Ed
 8.3333333e-08 1 1 0
1  5 0 -0 4.16384437749539
0

0101000
+72 3 -69 3 *
Ed
 8.3333333e-08 1 1 0
1  6 0 -0 4.16384437749539
0

0101000
+71 3 -67 3 *
Wi

0101100
-70 0 +62 0 -61 0 +65 0 *
Fa
0  8.3333333e-08 4 0

0101000
+60 0 *
Ve
1e-07
37.96 9.499599959992 0
0 0

0101101
*
Ed
 8.3333333e-08 1 1 0
1  7 0 -2.0819221887477 -1.999599959992
2  7 2 0 -2.0819221887477 -1.999599959992
0

0101000
+69 3 -58 3 *
Ve
1e-07
37.96 5.500400040008 0
0 0

0101101
*
Ed
 8.3333333e-08 1 1 0
1  8 0 0.028404822322277 4.72079246913358
2  8 2 0 0.028404822322277 4.72079246913358
0

0101000
+58 3 -56 3 *
Ed
 8.3333333e-08 1 1 0
1  9 0 -2.0819221887477 -1.999599959992
2  9 2 0 -2.0819221887477 -1.999599959992
0

0101000
+72 3 -56 3 *
Wi

0101100
-57 0 +68 0 -55 0 +54 0 *
Fa
0  8.3333333e-08 2 0

0101000
+53 0 *
Ve
1e-07
37.96 9.499599959992 5
0 0

0101101
*
Ed
 8.3333333e-08 1 1 0
1  10 0 -2.0819221887477 -1.999599959992
2  10 3 0 -2.0819221887477 -1.999599959992
0

0101000
+67 3 -51 3 *
Ve
1e-07
37.96 5.500400040008 5
0 0

0101101
*
Ed
 8.3333333e-08 1 1 0
1  11 0 0.028404822322277 4.72079246913358
2  11 3 0 0.028404822322277 4.72079246913358
0

0101000
+51 3 -49 3 *
Ed
 8.3333333e-08 1 1 0
1  12 0 -2.0819221887477 -1.999599959992
2  12 3 0 -2.0819221887477 -1.999599959992
0

0101000
+71 3 -49 3 *
Wi

0101100
-50 2 +66 2 -48 2 +47 2 *
Fa
0  8.3333333e-08 3 2

0101000
+46 0 *
Ed
 8.3333333e-08 1 1 0
1  13 0 0.082322228755699 4.08152214873969
0

0101000
+56 3 -58 3 *
Wi

0101100
-54 0 +62 0 -44 0 +57 0 *
Fa
0  8.3333333e-08 5 0

0101000
+43 0 *
Ed
 8.3333333e-08 1 1 0
1  14 0 0.082322228755699 4.08152214873969
0

0101000
+49 3 -51 3 *
Wi

0101100
+47 2 -61 2 +41 2 -50 2 *
Fa
0  8.3333333e-08 6 2

0101000
+40 0 *
Wi

0101100
+55 0 +44 0 *
Fa
0  8.3333333e-08 7 0

0101000
+38 0 *
Ve
1e-07
30 14 5
0 0

0101101
*
Ve
1e-07
30 1 5
0 0

0101101
*
Ed
 8.3333333e-08 1 1 0
1  15 0 0 13
0

0101000
-36 0 +35 0 *
Ve
1e-07
42 14 5
0 0

0101101
*
Ed
 8.3333333e-08 1 1 0
1  16 0 0 12
0

0101000
-33 0 +36 0 *
Ve
1e-07
42 1 5
0 0

0101101
*
Ed
 8.3333333e-08 1 1 0
1  17 0 0 12
0

0101000
-31 0 +35 0 *
Ed
 8.3333333e-08 1 1 0
1  18 0 0 13
0

0101000
-33 0 +31 0 *
Wi

0101100
-34 0 -32 0 +30 0 +29 0 *
Wi

0101100
-48 2 -41 2 *
Fa
0  8.3333333e-08 8 0

0101000
+28 0 +27 0 *
Ve
1e-07
30 1 7
0 0

0101101
*
Ed
 8.3333333e-08 1 1 0
1  19 0 0 2
0

0101000
-25 0 +35 0 *
Ve
1e-07
30 14 7
0 0

0101101
*
Ed
 8.3333333e-08 1 1 0
1  20 0 0 13
0

0101000
-23 0 +25 0 *
Ed
 8.3333333e-08 1 1 0
1  21 0 0 2
0

0101000
-23 0 +36 0 *
Wi

0101100
-24 0 -22 0 +21 0 +34 0 *
Fa
0  8.3333333e-08 9 0

0101000
+20 0 *
Ve
1e-07
42 14 7
0 0

0101101
*
Ed
 8.3333333e-08 1 1 0
1  22 0 0 2
0

0101000
-18 0 +33 0 *
Ed
 8.3333333e-08 1 1 0
1  23 0 0 12
0

0101000
-18 0 +23 0 *
Wi

0101100
-32 0 -17 0 +16 0 +21 0 *
Fa
0  8.3333333e-08 10 0

0101000
+15 0 *
Ve
1e-07
42 1 7
0 0

0101101
*
Ed
 8.3333333e-08 1 1 0
1  24 0 0 2
0

0101000
-13 0 +31 0 *
Ed
 8.3333333e-08 1 1 0
1  25 0 0 12
0

0101000
-13 0 +25 0 *
Wi

0101100
-30 0 -12 0 +11 0 +24 0 *
Fa
0  8.3333333e-08 11 0

0101000
+10 0 *
Ed
 8.3333333e-08 1 1 0
1  26 0 0 13
0

0101000
-18 0 +13 0 *
Wi

0101100
-12 0 -8 0 +17 0 +29 0 *
Fa
0  8.3333333e-08 12 0

0101000
+7 0 *
Wi

0101100
-22 0 -16 0 +8 0 +11 0 *
Fa
0  8.3333333e-08 13 0

0101000
+5 0 *
Sh

0101100
+63 2 +59 2 -52 2 +45 0 -42 2 -39 0 -37 2 -26 0 -19 0 +14 0 
-9 0 +6 0 +4 0 *
So

0100000
+3 0 *
Co

1100000
+2 0 *

+1 1 