DBRep_DrawableShape

CASCADE Topology V1, (c) Matra-Datavision
Locations 1
1
              1               0               0               0 
              0               1               0               0 
              0               0               1               0 
Curve2ds 14
8 0.36000000000000032 15.039999999999999
7 0 0  2 3 2  6.2831853071795853 0.35999999999999943  6.2831853071795827 7.6999999999999984  6.2831853071795853 15.039999999999999 
 0.36000000000000032 3 15.039999999999999 3
8 0.36000000000000032 15.039999999999999
7 0 0  2 3 2  -8.9000000000000007e-16 0.35999999999999943  -3.5500000000000001e-15 7.6999999999999984  -8.9000000000000007e-16 15.039999999999999 
 0.36000000000000032 3 15.039999999999999 3
8 0 6.2831853071795862
7 0 0  2 7 4  0 0.36000000000000032  1.0471975511965983 0.35999999999999838  2.0943951023931957 0.36000000000000121  3.1415926535897905 0.35999999999999804  4.1887902047863905 0.36000000000000032  5.2359877559829879 0.36000000000000082  6.2831853071795862 0.35999999999999943 
 0 3 2.0943951023931953 2 4.1887902047863905 2 6.2831853071795862 3
8 0 6.2831853071795862
7 0 0  2 7 4  0 0  1.0471975511965967 2.57e-15  2.0943951023931953 0  3.1415926535897909 6.77e-15  4.1887902047863905 0  5.2359877559829888 1.94e-15  6.2831853071795862 6.2999999999999998e-16 
 0 3 2.0943951023931953 2 4.1887902047863905 2 6.2831853071795862 3
8 0 6.2831853071795862
7 0 0  2 7 4  0 15.039999999999999  1.0471975511965983 15.040000000000003  2.0943951023931957 15.039999999999999  3.1415926535897905 15.040000000000003  4.1887902047863905 15.039999999999999  5.2359877559829879 15.040000000000003  6.2831853071795862 15.039999999999999 
 0 3 2.0943951023931953 2 4.1887902047863905 2 6.2831853071795862 3
8 0 6.2831853071795862
7 0 0  2 7 4  0 0  1.0471975511965967 2.57e-15  2.0943951023931953 0  3.1415926535897909 6.77e-15  4.1887902047863905 0  5.2359877559829888 1.94e-15  6.2831853071795862 6.2999999999999998e-16 
 0 3 2.0943951023931953 2 4.1887902047863905 2 6.2831853071795862 3
8 0 0.50911688245431419
7 0 0  2 3 2  6.2831853071795862 0  6.2831853071795862 0.2545584412271571  6.2831853071795862 0.50911688245431419 
 0 3 0.50911688245431419 3
8 0 0.50911688245431419
7 0 0  2 3 2  0 0  0 0.2545584412271571  0 0.50911688245431419 
 0 3 0.50911688245431419 3
8 0 6.2831853071795862
7 0 0  2 7 4  0 0.50911688245431419  1.0471975511965974 0.50911688245431364  2.0943951023931953 0.50911688245431486  3.1415926535897909 0.50911688245432218  4.1887902047863905 0.50911688245431497  5.2359877559829888 0.50911688245431652  6.2831853071795862 0.50911688245431419 
 0 3 2.0943951023931953 2 4.1887902047863905 2 6.2831853071795862 3
8 0 6.2831853071795862
7 1 1  2 6 4  1.6400000000000006 0  1 1.6400000000000006 2.8405633244129582  0.50000000000000011 -0.81999999999999984 1.4202816622064791  1 -3.2799999999999994 0  0.50000000000000011 -0.82000000000000073 -1.4202816622064791  1 1.6399999999999979 -2.84056332441296  0.50000000000000011
 0 2 2.0943951023931953 2 4.1887902047863905 2 6.2831853071795862 2
8 0 0.50911688245431419
7 0 0  2 3 2  6.2831853071795862 0  6.2831853071795862 0.2545584412271571  6.2831853071795862 0.50911688245431419 
 0 3 0.50911688245431419 3
8 0 0.50911688245431419
7 0 0  2 3 2  0 0  0 0.2545584412271571  0 0.50911688245431419 
 0 3 0.50911688245431419 3
8 0 6.2831853071795862
7 0 0  2 7 4  0 0.50911688245431419  1.0471975511965974 0.50911688245431364  2.0943951023931953 0.50911688245431486  3.1415926535897909 0.50911688245432218  4.1887902047863905 0.50911688245431497  5.2359877559829888 0.50911688245431652  6.2831853071795862 0.50911688245431419 
 0 3 2.0943951023931953 2 4.1887902047863905 2 6.2831853071795862 3
8 0 6.2831853071795862
7 1 1  2 6 4  1.6400000000000006 0  1 1.6400000000000006 2.8405633244129582  0.50000000000000011 -0.81999999999999984 1.4202816622064791  1 -3.2799999999999994 0  0.50000000000000011 -0.82000000000000073 -1.4202816622064791  1 1.6399999999999979 -2.84056332441296  0.50000000000000011
 0 2 2.0943951023931953 2 4.1887902047863905 2 6.2831853071795862 2
Curves 7
8 0.36000000000000032 15.039999999999999
7 0 0  1 2 2  -5.9719313176395934 -9.9999999999999982 4.5833333333333339  6.26140201569374 -9.9999999999999982 4.5833333333333339 
 0.36000000000000032 2 15.039999999999999 2
8 0 6.2831853071795862
7 1 1  2 6 4  -5.9719313176395934 -10 4.5833333333333339  1 -5.9719313176395934 -12.886751345948129 4.5833333333333339  0.50000000000000011 -5.682460619585445 -11.443375672974064 2.0833333333333339  1 -5.3929899215312966 -10 -0.41666666666666596  0.50000000000000011 -5.682460619585445 -8.5566243270259363 2.0833333333333326  1 -5.9719313176395916 -7.1132486540518709 4.5833333333333304  0.50000000000000011
 0 2 2.0943951023931953 2 4.1887902047863905 2 6.2831853071795862 2
8 0 6.2831853071795862
7 1 1  2 6 4  6.26140201569374 -10 4.5833333333333339  1 6.26140201569374 -12.886751345948129 4.5833333333333339  0.50000000000000011 6.5508727137478884 -11.443375672974064 2.0833333333333339  1 6.8403434118020368 -10 -0.41666666666666596  0.50000000000000011 6.5508727137478884 -8.5566243270259363 2.0833333333333326  1 6.2614020156937418 -7.1132486540518709 4.5833333333333304  0.50000000000000011
 0 2 2.0943951023931953 2 4.1887902047863905 2 6.2831853071795862 2
8 0 0.50911688245431419
7 0 0  1 2 2  -5.9719313176395934 -10 4.5833333333333339  -6.2371948338730956 -10 4.2833333333333341 
 0 2 0.50911688245431419 2
8 0 6.2831853071795862
7 1 1  2 6 4  -6.2371948338730956 -10 4.2833333333333341  1 -6.2371948338730956 -12.367136103677465 4.2833333333333341  0.50000000000000011 -5.9998288614686945 -11.183568051838733 2.2333333333333334  1 -5.7624628890642926 -10 0.18333333333333388  0.50000000000000011 -5.9998288614686945 -8.8164319481612683 2.2333333333333329  1 -6.2371948338730956 -7.6328638963225339 4.2833333333333314  0.50000000000000011
 0 2 2.0943951023931953 2 4.1887902047863905 2 6.2831853071795862 2
8 0 0.50911688245431419
7 0 0  1 2 2  6.26140201569374 -10 4.5833333333333339  6.5961384994602392 -10 4.2833333333333341 
 0 2 0.50911688245431419 2
8 0 6.2831853071795862
7 1 1  2 6 4  6.5961384994602392 -10 4.2833333333333341  1 6.5961384994602392 -12.367136103677465 4.2833333333333341  0.50000000000000011 6.8335044718646394 -11.183568051838733 2.2333333333333334  1 7.0708704442690413 -10 0.18333333333333388  0.50000000000000011 6.8335044718646412 -8.8164319481612683 2.2333333333333329  1 6.5961384994602392 -7.6328638963225339 4.2833333333333314  0.50000000000000011
 0 2 2.0943951023931953 2 4.1887902047863905 2 6.2831853071795862 2
Polygon3D 0
PolygonOnTriangulations 0
Surfaces 5
9 0 1 1 0 2 1 6 2 4 2 -5.9719313176395934 -10 4.5833333333333339  1 6.26140201569374 -10 4.5833333333333339  1 
-5.9719313176395934 -12.886751345948129 4.5833333333333339  0.5 6.26140201569374 -12.886751345948129 4.5833333333333339  0.5 
-5.682460619585445 -11.443375672974064 2.0833333333333339  1 6.5508727137478875 -11.443375672974064 2.0833333333333339  1 
-5.3929899215312966 -10 -0.41666666666666596  0.5 6.8403434118020359 -10 -0.41666666666666596  0.5 
-5.682460619585445 -8.5566243270259363 2.0833333333333326  1 6.5508727137478884 -8.5566243270259363 2.0833333333333326  1 
-5.9719313176395916 -7.1132486540518709 4.5833333333333304  0.5 6.26140201569374 -7.1132486540518709 4.5833333333333304  0.5 

0 2
2.0943951023931953 2
4.1887902047863905 2
6.2831853071795862 2

0.36000000000000032 2
15.039999999999999 2

9 0 1 1 0 2 1 6 2 4 2 -5.9719313176395934 -10 4.5833333333333339  1 -6.2371948338730956 -10 4.2833333333333341  1 
-5.9719313176395934 -12.886751345948129 4.5833333333333339  0.5 -6.2371948338730956 -12.367136103677465 4.2833333333333341  0.5 
-5.682460619585445 -11.443375672974064 2.0833333333333339  1 -5.9998288614686945 -11.183568051838733 2.2333333333333334  1 
-5.3929899215312966 -10 -0.41666666666666596  0.5 -5.7624628890642926 -10 0.18333333333333388  0.5 
-5.682460619585445 -8.5566243270259363 2.0833333333333326  1 -5.9998288614686945 -8.8164319481612683 2.2333333333333329  1 
-5.9719313176395916 -7.1132486540518709 4.5833333333333304  0.5 -6.2371948338730956 -7.6328638963225339 4.2833333333333314  0.5 

0 2
2.0943951023931953 2
4.1887902047863905 2
6.2831853071795862 2

0 2
0.50911688245431419 2

9 0 1 1 0 2 1 6 2 4 2 6.26140201569374 -10 4.5833333333333339  1 6.5961384994602392 -10 4.2833333333333341  1 
6.26140201569374 -12.886751345948129 4.5833333333333339  0.5 6.5961384994602392 -12.367136103677465 4.2833333333333341  0.5 
6.5508727137478884 -11.443375672974064 2.0833333333333339  1 6.8335044718646394 -11.183568051838733 2.2333333333333334  1 
6.8403434118020368 -10 -0.41666666666666596  0.5 7.0708704442690413 -10 0.18333333333333388  0.5 
6.5508727137478884 -8.5566243270259363 2.0833333333333326  1 6.8335044718646412 -8.8164319481612683 2.2333333333333329  1 
6.2614020156937418 -7.1132486540518709 4.5833333333333304  0.5 6.5961384994602392 -7.6328638963225339 4.2833333333333314  0.5 

0 2
2.0943951023931953 2
4.1887902047863905 2
6.2831853071795862 2

0 2
0.50911688245431419 2

9 0 0 0 0 1 1 2 2 2 2 -5.9207068706672272 -8.6333333333333329 1.55  -5.9207068706672272 -11.366666666666667 1.55  
-6.2371948338730956 -8.6333333333333329 4.2833333333333341  -6.2371948338730956 -11.366666666666667 4.2833333333333341  

-1.6400000000000001 2
1.6400000000000001 2

-1.6400000000000001 2
1.6400000000000001 2

9 0 0 0 0 1 1 2 2 2 2 6.9126264626661067 -8.6333333333333329 1.55  6.9126264626661067 -11.366666666666667 1.55  
6.5961384994602392 -8.6333333333333329 4.2833333333333341  6.5961384994602392 -11.366666666666667 4.2833333333333341  

-1.6400000000000001 2
1.6400000000000001 2

-1.6400000000000001 2
1.6400000000000001 2

Triangulations 0

TShapes 24
Ve
1e-07
-5.97193131763959 -10 4.58333333333333
0 0

0101101
*
Ve
1e-07
6.26140201569374 -10 4.58333333333333
0 0

0101101
*
Ed
 8.3333333e-08 1 1 0
1  1 0 0.36 15.04
3  1 2CN 1 0 0.36 15.04
0

0101000
+24 0 -23 0 *
Ed
 8.3333333e-08 1 1 0
1  2 0 0 6.28318530717959
2  3 1 0 0 6.28318530717959
2  4 2 0 0 6.28318530717959
0

0101000
+24 0 -24 0 *
Ed
 8.3333333e-08 1 1 0
1  3 0 0 6.28318530717959
2  5 1 0 0 6.28318530717959
2  6 3 0 0 6.28318530717959
0

0101000
+23 0 -23 0 *
Wi

0101100
+22 0 +21 0 -20 0 -22 0 *
Fa
0  8.3333333e-08 1 0

0101000
+19 0 *
Ve
1e-07
-6.2371948338731 -10 4.28333333333333
0 0

0101101
*
Ed
 8.3333333e-08 1 1 0
1  4 0 0 0.509116882454314
3  7 8CN 2 0 0 0.509116882454314
0

0101000
+24 0 -17 0 *
Ed
 8.3333333e-08 1 1 0
1  5 0 0 6.28318530717959
2  9 2 0 0 6.28318530717959
2  10 4 0 0 6.28318530717959
0

0101000
+17 0 -17 0 *
Wi

0101100
-16 0 +21 0 -15 0 +16 0 *
Fa
0  8.3333333e-08 2 0

0101000
+14 0 *
Ve
1e-07
6.59613849946024 -10 4.28333333333333
0 0

0101101
*
Ed
 8.3333333e-08 1 1 0
1  6 0 0 0.509116882454314
3  11 12CN 3 0 0 0.509116882454314
0

0101000
+23 0 -12 0 *
Ed
 8.3333333e-08 1 1 0
1  7 0 0 6.28318530717959
2  13 3 0 0 6.28318530717959
2  14 5 0 0 6.28318530717959
0

0101000
+12 0 -12 0 *
Wi

0101100
-11 0 +20 0 -10 0 +11 0 *
Fa
0  8.3333333e-08 3 0

0101000
+9 0 *
Wi

0101100
+15 0 *
Fa
0  8.3333333e-08 4 0

0101000
+7 0 *
Wi

0101100
+10 0 *
Fa
0  8.3333333e-08 5 0

0101000
+5 0 *
Sh

0101100
+18 0 -13 0 +8 0 -6 0 +4 0 *
So

0100000
+3 0 *
Co

0100000
+2 0 *

+1 1 