DBRep_DrawableShape

CASCADE Topology V1, (c) Matra-Datavision
Locations 6
1
              1               0               0               0 
              0               1               0               0 
              0               0               1               0 
1
              1               0               0              29 
              0               1               0               0 
              0               0               1           150.5 
2  2 -1 0
1
              1               0               0               0 
              0               1               0               0 
              0               0               1             2.2 
2  2 1 4 1 0
2  4 -1 2 -1 0
Curve2ds 12
8 0 2.2000000000000002
7 0 0  2 3 2  0 0  0 -1.1000000000000001  0 -2.2000000000000002 
 0 3 2.2000000000000002 3
8 0 2.2000000000000002
7 0 0  2 3 2  6.2831853071795862 0  6.2831853071795862 -1.1000000000000001  6.2831853071795862 -2.2000000000000002 
 0 3 2.2000000000000002 3
8 0 6.2831853071795862
7 0 0  2 7 4  0 0  1.0471975511965992 -1.401e-14  2.0943951023931953 0  3.141592653589794 -9.7599999999999996e-14  4.1887902047863905 0  5.2359877559829879 -6.3460000000000002e-14  6.2831853071795862 0 
 0 3 2.0943951023931953 2 4.1887902047863905 2 6.2831853071795862 3
8 0 6.2831853071795862
7 1 1  2 6 4  9.917426087497482 4.0000000000000003e-17  1 9.917426087497482 13.336791218280352  0.50000000000000011 -5.5325739125025137 6.6683956091401786  1 -20.982573912502513 1.92e-15  0.50000000000000011 -5.5325739125025208 -6.6683956091401759  1 9.9174260874974678 -13.336791218280359  0.50000000000000011
 0 2 2.0943951023931953 2 4.1887902047863905 2 6.2831853071795862 2
8 0 6.2831853071795862
7 0 0  2 7 4  0 -2.2000000000000002  1.0471975511965992 -2.1999999999999629  2.0943951023931953 -2.2000000000000002  3.141592653589794 -2.2000000000000344  4.1887902047863905 -2.2000000000000002  5.2359877559829879 -2.2000000000000797  6.2831853071795862 -2.2000000000000002 
 0 3 2.0943951023931953 2 4.1887902047863905 2 6.2831853071795862 3
8 0 6.2831853071795862
7 1 1  2 6 4  9.917426087497482 4.0000000000000003e-17  1 9.917426087497482 13.336791218280352  0.50000000000000011 -5.5325739125025137 6.6683956091401786  1 -20.982573912502513 1.92e-15  0.50000000000000011 -5.5325739125025208 -6.6683956091401759  1 9.9174260874974678 -13.336791218280359  0.50000000000000011
 0 2 2.0943951023931953 2 4.1887902047863905 2 6.2831853071795862 2
8 0 1
7 0 0  8 205 30  5.4774260874974843 -1.7800000000000001e-15  5.4774260932156196 -0.13347046190206188  5.4739517991379216 -0.26694118600715416  5.4670032273567983 -0.40030628396815626  5.4565842287166006 -0.53346021722926618  5.4427024828136297 -0.66629779702600278  5.4253694979961153 -0.7987141843852047  5.4046006113642377 -0.93060489012503078  5.3562293774229559 -1.193126661657216  5.328626935088181 -1.3237582431742141  5.2976268710712517 -1.4536563880219808  5.2632520966611693 -1.5827180026090593  5.2255292251304652 -1.710841031136513  5.184488571735244 -1.8379244555979228  5.1401641537151264 -1.963868295779388  5.0450232375566344 -2.213278926815665  4.9942065525137451 -2.3367462076382748  4.9401813956708764 -2.4588765250539368  4.8829889801782826 -2.5795726438220745  4.8226739718302198 -2.6987390201349477  4.7592844890649104 -2.8162818016176581  4.6928721029645857 -2.9321088273281455  4.5541115813160076 -3.1601504341309754  4.4817631731724035 -3.2723654632115813  4.4065016742968481 -3.382684268457774  4.3283852351503498 -3.491018692398824  4.247475095182736 -3.5972828666345023  4.1638355828326112 -3.7013932118350792  4.0775341155274205 -3.8032684377413268  3.8997482923700488 -4.0023906562043772  3.8082635872571728 -4.0996380399372336  3.7142576237201581 -4.1944927226019351  3.6178035641928759 -4.2868785433553169  3.5189771941676469 -4.3767221522721815  3.4178569221952344 -4.4639530103453087  3.3145237798848584 -4.548503389485453  3.1072356930003977 -4.7092925099925713  3.0034246932946616 -4.7857176107761266  2.8977037234391716 -4.8595252883509401  2.7901498920902554 -4.9306599659752521  2.6808421159083835 -4.9990688766866063  2.5698611195581584 -5.0647020633018576  2.4572894357083186 -5.127512378417169  1.6227679439188378 -5.5660182533281102  0.84033220241822448 -5.8312259929650372  0.019684753061014248 -5.9692718936019924  -0.81510151237513995 -5.9755704965206444  -1.6402789981527199 -5.8491193261352397  -2.4324920175852611 -5.594330318217728  -3.168578967617087 -5.2192078891719724  -3.89774096861602 -4.689439989398613  -3.9676098838250731 -4.6368338531036546  -4.0365781947459638 -4.5830386477163696  -4.1046223094243146 -4.5280723900824045  -4.1717190857683448 -4.4719536443294681  -4.2378458315488352 -4.4147015218673227  -4.3029803043991635 -4.3563356813877938  -4.4818423548016568 -4.1904755322255554  -4.593337216037277 -4.0805725830489639  -4.7014600417463299 -3.9672837083687664  -4.8060910569802715 -3.8507299046100134  -4.9071159656178516 -3.7310369375890273  -5.0044259503651034 -3.6083353425134028  -5.0979176727553508 -3.4827604239820054  -5.2428194556512011 -3.2752030014619504  -5.2966518526282123 -3.1949108286081795  -5.3489674894805503 -3.1136086518206034  -5.3997442964894873 -3.0313299322172278  -5.4489611088172261 -2.948108677637105  -5.4965976665069221 -2.8639794426403462  -5.5426346144826688 -2.7789773285081183  -5.6378179409933757 -2.5950358901982864  -5.6864690713891051 -2.4958401187258628  -5.7329793476196045 -2.3956039170461665  -5.7773228832474466 -2.2943812392400593  -5.819475451514851 -2.1922267452484676  -5.8594144853436951 -2.0891958008723819  -5.8971190773355033 -1.9853444777728566  -5.9724522418976242 -1.7630377908675736  -6.009482274789395 -1.6443792983895238  -6.0436326783776941 -1.5248349779414305  -6.0748788573654551 -1.4044864234610965  -6.1031990212276135 -1.283415920919557  -6.1285741842111108 -1.1617064483210795  -6.150988165334887 -1.0394416757031633  -6.189867018802218 -0.79397025573517566  -6.2063319485506909 -0.67076324594473158  -6.2198090298525628 -0.54716930233819228  -6.2302877962717922 -0.42327300004805424  -6.2377606627190723 -0.29915912276632517  -6.2422229254518093 -0.17491266274452413  -6.2436727620741337 -0.050618820793681962  -6.240434042107065 0.20709691742299491  -6.2352828239026863 0.3405134451228598  -6.2266589296115846 0.47378069710624604  -6.2145675359757568 0.60679319154009648  -6.199017643791354 0.73944584446730488  -6.1800220779086885 0.87163396980671548  -6.157597487232227 1.0032532793531241  -6.1068220076945074 1.2606311006886419  -6.0787020503873386 1.3864356621747831  -6.0474229326619131 1.5115200877859902  -6.0130063229317443 1.6357918302426937  -5.9754770981610292 1.7591592744354614  -5.9348633438646559 1.8815317374250007  -5.8911963541081924 2.0028194684421581  -5.7978249175433909 2.243047832690237  -5.7481203113059181 2.3619888761044261  -5.6954313487772907 2.4796679734999443  -5.6397955618125941 2.595997798598082  -5.581253478140237 2.7108925044719592  -5.5198486213619233 2.8242677235465288  -5.4556275109526666 2.9360405675985741  -5.3240442379313961 3.1522869495612369  -5.2568759701203795 3.2568789424306592  -5.1871792718047764 3.3598326449407887  -5.1150008877725064 3.4610768010453814  -5.0403898946223897 3.5605418600761469  -4.9633977007641477 3.6581599767427373  -4.8840780464183737 3.7538650111327576  -4.7390272833695981 3.9204917380276076  -4.6741934090926769 3.9921947974610399  -4.6080117382974635 4.0626714337344731  -4.5405093784076982 4.1318921187852942  -4.4717141867591543 4.199828069765859  -4.4016547705996842 4.2664512490434827  -4.3303604870892016 4.3317343642004476  -4.1715530783271149 4.4717419303996104  -4.0835371352568473 4.5458963144819444  -3.9938644595777468 4.6180692060430912  -3.9025871717346767 4.6882174889271004  -3.8097586671285057 4.7562997450599811  -3.7154336161160977 4.8222762544497089  -3.6196679640103255 4.8861089951862215  -3.4331418120083299 5.0044820896492812  -3.3425936414516109 5.0593574076604018  -3.2509189646799967 5.1123593347004261  -3.1581630472265374 5.1634609479086118  -3.0643718748872146 5.2126366643378184  -2.9695921537209671 5.2598622409545088  -2.8738713100496831 5.3051147746387528  -2.6554401250500135 5.4029152881640377  -2.5322027509344309 5.4542870170971236  -2.4076420205430935 5.5024446379719381  -2.2818558316719972 5.5473485371885438  -2.1549433274814902 5.5889627385585863  -2.027004896496269 5.6272549033053183  -1.898142172605386 5.6621963300635834  -1.6119428363788124 5.7318583899033371  -1.4542301382274196 5.7650378581859014  -1.2955011185786134 5.7932563305488092  -1.1359380031514199 5.8164778671367463  -0.97572406541332413 5.8346746174178037  -0.81504362658028384 5.8478268201834656  -0.65408205561671551 5.8559228035486131  -0.36878221875072725 5.861301201836671  -0.24448172072170138 5.8606323499359121  -0.12020967617950618 5.8569508336799601  0.0039487042962598204 5.8502579400997714  0.12790840057747133 5.8405578388265456  0.25158458298745501 5.8278575820917249  0.37489261230101789 5.8121671047269929  0.59785249485743819 5.7782883577165753  0.69765664329441535 5.7611006998221184  0.79711484981359249 5.7419431890146857  0.89618175696448787 5.7208240065948628  0.99481228508791375 5.6977525766300596  1.0929616323159763 5.6727395659544912  1.1905852745720686 5.6457968841691937  1.4155733131240105 5.5788960365100984  1.5425176696390572 5.5375241225894394  1.6683705451248549 5.4928521432746464  1.7930318761409048 5.4449138702052444  1.9164030257973579 5.3937466452656739  2.0383867837550298 5.3393913805852966  2.1588873662254073 5.2818925585383907  2.376229534507214 5.1711511881952861  2.4735684559332256 5.1188839140899107  2.5697737664487832 5.0645236330861518  2.6647929897680243 5.0080991095700247  2.7585745871190852 4.9496406486554365  2.8510679572441262 4.8891800961841847  2.9422234363993098 4.8267508387259568  3.1404629671987152 4.6846158407581013  3.2469094077189595 4.6040201819851445  3.35124557794677 4.5206625453455684  3.4533879511640748 4.4346075567097847  3.5532555159034658 4.3459227497325177  3.6507697759482056 4.2546785658527853  3.745854750332235 4.1609483542939101  3.9022868233334194 3.9985049000167909  3.9649464231518721 3.9310551672774894  4.026391726891859 3.8624841472141327  4.0865993518076067 3.7928173759921382  4.1455465783112899 3.7220809525738212  4.2032113499729959 3.6503015387183972  4.2595722735207318 3.5775063589819833  4.5952628753997544 3.1274711077977231  4.8415547563217203 2.7254152914420091  5.0505832607998329 2.3013788851685484  5.2201182790055114 1.8594243833129187  5.3484714045767419 1.4038024136228842  5.4344545367986967 0.93892964554254155  5.4774262724760803 0.46939583418591663  5.4774260874974843 0 
 0 9 0.029005240407136961 7 0.058010480814271653 7 0.087015721221390507 7 0.11602096162848448 7 0.14502620203556488 7 0.17303126173795269 7 0.34989365055616661 7 0.36889708392240717 7 0.40290322785694965 7 0.4239070226304269 7 0.44791135951521865 7 0.47491623851228015 7 0.50192111750933199 7 0.53092635791546416 7 0.55893141761693799 7 0.58693647731840615 7 0.61394135631544933 7 0.63494515108893368 7 0.6599496686776517 7 0.68295382485857836 7 0.71195906526469377 7 0.74696538990643202 7 0.77397026890346332 7 0.79597424438063213 7 0.82497948478674377 7 0.84898382167151776 7 0.87798906207763427 7 0.89799267614748268 7 1 9
8 0 1
7 0 0  8 109 15  6.2831853071795862 -0.19999999999998111  6.1644988121982767 -0.19999999999999687  6.0534776734097893 -0.19999999999995416  5.9484339562709145 -0.19999999999996276  5.8480552534619221 -0.20000000000001678  5.7513122562629775 -0.20000000000005685  5.657366325930596 -0.20000000000003273  5.5654770650740693 -0.19999999999996551  5.4352864220417763 -0.19999999999996332  5.395926587850675 -0.19999999999997503  5.3567579079219252 -0.20000000000000012  5.317725791415187 -0.20000000000001728  5.2787833090460499 -0.20000000000002199  5.2398809669456288 -0.20000000000001877  5.2009564805201585 -0.20000000000001419  5.0887402235714383 -0.20000000000004656  5.0152015086034183 -0.20000000000000628  4.9410265996269089 -0.19999999999996426  4.8658749757228676 -0.1999999999999614  4.7893473988328221 -0.20000000000000423  4.7109859137588765 -0.20000000000006457  4.6302738481637062 -0.20000000000007967  4.510042043668899 -0.20000000000006546  4.4728845670937005 -0.20000000000005252  4.43511360626034 -0.20000000000000312  4.3966753077552472 -0.19999999999997325  4.3575117413359079 -0.19999999999998488  4.317560899930867 -0.20000000000002621  4.2767566996397264 -0.20000000000005144  4.2301393980664308 -0.19999999999999743  4.2252367821408399 -0.20000000000001009  4.2203211319563669 -0.20000000000001911  4.2153924475130156 -0.20000000000002452  4.2104507288107849 -0.20000000000002624  4.2054959758496722 -0.20000000000002438  4.2005281886296801 -0.2000000000000188  4.1955473671508079 -0.20000000000000953  4.185657406945448 -0.20000000000001517  4.1757041081562711 -0.19999999999998633  4.1658727076722997 -0.20000000000024037  4.1561149157318402 -0.2000000000003439  4.1463712126028929 -0.20000000000012622  4.136661999285824 -0.19999999999993967  4.1270476022382585 -0.20000000000016796  4.1174571321222224 -0.19999999999998111  3.9664934966695 -0.20000000000595719  3.8278097387810703 -0.19999999997344275  3.6969002779223956 -0.20000000006621121  3.5728727177483961 -0.1999999998624844  3.4521878753439523 -0.2000000000516593  3.3345753868779866 -0.19999999997298801  3.217847698208061 -0.20000000000368345  3.1007840381016796 -0.20000000000000953  3.0129801919142678 -0.19999999999992324  2.9249650545302091 -0.19999999999999912  2.8360957968276299 -0.20000000000007309  2.7457426570357946 -0.20000000000008306  2.6532326970009552 -0.2000000000000369  2.557793558452198 -0.19999999999998014  2.4584972192672971 -0.19999999999996326  2.3542037497385597 -0.20000000000000975  2.3346476474780733 -0.19999999999997792  2.3149166069433922 -0.19999999999996898  2.295002072387951 -0.19999999999997548  2.2748954880651842 -0.1999999999999901  2.2545882982285241 -0.20000000000000542  2.234071947131405 -0.20000000000001394  2.2133378790272604 -0.20000000000000837  2.1923775381695236 -0.19999999999998133  2.1825520097072371 -0.19999999999999937  2.1726765737369171 -0.20000000000000331  2.1627501862416354 -0.19999999999999835  2.1527718032044589 -0.19999999999998916  2.1427403806084593 -0.1999999999999808  2.1326548744367066 -0.19999999999997808  2.1225142406722695 -0.19999999999998602  2.1123174352982197 -0.20000000000000956  2.1024312893177921 -0.20000000000220552  2.0925823334764573 -0.19999999999754436  2.0822610031173099 -0.20000000000800355  2.0727874075819273 -0.19999999988795025  2.0626803047489375 -0.20000000000618456  2.0530133650318021 -0.19999999999436113  2.0432537855149349 -0.20000000000254659  2.033575066016331 -0.19999999999998111  1.8835091807745077 -0.20000000000001336  1.7453408291848342 -0.19999999999997314  1.6155980504239269 -0.19999999999979956  1.4918815989050731 -0.19999999999976534  1.3723823750666699 -0.19999999999994192  1.2555515026757047 -0.2000000000000868  1.1399230526462807 -0.19999999999995122  1.0240894133731862 -0.20000000000000953  0.96617491358616714 -0.19999999999992848  0.90819746915917576 -0.19999999999995202  0.84999032689902776 -0.20000000000000454  0.79137437348551409 -0.20000000000003793  0.73215813547140063 -0.20000000000003171  0.67213777928242679 -0.19999999999999268  0.6110971112173067 -0.19999999999995532  0.54880757744772968 -0.19999999999998155  0.48652203235443231 -0.19999999999998505  0.42297686272642926 -0.19999999999998253  0.35795445838689866 -0.19999999999997764  0.29119338687576762 -0.19999999999997334  0.22238839344971251 -0.19999999999997176  0.15119040108215856 -0.19999999999997409  0.077206510463279962 -0.19999999999998086  0 -0.19999999999999171 
 0 9 0.125 7 0.1796875 7 0.2822265625 7 0.32708740234375 7 0.33234453201293945 8 0.34277664870023727 8 0.50708248652517796 8 0.63031186489388347 8 0.65341737333801575 8 0.66424808042120276 8 0.67474032790804017 8 0.83737016395402009 8 0.91868508197701004 8 1 9
8 0 1
7 0 0  8 205 30  5.4774260874974843 -1.7800000000000001e-15  5.4774260932156196 -0.13347046190206188  5.4739517991379216 -0.26694118600715416  5.4670032273567983 -0.40030628396815626  5.4565842287166006 -0.53346021722926618  5.4427024828136297 -0.66629779702600278  5.4253694979961153 -0.7987141843852047  5.4046006113642377 -0.93060489012503078  5.3562293774229559 -1.193126661657216  5.328626935088181 -1.3237582431742141  5.2976268710712517 -1.4536563880219808  5.2632520966611693 -1.5827180026090593  5.2255292251304652 -1.710841031136513  5.184488571735244 -1.8379244555979228  5.1401641537151264 -1.963868295779388  5.0450232375566344 -2.213278926815665  4.9942065525137451 -2.3367462076382748  4.9401813956708764 -2.4588765250539368  4.8829889801782826 -2.5795726438220745  4.8226739718302198 -2.6987390201349477  4.7592844890649104 -2.8162818016176581  4.6928721029645857 -2.9321088273281455  4.5541115813160076 -3.1601504341309754  4.4817631731724035 -3.2723654632115813  4.4065016742968481 -3.382684268457774  4.3283852351503498 -3.491018692398824  4.247475095182736 -3.5972828666345023  4.1638355828326112 -3.7013932118350792  4.0775341155274205 -3.8032684377413268  3.8997482923700488 -4.0023906562043772  3.8082635872571728 -4.0996380399372336  3.7142576237201581 -4.1944927226019351  3.6178035641928759 -4.2868785433553169  3.5189771941676469 -4.3767221522721815  3.4178569221952344 -4.4639530103453087  3.3145237798848584 -4.548503389485453  3.1072356930003977 -4.7092925099925713  3.0034246932946616 -4.7857176107761266  2.8977037234391716 -4.8595252883509401  2.7901498920902554 -4.9306599659752521  2.6808421159083835 -4.9990688766866063  2.5698611195581584 -5.0647020633018576  2.4572894357083186 -5.127512378417169  1.6227679439188378 -5.5660182533281102  0.84033220241822448 -5.8312259929650372  0.019684753061014248 -5.9692718936019924  -0.81510151237513995 -5.9755704965206444  -1.6402789981527199 -5.8491193261352397  -2.4324920175852611 -5.594330318217728  -3.168578967617087 -5.2192078891719724  -3.89774096861602 -4.689439989398613  -3.9676098838250731 -4.6368338531036546  -4.0365781947459638 -4.5830386477163696  -4.1046223094243146 -4.5280723900824045  -4.1717190857683448 -4.4719536443294681  -4.2378458315488352 -4.4147015218673227  -4.3029803043991635 -4.3563356813877938  -4.4818423548016568 -4.1904755322255554  -4.593337216037277 -4.0805725830489639  -4.7014600417463299 -3.9672837083687664  -4.8060910569802715 -3.8507299046100134  -4.9071159656178516 -3.7310369375890273  -5.0044259503651034 -3.6083353425134028  -5.0979176727553508 -3.4827604239820054  -5.2428194556512011 -3.2752030014619504  -5.2966518526282123 -3.1949108286081795  -5.3489674894805503 -3.1136086518206034  -5.3997442964894873 -3.0313299322172278  -5.4489611088172261 -2.948108677637105  -5.4965976665069221 -2.8639794426403462  -5.5426346144826688 -2.7789773285081183  -5.6378179409933757 -2.5950358901982864  -5.6864690713891051 -2.4958401187258628  -5.7329793476196045 -2.3956039170461665  -5.7773228832474466 -2.2943812392400593  -5.819475451514851 -2.1922267452484676  -5.8594144853436951 -2.0891958008723819  -5.8971190773355033 -1.9853444777728566  -5.9724522418976242 -1.7630377908675736  -6.009482274789395 -1.6443792983895238  -6.0436326783776941 -1.5248349779414305  -6.0748788573654551 -1.4044864234610965  -6.1031990212276135 -1.283415920919557  -6.1285741842111108 -1.1617064483210795  -6.150988165334887 -1.0394416757031633  -6.189867018802218 -0.79397025573517566  -6.2063319485506909 -0.67076324594473158  -6.2198090298525628 -0.54716930233819228  -6.2302877962717922 -0.42327300004805424  -6.2377606627190723 -0.29915912276632517  -6.2422229254518093 -0.17491266274452413  -6.2436727620741337 -0.050618820793681962  -6.240434042107065 0.20709691742299491  -6.2352828239026863 0.3405134451228598  -6.2266589296115846 0.47378069710624604  -6.2145675359757568 0.60679319154009648  -6.199017643791354 0.73944584446730488  -6.1800220779086885 0.87163396980671548  -6.157597487232227 1.0032532793531241  -6.1068220076945074 1.2606311006886419  -6.0787020503873386 1.3864356621747831  -6.0474229326619131 1.5115200877859902  -6.0130063229317443 1.6357918302426937  -5.9754770981610292 1.7591592744354614  -5.9348633438646559 1.8815317374250007  -5.8911963541081924 2.0028194684421581  -5.7978249175433909 2.243047832690237  -5.7481203113059181 2.3619888761044261  -5.6954313487772907 2.4796679734999443  -5.6397955618125941 2.595997798598082  -5.581253478140237 2.7108925044719592  -5.5198486213619233 2.8242677235465288  -5.4556275109526666 2.9360405675985741  -5.3240442379313961 3.1522869495612369  -5.2568759701203795 3.2568789424306592  -5.1871792718047764 3.3598326449407887  -5.1150008877725064 3.4610768010453814  -5.0403898946223897 3.5605418600761469  -4.9633977007641477 3.6581599767427373  -4.8840780464183737 3.7538650111327576  -4.7390272833695981 3.9204917380276076  -4.6741934090926769 3.9921947974610399  -4.6080117382974635 4.0626714337344731  -4.5405093784076982 4.1318921187852942  -4.4717141867591543 4.199828069765859  -4.4016547705996842 4.2664512490434827  -4.3303604870892016 4.3317343642004476  -4.1715530783271149 4.4717419303996104  -4.0835371352568473 4.5458963144819444  -3.9938644595777468 4.6180692060430912  -3.9025871717346767 4.6882174889271004  -3.8097586671285057 4.7562997450599811  -3.7154336161160977 4.8222762544497089  -3.6196679640103255 4.8861089951862215  -3.4331418120083299 5.0044820896492812  -3.3425936414516109 5.0593574076604018  -3.2509189646799967 5.1123593347004261  -3.1581630472265374 5.1634609479086118  -3.0643718748872146 5.2126366643378184  -2.9695921537209671 5.2598622409545088  -2.8738713100496831 5.3051147746387528  -2.6554401250500135 5.4029152881640377  -2.5322027509344309 5.4542870170971236  -2.4076420205430935 5.5024446379719381  -2.2818558316719972 5.5473485371885438  -2.1549433274814902 5.5889627385585863  -2.027004896496269 5.6272549033053183  -1.898142172605386 5.6621963300635834  -1.6119428363788124 5.7318583899033371  -1.4542301382274196 5.7650378581859014  -1.2955011185786134 5.7932563305488092  -1.1359380031514199 5.8164778671367463  -0.97572406541332413 5.8346746174178037  -0.81504362658028384 5.8478268201834656  -0.65408205561671551 5.8559228035486131  -0.36878221875072725 5.861301201836671  -0.24448172072170138 5.8606323499359121  -0.12020967617950618 5.8569508336799601  0.0039487042962598204 5.8502579400997714  0.12790840057747133 5.8405578388265456  0.25158458298745501 5.8278575820917249  0.37489261230101789 5.8121671047269929  0.59785249485743819 5.7782883577165753  0.69765664329441535 5.7611006998221184  0.79711484981359249 5.7419431890146857  0.89618175696448787 5.7208240065948628  0.99481228508791375 5.6977525766300596  1.0929616323159763 5.6727395659544912  1.1905852745720686 5.6457968841691937  1.4155733131240105 5.5788960365100984  1.5425176696390572 5.5375241225894394  1.6683705451248549 5.4928521432746464  1.7930318761409048 5.4449138702052444  1.9164030257973579 5.3937466452656739  2.0383867837550298 5.3393913805852966  2.1588873662254073 5.2818925585383907  2.376229534507214 5.1711511881952861  2.4735684559332256 5.1188839140899107  2.5697737664487832 5.0645236330861518  2.6647929897680243 5.0080991095700247  2.7585745871190852 4.9496406486554365  2.8510679572441262 4.8891800961841847  2.9422234363993098 4.8267508387259568  3.1404629671987152 4.6846158407581013  3.2469094077189595 4.6040201819851445  3.35124557794677 4.5206625453455684  3.4533879511640748 4.4346075567097847  3.5532555159034658 4.3459227497325177  3.6507697759482056 4.2546785658527853  3.745854750332235 4.1609483542939101  3.9022868233334194 3.9985049000167909  3.9649464231518721 3.9310551672774894  4.026391726891859 3.8624841472141327  4.0865993518076067 3.7928173759921382  4.1455465783112899 3.7220809525738212  4.2032113499729959 3.6503015387183972  4.2595722735207318 3.5775063589819833  4.5952628753997544 3.1274711077977231  4.8415547563217203 2.7254152914420091  5.0505832607998329 2.3013788851685484  5.2201182790055114 1.8594243833129187  5.3484714045767419 1.4038024136228842  5.4344545367986967 0.93892964554254155  5.4774262724760803 0.46939583418591663  5.4774260874974843 0 
 0 9 0.029005240407136961 7 0.058010480814271653 7 0.087015721221390507 7 0.11602096162848448 7 0.14502620203556488 7 0.17303126173795269 7 0.34989365055616661 7 0.36889708392240717 7 0.40290322785694965 7 0.4239070226304269 7 0.44791135951521865 7 0.47491623851228015 7 0.50192111750933199 7 0.53092635791546416 7 0.55893141761693799 7 0.58693647731840615 7 0.61394135631544933 7 0.63494515108893368 7 0.6599496686776517 7 0.68295382485857836 7 0.71195906526469377 7 0.74696538990643202 7 0.77397026890346332 7 0.79597424438063213 7 0.82497948478674377 7 0.84898382167151776 7 0.87798906207763427 7 0.89799267614748268 7 1 9
8 0 1
7 0 0  8 109 15  6.2831853071795862 -2.3999999999999697  6.1644988121982767 -2.3999999999999737  6.0534776734097893 -2.4000000000001789  5.9484339562709145 -2.4000000000002606  5.8480552534619221 -2.4000000000001802  5.7513122562629775 -2.4000000000000483  5.657366325930596 -2.3999999999999968  5.5654770650740693 -2.4000000000000452  5.4352864220417763 -2.3999999999999391  5.395926587850675 -2.399999999999987  5.3567579079219252 -2.399999999999983  5.317725791415187 -2.3999999999999324  5.2787833090460499 -2.3999999999999067  5.2398809669456288 -2.3999999999999586  5.2009564805201585 -2.4000000000000559  5.0887402235714383 -2.3999999999999768  5.0152015086034183 -2.3999999999999577  4.9410265996269089 -2.3999999999999533  4.8658749757228676 -2.3999999999999688  4.7893473988328221 -2.3999999999999972  4.7109859137588765 -2.4000000000000221  4.6302738481637062 -2.4000000000000159  4.510042043668899 -2.4000000000000261  4.4728845670937005 -2.4000000000000101  4.43511360626034 -2.3999999999999662  4.3966753077552472 -2.3999999999999395  4.3575117413359079 -2.3999999999999502  4.317560899930867 -2.3999999999999884  4.2767566996397264 -2.4000000000000163  4.2301393980664308 -2.3999999999999764  4.2252367821408399 -2.3999999999999826  4.2203211319563669 -2.3999999999999861  4.2153924475130156 -2.399999999999987  4.2104507288107849 -2.3999999999999857  4.2054959758496722 -2.3999999999999821  4.2005281886296801 -2.3999999999999768  4.1955473671508079 -2.3999999999999697  4.185657406945448 -2.4000000000008281  4.1757041081562711 -2.3999999999985766  4.1658727076722997 -2.3999999999974393  4.1561149157318402 -2.399999999997525  4.1463712126028929 -2.3999999999981343  4.136661999285824 -2.3999999999991624  4.1270476022382585 -2.4000000000005794  4.1174571321222224 -2.3999999999999981  3.9664934966695 -2.3999999999923602  3.8278097387810703 -2.4000000000014552  3.6969002779223956 -2.3999999996449333  3.5728727177483961 -2.4000000001688022  3.4521878753439523 -2.3999999996740371  3.3345753868779866 -2.4000000001469743  3.217847698208061 -2.3999999999832653  3.1007840381016796 -2.3999999999999697  3.0129801919142678 -2.3999999999999919  2.9249650545302091 -2.3999999999999515  2.8360957968276299 -2.3999999999998423  2.7457426570357946 -2.3999999999997481  2.6532326970009552 -2.3999999999997592  2.557793558452198 -2.3999999999999058  2.4584972192672971 -2.4000000000000816  2.3542037497385597 -2.3999999999999706  2.3346476474780733 -2.3999999999999675  2.3149166069433922 -2.3999999999999639  2.295002072387951 -2.3999999999999599  2.2748954880651842 -2.3999999999999568  2.2545882982285241 -2.3999999999999555  2.234071947131405 -2.3999999999999564  2.2133378790272604 -2.3999999999999608  2.1923775381695236 -2.3999999999999697  2.1825520097072371 -2.3999999999999608  2.1726765737369171 -2.3999999999999639  2.1627501862416354 -2.3999999999999742  2.1527718032044589 -2.399999999999987  2.1427403806084593 -2.3999999999999972  2.1326548744367066 -2.4000000000000012  2.1225142406722695 -2.3999999999999937  2.1123174352982197 -2.3999999999999697  2.1024312893177921 -2.4000000000196451  2.0925823334764573 -2.3999999998050043  2.0822610031173099 -2.3999999999796273  2.0727874075819273 -2.3999999992956873  2.0626803047489375 -2.400000000037835  2.0530133650318021 -2.3999999998195563  2.0432537855149349 -2.4000000000050932  2.033575066016331 -2.3999999999999697  1.8835091807745077 -2.4000000000006572  1.7453408291848342 -2.3999999999996975  1.6155980504239269 -2.400000000001882  1.4918815989050731 -2.4000000000025272  1.3723823750666699 -2.3999999999997135  1.2555515026757047 -2.3999999999976027  1.1399230526462807 -2.4000000000008352  1.0240894133731862 -2.3999999999999981  0.96617491358616714 -2.3999999999999342  0.90819746915917576 -2.3999999999999395  0.84999032689902776 -2.399999999999967  0.79137437348551409 -2.3999999999999901  0.73215813547140063 -2.3999999999999915  0.67213777928242679 -2.3999999999999719  0.6110971112173067 -2.3999999999999453  0.54880757744772968 -2.3999999999999422  0.48652203235443231 -2.3999999999999635  0.42297686272642926 -2.3999999999999666  0.35795445838689866 -2.3999999999999604  0.29119338687576762 -2.3999999999999471  0.22238839344971251 -2.3999999999999342  0.15119040108215856 -2.399999999999928  0.077206510463279962 -2.3999999999999346  -1.0000000000000001e-17 -2.3999999999999626 
 0 9 0.125 7 0.1796875 7 0.2822265625 7 0.32708740234375 7 0.33234453201293945 8 0.34277664870023727 8 0.50708248652517796 8 0.63031186489388347 8 0.65341737333801575 8 0.66424808042120276 8 0.67474032790804017 8 0.83737016395402009 8 0.91868508197701004 8 1 9
8 0.19999999999998863 2.3999999999999773
7 0 0  2 3 2  0 -0.19999999999998863  8.9000000000000007e-16 -1.299999999999963  0 -2.3999999999999773 
 0.19999999999998863 3 2.3999999999999773 3
8 0.19999999999998863 2.3999999999999773
7 0 0  2 3 2  6.2831853071795862 -0.19999999999998863  6.2831853071795871 -1.299999999999963  6.2831853071795862 -2.3999999999999773 
 0.19999999999998863 3 2.3999999999999773 3
Curves 6
8 0 2.2000000000000002
7 0 0  1 2 2  18.903651609743257 0 125.41666666666667  18.691373097836884 0 127.25 
 0 2 2.2000000000000002 2
8 0 6.2831853071795862
7 1 1  2 6 4  18.903651609743257 0 125.41666666666667  1 18.903651609743257 11.113992681900294 125.41666666666667  0.50000000000000011 6.0286516097432585 5.5569963409501488 125.41666666666667  1 -6.8463483902567415 1.5700000000000001e-15 125.41666666666667  0.50000000000000011 6.0286516097432532 -5.5569963409501471 125.41666666666667  1 18.903651609743243 -11.113992681900299 125.41666666666667  0.50000000000000011
 0 2 2.0943951023931953 2 4.1887902047863905 2 6.2831853071795862 2
8 0 6.2831853071795862
7 1 1  2 6 4  18.691373097836884 0 127.25  1 18.691373097836884 11.113992681900294 127.25  0.50000000000000011 5.8163730978368857 5.5569963409501488 127.25  1 -7.0586269021631143 1.5700000000000001e-15 127.25  0.50000000000000011 5.8163730978368795 -5.5569963409501471 127.25  1 18.69137309783687 -11.113992681900299 127.25  0.50000000000000011
 0 2 2.0943951023931953 2 4.1887902047863905 2 6.2831853071795862 2
8 0 1
7 0 0  8 205 30  15.203651609743257 -1.5100000000000001e-15 125.41666666666667  15.20365161450837 -0.11122538491838493 125.41666666666667  15.200756369443623 -0.22245098833929519 125.41666666666667  15.194965892959353 -0.33358856997346359 125.41666666666667  15.186283394092522 -0.44455018102438848 125.41666666666667  15.174715272506711 -0.55524816418833567 125.41666666666667  15.160271118492117 -0.6655951536543373 125.41666666666667  15.142963712965551 -0.77550407510419239 125.41666666666667  15.102654351347818 -0.99427221804768007 125.41666666666667  15.079652316068838 -1.103131869311845 125.41666666666667  15.053818929388063 -1.2113803233516507 125.41666666666667  15.025173284046328 -1.3189316688408828 125.41666666666667  14.993737557770741 -1.4257008592804274 125.41666666666667  14.959537013274725 -1.5316037129982691 125.41666666666667  14.92259999825796 -1.6365569131494901 125.41666666666667  14.843315901459215 -1.8443991056797209 125.41666666666667  14.800968663923475 -1.947288506365229 125.41666666666667  14.75594769988775 -2.0490637708782806 125.41666666666667  14.708287353643923 -2.1496438698517291 125.41666666666667  14.658024846687203 -2.2489491834457898 125.41666666666667  14.605200277716113 -2.3469015013480483 125.41666666666667  14.549856622632509 -2.4434240227734545 125.41666666666667  14.434222854592027 -2.6334586951091463 125.41666666666667  14.373932514472356 -2.7269712193429845 125.41666666666667  14.311214598742728 -2.8189035570481451 125.41666666666667  14.246117566120645 -2.9091822436656867 125.41666666666667  14.178692449480968 -2.9977357221954186 125.41666666666667  14.108992855855863 -3.0844943431958995 125.41666666666667  14.03707496643487 -3.169390364784439 125.41666666666667  13.888920113803728 -3.3353255468369811 125.41666666666667  13.812682859542997 -3.416365033281028 125.41666666666667  13.734344556595486 -3.4954106021682794 125.41666666666667  13.653966173656084 -3.5723987861294311 125.41666666666667  13.571610865301727 -3.6472684602268179 125.41666666666667  13.487343971991383 -3.7199608419544239 125.41666666666667  13.401233020066069 -3.7904194912378775 125.41666666666667  13.228492947662351 -3.9244104249938094 125.41666666666667  13.141983781240905 -3.9880980089801055 125.41666666666667  13.053882973027997 -4.0496044069591166 125.41666666666667  12.964254780237233 -4.1088833049793774 125.41666666666667  12.87316496675234 -4.1658907305721717 125.41666666666667  12.780680803127153 -4.2205850527515478 125.41666666666667  12.686871066585619 -4.2729269820143081 125.41666666666667  11.991436490094385 -4.6383485444400918 125.41666666666667  11.339406705510541 -4.8593549941375311 125.41666666666667  10.655533831046199 -4.9743932446683274 125.41666666666667  9.9598786098494045 -4.9796420804338704 125.41666666666667  9.2722307050347545 -4.8742661051127003 125.41666666666667  8.612053188840969 -4.6619419318481068 125.41666666666667  7.9986473971477814 -4.3493399076433104 125.41666666666667  7.3910123963153369 -3.9078666578321775 125.41666666666667  7.3327883003077927 -3.8640282109197122 125.41666666666667  7.2753147078737168 -3.8191988730969748 125.41666666666667  7.2186112789750911 -3.773393658402004 125.41666666666667  7.1626972986883999 -3.7266280369412237 125.41666666666667  7.1075916772046579 -3.6789179348894359 125.41666666666667  7.0533129498293841 -3.6302797344898283 125.41666666666667  6.9042612411606399 -3.4920629435212964 125.41666666666667  6.8113488567976228 -3.4004771525408035 125.41666666666667  6.7212465020400787 -3.3060697569739723 125.41666666666667  6.6340539893451274 -3.2089415871750111 125.41666666666667  6.5498665654804773 -3.1091974479908564 125.41666666666667  6.4687749115244344 -3.006946118761169 125.41666666666667  6.3908651428658949 -2.902300353318338 125.41666666666667  6.270113657119353 -2.7293358345516254 125.41666666666667  6.225253326305177 -2.6624256905068164 125.41666666666667  6.1816569622615614 -2.5946738765171697 125.41666666666667  6.1393429564207809 -2.5261082768476899 125.41666666666667  6.0983289461476655 -2.4567572313642545 125.41666666666667  6.0586318147395852 -2.3866495355336221 125.41666666666667  6.0202676914264632 -2.315814440423432 125.41666666666667  5.9409482526675408 -2.1625299084985721 125.41666666666667  5.900405644004433 -2.0798667656048857 125.41666666666667  5.8616470804790168 -1.9963365975384721 125.41666666666667  5.8246941341224812 -1.9119843660333828 125.41666666666667  5.7895669938996441 -1.8268556210403897 125.41666666666667  5.7562844657089407 -1.740996500726985 125.41666666666667  5.7248639723824342 -1.6544537314773806 125.41666666666667  5.6620863352473334 -1.4691981590563115 125.41666666666667  5.6312279745041911 -1.3703160819912699 125.41666666666667  5.6027693048472749 -1.2706958149511922 125.41666666666667  5.5767308223574741 -1.1704053528842471 125.41666666666667  5.5531306858056757 -1.0695132674329642 125.41666666666667  5.5319847166527616 -0.96808870693423299 125.41666666666667  5.5133063990496147 -0.86620139641930272 125.41666666666667  5.480907354493505 -0.6616418797793131 125.41666666666667  5.4671865797031112 -0.55896937162060967 125.41666666666667  5.455955678618218 -0.45597441861516025 125.41666666666667  5.4472233732688604 -0.35272750004004527 125.41666666666667  5.4409959845627931 -0.24929926897193769 125.41666666666667  5.4372774322855122 -0.14576055228710347 125.41666666666667  5.4360692351002422 -0.042182350661401663 125.41666666666667  5.4387681684061331 0.17258076451916241 125.41666666666667  5.443060850243115 0.28376120426904983 125.41666666666667  5.4502474288190328 0.39481724758853831 125.41666666666667  5.4603235901822229 0.50566099295008038 125.41666666666667  5.4732818336692253 0.61620487038942073 125.41666666666667  5.4891114719047795 0.72636164150559623 125.41666666666667  5.5077986308018314 0.83604439946093678 125.41666666666667  5.5501115304165971 1.050525917240535 125.41666666666667  5.5735448281725715 1.1553630518123192 125.41666666666667  5.5996107596104263 1.2596000731549919 125.41666666666667  5.6282912677189003 1.3631598585355782 125.41666666666667  5.6595656216944956 1.4659660620295512 125.41666666666667  5.6934104169414734 1.567943114520834 125.41666666666667  5.7297995750718602 1.6690162237017985 125.41666666666667  5.8076091055425278 1.8692065272418643 125.41666666666667  5.8490296107404216 1.9683240634203552 125.41666666666667  5.8929370795142777 2.0663899779166202 125.41666666666667  5.9393002353181918 2.1633314988317349 125.41666666666667  5.9880853050451561 2.2590770870599659 125.41666666666667  6.0392560190270839 2.3535564362887742 125.41666666666667  6.0927736110347981 2.446700472998812 125.41666666666667  6.2024263385525238 2.6269057913010307 125.41666666666667  6.2583998950617037 2.714065785358883 125.41666666666667  6.3164804769913729 2.7998605374506575 125.41666666666667  6.3766291303515983 2.884230667537818 125.41666666666667  6.4388049579766955 2.9671182167301224 125.41666666666667  6.5029651195252303 3.0484666472856143 125.41666666666667  6.5690648314800422 3.1282208426106313 125.41666666666667  6.6899404673540221 3.2670764483563399 125.41666666666667  6.7439686959181229 3.3268289978842001 125.41666666666667  6.7991200882474674 3.385559528112061 125.41666666666667  6.8553720548222721 3.4432434323210788 125.41666666666667  6.912701381196058 3.4998567248048826 125.41666666666667  6.9710842279956164 3.5553760408695689 125.41666666666667  7.0304961309210192 3.6097786368337066 125.41666666666667  7.1628356382227576 3.7264516086663422 125.41666666666667  7.2361822574479806 3.7882469287349538 125.41666666666667  7.3109094871805649 3.8483910050359094 125.41666666666667  7.3869738937164566 3.9068479074392504 125.41666666666667  7.4643309808882652 3.9635831208833179 125.41666666666667  7.5429351900652719 4.0185635453747572 125.41666666666667  7.622739900153416 4.0717574959885185 125.41666666666667  7.7781783601550787 4.170401741374401 125.41666666666667  7.8536351689523443 4.2161311730503348 125.41666666666667  7.9300307329286897 4.2602994455836889 125.41666666666667  8.0073273308065733 4.3028841232571766 125.41666666666667  8.0854866410893411 4.3438638869481823 125.41666666666667  8.1644697420612147 4.3832185341287575 125.41666666666667  8.2442371117872852 4.4209289788656276 125.41666666666667  8.4262630992870093 4.5024294068033646 125.41666666666667  8.5289609110499942 4.5452391809142698 125.41666666666667  8.6327615197094421 4.5853705316432816 125.41666666666667  8.7375833437686889 4.6227904476571204 125.41666666666667  8.8433437639274448 4.6574689487988223 125.41666666666667  8.949959123081797 4.6893790860877651 125.41666666666667  9.0573447263241995 4.7184969417196534 125.41666666666667  9.2958441731796775 4.7765486582527812 125.41666666666667  9.4272714216391709 4.8041982151549183 125.41666666666667  9.5595456046798422 4.8277136087906749 125.41666666666667  9.6925148675358379 4.8470648892806221 125.41666666666667  9.8260264823175838 4.8622288478481703 125.41666666666667  9.9599268480117846 4.8731890168195546 125.41666666666667  10.094061490481424 4.8799356696238441 125.41666666666667  10.331811354536415 4.8844176681972264 125.41666666666667  10.435395102893937 4.8838602916132601 125.41666666666667  10.538955140012431 4.8807923613999673 125.41666666666667  10.64242045707557 4.8752149500831434 125.41666666666667  10.74572020397658 4.8671315323554545 125.41666666666667  10.848783689318234 4.8565479850764373 125.41666666666667  10.951540380412869 4.843472587272494 125.41666666666667  11.137340282543219 4.8152402980971463 125.41666666666667  11.220510406240701 4.8009172498517652 125.41666666666667  11.30339224500668 4.7849526575122381 125.41666666666667  11.38594800096576 4.7673533388290528 125.41666666666667  11.468140107735282 4.7481271471917168 125.41666666666667  11.549931230425335 4.7272829716287426 125.41666666666667  11.631284265638744 4.7048307368076614 125.41666666666667  11.818774297765362 4.6490800304250826 125.41666666666667  11.924561261527902 4.6146034354911993 125.41666666666667  12.029438657766066 4.5773767860622057 125.41666666666667  12.133323100279441 4.5374282251710376 125.41666666666667  12.236132391659819 4.4947888710547286 125.41666666666667  12.337785523291211 4.4494928171544137 125.41666666666667  12.43820267534986 4.4015771321153254 125.41666666666667  12.619321148918033 4.3092926568294052 125.41666666666667  12.700436916773041 4.2657365950749258 125.41666666666667  12.78060800886934 4.2204363609051265 125.41666666666667  12.859790694968707 4.1734159246416871 125.41666666666667  12.937942026094591 4.1247005405461969 125.41666666666667  13.015019834532126 4.0743167468201538 125.41666666666667  13.090982733828112 4.0222923656049643 125.41666666666667  13.256182342827616 3.9038465339650847 125.41666666666667  13.34488770992782 3.8366834849876206 125.41666666666667  13.431834518450996 3.7672187877879737 125.41666666666667  13.51695316279875 3.695506297258154 125.41666666666667  13.600176133414909 3.6216022914437649 125.41666666666667  13.681438016785526 3.5455654715439877 125.41666666666667  13.760675495438884 3.467456961911592 125.41666666666667  13.891035556273204 3.3320874166806593 125.41666666666667  13.943251889455247 3.2758793060645748 125.41666666666667  13.99445630923857 3.2187367893451109 125.41666666666667  14.044629330001692 3.1606811466601155 125.41666666666667  14.093752018754762 3.1017341271448511 125.41666666666667  14.141805995139517 3.0419179489319976 125.41666666666667  14.188773431429297 2.9812552991516528 125.41666666666667  14.468515599661815 2.6062259231647693 125.41666666666667  14.673758833763454 2.2711794095350077 125.41666666666667  14.847949254161881 1.917815737640457 125.41666666666667  14.989228435999946 1.5495203194274323 125.41666666666667  15.096189373975973 1.1698353446857368 125.41666666666667  15.167841984160935 0.78244137128545133 125.41666666666667  15.203651763892088 0.39116319515493048 125.41666666666667  15.203651609743257 -3.0000000000000001e-17 125.41666666666667 
 0 9 0.029005240407136961 7 0.058010480814271653 7 0.087015721221390507 7 0.11602096162848448 7 0.14502620203556488 7 0.17303126173795269 7 0.34989365055616661 7 0.36889708392240717 7 0.40290322785694965 7 0.4239070226304269 7 0.44791135951521865 7 0.47491623851228015 7 0.50192111750933199 7 0.53092635791546416 7 0.55893141761693799 7 0.58693647731840615 7 0.61394135631544933 7 0.63494515108893368 7 0.6599496686776517 7 0.68295382485857836 7 0.71195906526469377 7 0.74696538990643202 7 0.77397026890346332 7 0.79597424438063213 7 0.82497948478674377 7 0.84898382167151776 7 0.87798906207763427 7 0.89799267614748268 7 1 9
8 0 1
7 0 0  8 205 30  14.991373097836885 -1.5100000000000001e-15 127.25  14.991373102601997 -0.11122538491838493 127.25  14.988477857537248 -0.22245098833929519 127.25  14.98268738105298 -0.33358856997346359 127.25  14.974004882186147 -0.44455018102438848 127.25  14.962436760600339 -0.55524816418833567 127.25  14.947992606585743 -0.6655951536543373 127.25  14.930685201059179 -0.77550407510419239 127.25  14.890375839441443 -0.99427221804768007 127.25  14.867373804162465 -1.103131869311845 127.25  14.84154041748169 -1.2113803233516507 127.25  14.812894772139956 -1.3189316688408828 127.25  14.781459045864368 -1.4257008592804274 127.25  14.74725850136835 -1.5316037129982691 127.25  14.710321486351585 -1.6365569131494901 127.25  14.631037389552842 -1.8443991056797209 127.25  14.588690152017101 -1.947288506365229 127.25  14.543669187981378 -2.0490637708782806 127.25  14.496008841737549 -2.1496438698517291 127.25  14.44574633478083 -2.2489491834457898 127.25  14.392921765809739 -2.3469015013480483 127.25  14.337578110726135 -2.4434240227734545 127.25  14.221944342685653 -2.6334586951091463 127.25  14.161654002565983 -2.7269712193429845 127.25  14.098936086836353 -2.8189035570481451 127.25  14.033839054214273 -2.9091822436656867 127.25  13.966413937574593 -2.9977357221954186 127.25  13.89671434394949 -3.0844943431958995 127.25  13.824796454528498 -3.169390364784439 127.25  13.676641601897355 -3.3353255468369811 127.25  13.600404347636625 -3.416365033281028 127.25  13.522066044689112 -3.4954106021682794 127.25  13.441687661749711 -3.5723987861294311 127.25  13.359332353395352 -3.6472684602268179 127.25  13.27506546008501 -3.7199608419544239 127.25  13.188954508159696 -3.7904194912378775 127.25  13.016214435755979 -3.9244104249938094 127.25  12.929705269334532 -3.9880980089801055 127.25  12.841604461121623 -4.0496044069591166 127.25  12.751976268330861 -4.1088833049793774 127.25  12.660886454845967 -4.1658907305721717 127.25  12.56840229122078 -4.2205850527515478 127.25  12.474592554679246 -4.2729269820143081 127.25  11.779157978188012 -4.6383485444400918 127.25  11.127128193604168 -4.8593549941375311 127.25  10.443255319139826 -4.9743932446683274 127.25  9.74760009794303 -4.9796420804338704 127.25  9.05995219312838 -4.8742661051127003 127.25  8.3997746769345962 -4.6619419318481068 127.25  7.7863688852414077 -4.3493399076433104 127.25  7.1787338844089632 -3.9078666578321775 127.25  7.120509788401419 -3.8640282109197122 127.25  7.063036195967344 -3.8191988730969748 127.25  7.0063327670687183 -3.773393658402004 127.25  6.9504187867820262 -3.7266280369412237 127.25  6.8953131652982842 -3.6789179348894359 127.25  6.8410344379230104 -3.6302797344898283 127.25  6.6919827292542662 -3.4920629435212964 127.25  6.5990703448912491 -3.4004771525408035 127.25  6.508967990133705 -3.3060697569739723 127.25  6.4217754774387537 -3.2089415871750111 127.25  6.3375880535741036 -3.1091974479908564 127.25  6.2564963996180607 -3.006946118761169 127.25  6.1785866309595212 -2.902300353318338 127.25  6.0578351452129793 -2.7293358345516254 127.25  6.0129748143988033 -2.6624256905068164 127.25  5.9693784503551885 -2.5946738765171697 127.25  5.9270644445144072 -2.5261082768476899 127.25  5.8860504342412918 -2.4567572313642545 127.25  5.8463533028332115 -2.3866495355336221 127.25  5.8079891795200895 -2.315814440423432 127.25  5.7286697407611671 -2.1625299084985721 127.25  5.6881271320980593 -2.0798667656048857 127.25  5.6493685685726431 -1.9963365975384721 127.25  5.6124156222161083 -1.9119843660333828 127.25  5.5772884819932713 -1.8268556210403897 127.25  5.5440059538025679 -1.740996500726985 127.25  5.5125854604760605 -1.6544537314773806 127.25  5.4498078233409597 -1.4691981590563115 127.25  5.4189494625978174 -1.3703160819912699 127.25  5.3904907929409021 -1.2706958149511922 127.25  5.3644523104511013 -1.1704053528842471 127.25  5.340852173899302 -1.0695132674329642 127.25  5.3197062047463879 -0.96808870693423299 127.25  5.301027887143241 -0.86620139641930272 127.25  5.2686288425871322 -0.6616418797793131 127.25  5.2549080677967375 -0.55896937162060967 127.25  5.2436771667118443 -0.45597441861516025 127.25  5.2349448613624867 -0.35272750004004527 127.25  5.2287174726564203 -0.24929926897193769 127.25  5.2249989203791394 -0.14576055228710347 127.25  5.2237907231938685 -0.042182350661401663 127.25  5.2264896564997594 0.17258076451916241 127.25  5.2307823383367413 0.28376120426904983 127.25  5.23796891691266 0.39481724758853831 127.25  5.2480450782758492 0.50566099295008038 127.25  5.2610033217628516 0.61620487038942073 127.25  5.2768329599984067 0.72636164150559623 127.25  5.2955201188954577 0.83604439946093678 127.25  5.3378330185102243 1.050525917240535 127.25  5.3612663162661978 1.1553630518123192 127.25  5.3873322477040526 1.2596000731549919 127.25  5.4160127558125266 1.3631598585355782 127.25  5.4472871097881228 1.4659660620295512 127.25  5.4811319050351006 1.567943114520834 127.25  5.5175210631654865 1.6690162237017985 127.25  5.5953305936361541 1.8692065272418643 127.25  5.6367510988340488 1.9683240634203552 127.25  5.6806585676079049 2.0663899779166202 127.25  5.7270217234118181 2.1633314988317349 127.25  5.7758067931387824 2.2590770870599659 127.25  5.8269775071207111 2.3535564362887742 127.25  5.8804950991284244 2.446700472998812 127.25  5.9901478266461501 2.6269057913010307 127.25  6.0461213831553309 2.714065785358883 127.25  6.1042019650850001 2.7998605374506575 127.25  6.1643506184452246 2.884230667537818 127.25  6.2265264460703218 2.9671182167301224 127.25  6.2906866076188575 3.0484666472856143 127.25  6.3567863195736685 3.1282208426106313 127.25  6.4776619554476484 3.2670764483563399 127.25  6.5316901840117492 3.3268289978842001 127.25  6.5868415763410937 3.385559528112061 127.25  6.6430935429158984 3.4432434323210788 127.25  6.7004228692896852 3.4998567248048826 127.25  6.7588057160892436 3.5553760408695689 127.25  6.8182176190146455 3.6097786368337066 127.25  6.9505571263163848 3.7264516086663422 127.25  7.0239037455416078 3.7882469287349538 127.25  7.0986309752741912 3.8483910050359094 127.25  7.1746953818100829 3.9068479074392504 127.25  7.2520524689818924 3.9635831208833179 127.25  7.3306566781588991 4.0185635453747572 127.25  7.4104613882470423 4.0717574959885185 127.25  7.565899848248705 4.170401741374401 127.25  7.6413566570459714 4.2161311730503348 127.25  7.717752221022316 4.2602994455836889 127.25  7.7950488189001987 4.3028841232571766 127.25  7.8732081291829683 4.3438638869481823 127.25  7.952191230154841 4.3832185341287575 127.25  8.0319585998809107 4.4209289788656276 127.25  8.2139845873806365 4.5024294068033646 127.25  8.3166823991436214 4.5452391809142698 127.25  8.4204830078030692 4.5853705316432816 127.25  8.5253048318623161 4.6227904476571204 127.25  8.631065252021072 4.6574689487988223 127.25  8.7376806111754224 4.6893790860877651 127.25  8.8450662144178249 4.7184969417196534 127.25  9.0835656612733029 4.7765486582527812 127.25  9.2149929097327981 4.8041982151549183 127.25  9.3472670927734693 4.8277136087906749 127.25  9.4802363556294633 4.8470648892806221 127.25  9.613747970411211 4.8622288478481703 127.25  9.74764833610541 4.8731890168195546 127.25  9.8817829785750515 4.8799356696238441 127.25  10.119532842630042 4.8844176681972264 127.25  10.223116590987562 4.8838602916132601 127.25  10.326676628106059 4.8807923613999673 127.25  10.430141945169197 4.8752149500831434 127.25  10.533441692070207 4.8671315323554545 127.25  10.636505177411859 4.8565479850764373 127.25  10.739261868506496 4.843472587272494 127.25  10.925061770636846 4.8152402980971463 127.25  11.008231894334326 4.8009172498517652 127.25  11.091113733100308 4.7849526575122381 127.25  11.173669489059387 4.7673533388290528 127.25  11.255861595828909 4.7481271471917168 127.25  11.33765271851896 4.7272829716287426 127.25  11.419005753732371 4.7048307368076614 127.25  11.606495785858989 4.6490800304250826 127.25  11.712282749621528 4.6146034354911993 127.25  11.817160145859694 4.5773767860622057 127.25  11.921044588373068 4.5374282251710376 127.25  12.023853879753446 4.4947888710547286 127.25  12.125507011384839 4.4494928171544137 127.25  12.225924163443487 4.4015771321153254 127.25  12.407042637011658 4.3092926568294052 127.25  12.488158404866669 4.2657365950749258 127.25  12.568329496962967 4.2204363609051265 127.25  12.647512183062334 4.1734159246416871 127.25  12.725663514188218 4.1247005405461969 127.25  12.802741322625753 4.0743167468201538 127.25  12.878704221921739 4.0222923656049643 127.25  13.043903830921243 3.9038465339650847 127.25  13.132609198021447 3.8366834849876206 127.25  13.219556006544622 3.7672187877879737 127.25  13.304674650892377 3.695506297258154 127.25  13.387897621508536 3.6216022914437649 127.25  13.469159504879151 3.5455654715439877 127.25  13.548396983532509 3.467456961911592 127.25  13.678757044366829 3.3320874166806593 127.25  13.730973377548874 3.2758793060645748 127.25  13.782177797332196 3.2187367893451109 127.25  13.832350818095319 3.1606811466601155 127.25  13.881473506848389 3.1017341271448511 127.25  13.929527483233144 3.0419179489319976 127.25  13.976494919522924 2.9812552991516528 127.25  14.256237087755443 2.6062259231647693 127.25  14.461480321857081 2.2711794095350077 127.25  14.635670742255508 1.917815737640457 127.25  14.776949924093573 1.5495203194274323 127.25  14.883910862069598 1.1698353446857368 127.25  14.955563472254561 0.78244137128545133 127.25  14.991373251985713 0.39116319515493048 127.25  14.991373097836885 -3.0000000000000001e-17 127.25 
 0 9 0.029005240407136961 7 0.058010480814271653 7 0.087015721221390507 7 0.11602096162848448 7 0.14502620203556488 7 0.17303126173795269 7 0.34989365055616661 7 0.36889708392240717 7 0.40290322785694965 7 0.4239070226304269 7 0.44791135951521865 7 0.47491623851228015 7 0.50192111750933199 7 0.53092635791546416 7 0.55893141761693799 7 0.58693647731840615 7 0.61394135631544933 7 0.63494515108893368 7 0.6599496686776517 7 0.68295382485857836 7 0.71195906526469377 7 0.74696538990643202 7 0.77397026890346332 7 0.79597424438063213 7 0.82497948478674377 7 0.84898382167151776 7 0.87798906207763427 7 0.89799267614748268 7 1 9
8 0.19999999999998863 2.3999999999999773
7 0 0  1 2 2  15.203651609743257 0 125.41666666666667  14.991373097836885 0 127.25 
 0.19999999999998863 2 2.3999999999999773 2
Polygon3D 0
PolygonOnTriangulations 0
Surfaces 4
9 0 1 0 0 2 1 7 2 4 2 18.691373097836884 0 127.25  1 18.903651609743257 0 125.41666666666667  1 
18.691373097836884 11.113992681900294 127.25  0.50000000000000011 18.903651609743257 11.113992681900294 125.41666666666667  0.50000000000000011 
5.8163730978368857 5.5569963409501488 127.25  1 6.0286516097432585 5.5569963409501488 125.41666666666667  1 
-7.0586269021631143 1.5700000000000001e-15 127.25  0.50000000000000011 -6.8463483902567415 1.5700000000000001e-15 125.41666666666667  0.50000000000000011 
5.8163730978368795 -5.5569963409501471 127.25  1 6.0286516097432532 -5.5569963409501471 125.41666666666667  1 
18.69137309783687 -11.113992681900299 127.25  0.50000000000000011 18.903651609743243 -11.113992681900299 125.41666666666667  0.50000000000000011 
18.691373097836884 -1.5700000000000001e-15 127.25  1 18.903651609743257 -1.5700000000000001e-15 125.41666666666667  1 

0 3
2.0943951023931953 2
4.1887902047863905 2
6.2831853071795862 3

-2.2000000000000002 2
0 2

9 0 0 0 0 1 1 2 2 2 2 1.7369849430765936 -6.416666666666667 125.41666666666667  1.7369849430765936 6.416666666666667 125.41666666666667  
18.903651609743257 -6.416666666666667 125.41666666666667  18.903651609743257 6.416666666666667 125.41666666666667  

-10.682573912502512 2
9.917426087497482 2

-7.7000000000000002 2
7.7000000000000002 2

9 0 0 0 0 1 1 2 2 2 2 1.5247064311702201 -6.416666666666667 127.25  1.5247064311702201 6.416666666666667 127.25  
18.691373097836884 -6.416666666666667 127.25  18.691373097836884 6.416666666666667 127.25  

-10.682573912502512 2
9.917426087497482 2

-7.7000000000000002 2
7.7000000000000002 2

9 0 1 0 0 2 1 7 2 4 2 14.991373097836881 0 127.25000000000001  1 15.203651609743261 0 125.41666666666664  1 
14.991373097836881 8.4581814436280158 127.25000000000001  0.50000000000000011 15.203651609743261 8.4581814436280158 125.41666666666664  0.50000000000000011 
7.6663730978368818 4.2290907218140097 127.25000000000001  1 7.8786516097432608 4.2290907218140097 125.41666666666664  1 
0.3413730978368823 1.2e-15 127.25000000000001  0.50000000000000011 0.55365160974326166 1.2e-15 125.41666666666664  0.50000000000000011 
7.6663730978368783 -4.2290907218140079 127.25000000000001  1 7.8786516097432582 -4.2290907218140079 125.41666666666664  1 
14.991373097836876 -8.4581814436280194 127.25000000000001  0.50000000000000011 15.203651609743254 -8.4581814436280194 125.41666666666664  0.50000000000000011 
14.991373097836881 -1.2e-15 127.25000000000001  1 15.203651609743261 -1.2e-15 125.41666666666664  1 

0 3
2.0943951023931953 2
4.1887902047863905 2
6.2831853071795862 3

-2.3999999999999968 2
-0.19999999999996082 2

Triangulations 0

TShapes 23
Ve
1e-07
18.9036516097433 0 125.416666666667
0 0

0101101
*
Ve
1e-07
18.6913730978369 0 127.25
0 0

0101101
*
Ed
 8.3333333e-08 1 1 0
1  1 0 0 2.2
3  1 2CN 1 0 0 2.2
0

0101000
+23 0 -22 0 *
Ed
 8.3333333e-08 1 1 0
1  2 3 0 6.28318530717959
2  3 1 3 0 6.28318530717959
2  4 2 3 0 6.28318530717959
0

0101100
+23 3 -23 3 *
Ed
 8.3333333e-08 1 1 0
1  3 6 0 6.28318530717959
2  5 1 6 0 6.28318530717959
2  6 3 6 0 6.28318530717959
0

0101100
+22 6 -22 6 *
Wi

0101100
+21 0 -21 0 -20 2 +19 5 *
Fa
0  8.3333333e-08 1 0

0101000
+18 0 *
Wi

0101100
+20 2 *
Ve
1.0115991401e-05
15.2036516097433 0 125.416666666667
0 0

0101101
*
Ed
 1.0115991401e-05 1 1 0
1  4 0 0 1
2  7 2 0 0 1
2  8 4 0 0 1
0

0101100
+15 0 -15 0 *
Wi

0101100
+14 0 *
Fa
0  8.3333333e-08 2 0

0101000
+16 0 +13 0 *
Wi

0101100
+19 5 *
Ve
1.0115991401e-05
14.9913730978369 0 127.25
0 0

0101101
*
Ed
 1.0115991401e-05 1 1 0
1  5 0 0 1
2  9 3 0 0 1
2  10 4 0 0 1
0

0101100
+10 0 -10 0 *
Wi

0101100
+9 0 *
Fa
0  8.3333333e-08 3 0

0101000
+11 0 +8 0 *
Ed
 8.3333333e-08 1 1 0
1  6 0 0.199999999999989 2.39999999999998
3  11 12CN 4 0 0.199999999999989 2.39999999999998
0

0101000
+15 0 -10 0 *
Wi

0101100
+14 0 -6 0 -9 0 +6 0 *
Fa
0  8.3333333e-08 4 0

0101000
+5 0 *
Sh

0101100
-17 0 -12 0 +7 0 +4 0 *
So

0100000
+3 0 *
Co

0100000
+2 0 *

+1 1 