DBRep_DrawableShape

CASCADE Topology V1, (c) Matra-Datavision
Locations 1
1
              1               0               0               0 
              0               1               0               0 
              0               0               1               0 
Curve2ds 36
8 0 1
7 0 0  2 3 2  0.99999999999999989 -1.8000000000000001e-15  0.99999999999999989 0.50000000000000167  0.99999999999999989 1.0000000000000029 
 0 3 1 3
8 0 1
7 0 0  2 3 2  -8.9999999999999996e-17 -1.8000000000000001e-15  -1.2e-16 0.50000000000000167  -9.9999999999999998e-17 1.0000000000000029 
 0 3 1 3
8 0 0.41679542274446474
7 0 0  2 3 2  -9.9999999999999998e-17 1.0000000000000029  0.20839771137223259 0.99999999999999789  0.41679542274446474 1 
 0 3 0.41679542274446474 3
8 0 0.41679542274446474
7 0 0  14 15 2  0 0  -2.1529399999999999e-12 -1.8400756971039653  2.5812808982814985 -3.6801520734182893  7.7438459947272875 -5.0545593209521105  14.715666315401009 -5.497680142881971  21.952830358786365 -4.7108051301503018  27.477596249749062 -2.73012950557096  29.557560364368747 -7.0236259999999994e-11  27.477596249744884 2.7301295056997326  21.952830358792149 4.71080513005165  14.71566631539617 5.4976801429439917  7.7438459947301084 5.0545593209212143  2.5812808982803972 3.6801520734296584  -1.9255699999999998e-12 1.8400756971014562  -7.1100000000000008e-15 7.9899999999999993e-15 
 0 15 1 15
8 1.8737949333599999e-06 1
7 0 0  4 5 2  0.42962711383251168 0.93531085125977498  0.42588651042035153 0.94733908397883937  0.42255052054141018 0.96267005462262034  0.41953556365854361 0.98040105988931003  0.41679542274446491 1 
 1.8737949333599999e-06 5 1 5
8 1.8737949333599999e-06 1
7 0 0  4 5 2  2.077734002962432 1.6420000000000001e-14  1.9873507258689997 0.080046701359988148  1.9059849214000337 0.16802629307058226  1.8305943793311457 0.26072877692998109  1.7595576449059283 0.35657563359492306 
 1.8737949333599999e-06 5 1 5
8 0.34179739302239143 1
7 0 0  4 5 2  0.42962711383789548 0.93531085184030793  0.4342380644814714 0.95290312375747988  0.43910201101533275 0.96972707074978359  0.44425658310137273 0.98556391825335865  0.44973476675811169 1 
 0.34179739302239143 5 1 5
8 0.34179739302239143 1
7 0 0  6 7 2  -0.79720136974265188 2.0999999999999996  -0.91245438373033494 1.9735998559830206  -1.0229177409526073 1.8428233139891015  -1.128125296745722 1.7075271109395818  -1.2273577694936222 1.5676050494477805  -1.3196142890011231 1.4229679980007273  -1.4035116308599669 1.2734661826774225 
 0 7 1 7
8 0.44973476675811092 0.55026523324188914
7 0 0  2 3 2  0.4497347667581108 0.99999999999999944  0.50000000000000022 0.999999999999995  0.55026523324188914 1 
 0.44973476675811092 3 0.55026523324188914 3
8 0.44973476675811092 0.55026523324188914
7 0 0  14 15 2  0 0  -2.1529399999999999e-12 -1.8400756971039653  2.5812808982814985 -3.6801520734182893  7.7438459947272875 -5.0545593209521105  14.715666315401009 -5.497680142881971  21.952830358786365 -4.7108051301503018  27.477596249749062 -2.73012950557096  29.557560364368747 -7.0236259999999994e-11  27.477596249744884 2.7301295056997326  21.952830358792149 4.71080513005165  14.71566631539617 5.4976801429439917  7.7438459947301084 5.0545593209212143  2.5812808982803972 3.6801520734296584  -1.9255699999999998e-12 1.8400756971014562  -7.1100000000000008e-15 7.9899999999999993e-15 
 0 15 1 15
8 0.34179739302238221 1
7 0 0  4 5 2  0.5703728861621048 0.93531085184030827  0.56576193551851972 0.95290312375747988  0.56089798898466015 0.96972707074976938  0.55574341689862194 0.98556391825336576  0.55026523324188814 1 
 0.34179739302238221 5 1 5
8 0.34179739302238221 1
7 0 0  6 7 2  -0.79720136974265188 -2.0999999999999996  -0.91245438373033494 -1.9735998559830232  -1.0229177409525789 -1.8428233139890686  -1.1281252967457789 -1.7075271109396084  -1.2273577694935938 -1.5676050494477636  -1.3196142890011231 -1.4229679980007219  -1.4035116308599669 -1.273466182677419 
 0 7 1 7
8 0 0.99999812620488371
7 0 0  4 5 2  0.58320457725553532 1  0.58046443617132226 0.98040105895766061  0.57744947972994254 0.9626700557383927  0.57411348919897875 0.94733908249373755  0.57037288616748782 0.93531085125976798 
 0 5 0.99999812620488371 5
8 0 0.99999812620488371
7 0 0  4 5 2  4.5236276622736664 0.35657563359492178  4.4525909235729415 0.26072877195950461  4.3772003924491685 0.16802629971497396  4.2958345720348348 0.080046692292357058  4.2054513042171253 -2.1320000000000001e-14 
 0 5 0.99999812620488371 5
8 0.58320457725553521 1
7 0 0  2 3 2  0.58320457725553521 1  0.79160228862776782 0.99999999999998801  1 1.0000000000000016 
 0.58320457725553521 3 1 3
8 0.58320457725553521 1
7 0 0  14 15 2  0 0  -2.1529399999999999e-12 -1.8400756971039653  2.5812808982814985 -3.6801520734182893  7.7438459947272875 -5.0545593209521105  14.715666315401009 -5.497680142881971  21.952830358786365 -4.7108051301503018  27.477596249749062 -2.73012950557096  29.557560364368747 -7.0236259999999994e-11  27.477596249744884 2.7301295056997326  21.952830358792149 4.71080513005165  14.71566631539617 5.4976801429439917  7.7438459947301084 5.0545593209212143  2.5812808982803972 3.6801520734296584  -1.9255699999999998e-12 1.8400756971014562  -7.1100000000000008e-15 7.9899999999999993e-15 
 0 15 1 15
8 0 1
7 0 0  2 3 2  -8.9999999999999996e-17 -1.8000000000000001e-15  0.50000000000000011 4.1100000000000001e-15  1 -9.0000000000000003e-16 
 0 3 1 3
8 0 1
7 0 0  14 15 2  0 0  -3.6663999999999998e-12 2.0644751723605328  2.7765038233678254 4.1289511067620346  8.3295150195209899 5.6709689942388462  15.828615868703956 6.1681289407946736  23.613128453085494 5.2852935606557896  29.555733781328811 3.063072128202851  31.793006106114959 7.6900259999999996e-11  29.555733781327476 -3.0630721283439861  23.613128453087356 -5.2852935605474105  15.828615868702258 -6.1681289408629958  8.3295150195221552 -5.6709689942047348  2.7765038233672854 -4.128951106774581  -3.5384999999999999e-12 -2.0644751723577563  -7.1100000000000008e-15 4.4400000000000004e-15 
 0 15 1 15
8 4.4875153432937243 6.2831853071795862
7 1 0  2 3 2  22.210512473365092 2.0471268124760407  1 19.461914926618583 2.6345978188042434  0.62330442701309308 19.461914926618583 1.7800000000000001e-15  1
 4.4875153432937243 3 6.2831853071795862 3
8 4.4875153432937243 6.2831853071795862
7 0 0  8 16 3  4.523627662273598 0.3565756335949305  4.6259484299243923 0.43286701751458168  4.7292862264876021 0.51521313852572348  4.8336587458325084 0.60270345933531644  4.939084161829669 0.69368716912867967  5.0455811872379854 0.78564146423741477  5.1531690395495389 0.87508543804142391  5.2618675217818236 0.95875819540742668  5.4815265048091533 1.1095596435061452  5.5924870056769578 1.1766872100997716  5.7045989013859071 1.233049339884019  5.8178831536206417 1.2768900338560343  5.9323613580781966 1.3078828243014868  6.0480557325354312 1.3270198002355755  6.1649891807755921 1.3357613897414922  6.2831853071795862 1.3357615150337523 
 4.4875153432937243 9 5.3853503252366552 7 6.2831853071795862 9
8 0 1.795669963885862
7 1 0  2 3 2  19.461914926618583 8.9000000000000007e-16  1 19.461914926618583 -2.6345978188042416  0.62330442701309308 22.210512473365092 -2.0471268124760407  1
 0 3 1.795669963885862 3
8 0 1.795669963885862
7 0 0  8 16 3  0 1.3357615150337523  0.11819612644285371 1.3357613897387637  0.23512957421917235 1.3270198001955578  0.35082394930213923 1.3078828241996234  0.46530215119855711 1.2768900340161053  0.57858640728954924 1.2330493397821556  0.69069830090120377 1.1766872101215995  0.8016588024097473 1.1095596435025072  1.0213177854743662 0.95875819542220597  1.1300162670049758 0.87508543805597583  1.2376041209136019 0.78564146444841754  1.3441011413524393 0.69368716890312498  1.4495265625882894 0.60270345946992165  1.553899079986877 0.51521313844386896  1.6572368773322523 0.43286701752663248  1.759557644905986 0.35657563359493893 
 0 9 0.89783498194293099 7 1.795669963885862 9
8 1.3357615150337547 66
7 0 0  2 3 2  6.2831853071795862 1.3357615150337547  6.2831853071795827 33.667880757516897  6.2831853071795862 66 
 1.3357615150337547 3 66 3
8 1.3357615150337547 66
7 0 0  2 3 2  0 1.3357615150337547  -3.5500000000000001e-15 33.667880757516897  0 66 
 1.3357615150337547 3 66 3
8 2.0805616807523775 4.2026236264272097
7 0 0  5 46 10  2.0777340029624338 1.442e-14  2.081006288545741 6.0500000000000001e-15  2.0842914572022351 1.6200000000000001e-15  2.0875896120052948 1.4399999999999999e-15  2.0909008560282993 5.8199999999999999e-15  2.0942252923446278 1.5060000000000001e-14  2.3053612443910878 4.76e-15  2.5164972004872586 -1.4500000000000001e-15  2.7276331606331397 -3.57e-15  2.9387691248287307 -1.59e-15  3.1499050930740329 4.4800000000000002e-15  3.2554730745238745 3.5000000000000001e-15  3.3610410559737156 3.7899999999999997e-15  3.4666090374235581 5.3600000000000003e-15  3.5721770188734006 8.1899999999999994e-15  3.6777450003232439 1.2290000000000001e-14  3.7305289910481614 5.4199999999999997e-15  3.7833129817730802 4.8000000000000001e-16  3.8360969724979994 -2.5399999999999999e-15  3.8888809632229195 -3.64e-15  3.9416649539478414 -2.8099999999999999e-15  3.9680569493103048 -2.3900000000000002e-15  3.9944489446727673 -1.26e-15  4.0208409400352281 5.6000000000000003e-16  4.0472329353976884 3.0900000000000001e-15  4.0736249307601478 6.3200000000000001e-15  4.0868209284413792 3.74e-15  4.1000169261226107 2.2699999999999998e-15  4.1132129238038413 1.9000000000000001e-15  4.1264089214850701 2.6300000000000001e-15  4.1396049191662989 4.4699999999999997e-15  4.1462029180069138 1.9000000000000001e-16  4.1528009168475277 -2.4899999999999998e-15  4.1593989156881443 -3.57e-15  4.1659969145287601 -3.0499999999999999e-15  4.1725949133693767 -9.2999999999999993e-16  4.1758938727482473 1.958e-14  4.1791930678086828 -3.4620000000000002e-14  4.1824916795605986 4.8040000000000003e-14  4.1857910690042104 -7.8600000000000007e-15  4.1890898675894865 -4.5399999999999996e-15  4.1923879227239578 1.31e-15  4.1956729932899854 -2.0599999999999999e-15  4.1989451799515427 -7.9699999999999997e-15  4.2022045833726036 -9.7399999999999997e-15  4.2054513042171431 -6.8999999999999997e-16 
 2.0805616807523775 6 2.0971402897029621 5 3.1498819580650856 5 3.6762527922461476 5 3.9394382093366787 5 4.0710309178819442 5 4.1368272721545765 5 4.1697254492908931 5 4.1861745378590509 5 4.2026236264272097 6
8 2.0805616807523775 4.2026236264272097
7 1 0  2 3 2  -1.0247421395415159 1.8330039682029842  1 -4.3035216664097788 -1.7800000000000001e-15  0.48797244740071888 -1.0247421395415159 -1.8330039682029859  1
 2.0805616807523775 3 4.2026236264272097 3
8 0 6.2831853071795853
7 0 0  2 7 4  0 66  1.0471975511966145 66.000000000000057  2.0943951023931944 66.000000000000014  3.1415926535898038 66.000000000000085  4.1887902047863816 66.000000000000014  5.2359877559829746 66.000000000000043  6.2831853071795853 66.000000000000028 
 0 3 2.0943951023931953 2 4.1887902047863905 2 6.2831853071795853 3
8 0 6.2831853071795853
7 1 1  2 6 4  2.0999999999999943 0  1 2.0999999999999943 3.6373066958946412  0.50000000000000011 -1.0500000000000114 1.818653347947321  1 -4.2000000000000028 8.9000000000000007e-16  0.50000000000000011 -1.0500000000000114 -1.8186533479473201  1 2.0999999999999943 -3.6373066958946438  0.50000000000000011
 0 2 2.0943951023931953 2 4.1887902047863905 2 6.2831853071795862 2
8 -1.2734661826774438 1.2734661826774385
7 0 0  1 2 2  -1.4035116308599527 -1.273466182677442  -1.4035116308599527 1.2734661826774403 
 -1.2734661826774438 2 1.2734661826774385 2
8 -1.2734661826774438 1.2734661826774385
7 0 0  1 2 2  23.211428571428563 1.273466182677442  23.211428571428563 -1.2734661826774403 
 -1.2734661826774438 2 1.2734661826774385 2
8 0 6.2831853071795862
7 1 1  2 6 4  -1.3399999999999892 0  1 -1.3399999999999892 2.3209480821422952  0.50000000000000011 0.67000000000000171 1.160474041071148  1 2.6800000000000068 0  0.50000000000000011 0.67000000000000171 -1.1604740410711472  1 -1.3399999999999892 -2.3209480821422961  0.50000000000000011
 0 2 2.0943951023931953 2 4.1887902047863905 2 6.2831853071795862 2
8 0 6.2831853071795862
7 0 0  2 7 4  0 0.19999999999999152  1.0471975511965863 0.19999999999996163  2.0943951023931953 0.19999999999999152  3.1415926535897865 0.19999999999997994  4.1887902047863959 0.19999999999999404  5.2359877559829888 0.19999999999998044  6.2831853071795862 0.19999999999999152 
 0 3 2.0943951023931953 2 4.1887902047863905 2 6.2831853071795862 3
8 0.19999999999999152 6.5600000000000005
7 0 0  2 3 2  6.2831853071795862 0.19999999999999152  6.2831853071795871 3.380000000000003  6.2831853071795862 6.5600000000000138 
 0.19999999999999152 3 6.5600000000000005 3
8 0.19999999999999152 6.5600000000000005
7 0 0  2 3 2  0 0.19999999999999152  8.9000000000000007e-16 3.380000000000003  0 6.5600000000000138 
 0.19999999999999152 3 6.5600000000000005 3
8 0 6.2831853071795862
7 0 0  2 7 4  0 6.5600000000000138  1.0471975511965987 6.5599999999999801  2.0943951023931953 6.5600000000000005  3.14159265358979 6.5600000000000023  4.1887902047863914 6.5600000000000165  5.2359877559829995 6.5599999999999969  6.2831853071795862 6.5600000000000138 
 0 3 2.0943951023931953 2 4.1887902047863905 2 6.2831853071795862 3
8 0 6.2831853071795862
7 1 1  2 6 4  1.3400000000000034 0  1 1.3400000000000034 2.3209480821422952  0.50000000000000011 -0.66999999999998749 1.160474041071148  1 -2.6799999999999926 0  0.50000000000000011 -0.66999999999998749 -1.1604740410711472  1 1.3399999999999892 -2.3209480821422961  0.50000000000000011
 0 2 2.0943951023931953 2 4.1887902047863905 2 6.2831853071795862 2
Curves 18
8 0 1
7 0 0  2 3 2  -35.167631568993514 -6.2500000000000009 5.8416666666666668  -34.565645460831675 -6.2500000000000053 7.2316086181920465  -36.177190294915405 -6.2499999999999964 8.0833333333333339 
 0 3 1 3
8 0 0.41679542274446474
7 0 0  14 15 2  -36.177190294915405 -6.2499999999999964 8.0833333333333339  -36.177190294913608 -4.7166035857466921 8.0833333333333339  -38.328257710149984 -3.1832066054847559 8.0833333333333339  -42.630395290521477 -2.037867232539905 8.0833333333333339  -48.440245557749577 -1.6685998809316893 8.0833333333333339  -54.471215593904034 -2.3243290582080811 8.0833333333333339  -59.075187169706282 -3.9748920786908677 8.0833333333333339  -60.80849059855602 -6.2499999999414708 8.0833333333333339  -59.075187169702801 -8.5251079214164438 8.0833333333333339  -54.471215593908859 -10.17567094170971 8.0833333333333339  -48.440245557745548 -10.831400119119992 8.0833333333333339  -42.630395290523829 -10.462132767434342 8.0833333333333339  -38.328257710149067 -9.3167933945247121 8.0833333333333339  -36.1771902949138 -7.7833964142512109 8.0833333333333339  -36.177190294915398 -6.2500000000000036 8.0833333333333339 
 0 15 1 15
8 1.8737949333599999e-06 1
7 0 0  6 7 2  -55.212096041102185 -4.7224971754176206 7.97088620976659  -55.126205802199159 -4.6796026076898798 7.9851073088120907  -55.039075885174888 -4.6424425213494871 8.0015750485688724  -54.95120151853147 -4.6106384729015524 8.0199491006016324  -54.862921350880477 -4.5838296656139539 8.0398748143875949  -54.774464433761239 -4.5617164233980221 8.0610737968420736  -54.685950689386324 -4.5440609896033042 8.0833333333333339 
 0 7 1 7
8 0.34179739302239143 1
7 0 0  6 7 2  -55.027096760682049 -4.5000000000000009 7.903335341217832  -55.120801345488601 -4.605333453347483 7.9375510100485283  -55.21061177791649 -4.7143139050090825 7.9703447524234408  -55.296149066643352 -4.8270607408836819 8.0015781819274121  -55.376828411473006 -4.9436624587935167 8.0310377622656386  -55.451836071203893 -5.0641933349993939 8.0584263607041908  -55.520047437772547 -5.1887781811021485 8.0833333333333339 
 0 7 1 7
8 0.44973476675811092 0.55026523324188914
7 0 0  14 15 2  -36.177190294915405 -6.2499999999999964 8.0833333333333339  -36.177190294913608 -4.7166035857466921 8.0833333333333339  -38.328257710149984 -3.1832066054847559 8.0833333333333339  -42.630395290521477 -2.037867232539905 8.0833333333333339  -48.440245557749577 -1.6685998809316893 8.0833333333333339  -54.471215593904034 -2.3243290582080811 8.0833333333333339  -59.075187169706282 -3.9748920786908677 8.0833333333333339  -60.80849059855602 -6.2499999999414708 8.0833333333333339  -59.075187169702801 -8.5251079214164438 8.0833333333333339  -54.471215593908859 -10.17567094170971 8.0833333333333339  -48.440245557745548 -10.831400119119992 8.0833333333333339  -42.630395290523829 -10.462132767434342 8.0833333333333339  -38.328257710149067 -9.3167933945247121 8.0833333333333339  -36.1771902949138 -7.7833964142512109 8.0833333333333339  -36.177190294915398 -6.2500000000000036 8.0833333333333339 
 0 15 1 15
8 0.34179739302238221 1
7 0 0  6 7 2  -55.027096760682049 -8 7.9033353412178338  -55.120801345488601 -7.8946665466525197 7.9375510100485283  -55.210611777916469 -7.7856860949908908 7.9703447524234319  -55.296149066643387 -7.6729392591163403 8.0015781819274228  -55.376828411472978 -7.5563375412064699 8.0310377622656315  -55.451836071203893 -7.4358066650006016 8.0584263607041908  -55.520047437772547 -7.3112218188978497 8.0833333333333339 
 0 7 1 7
8 0 0.99999812620488371
7 0 0  6 7 2  -54.68595068938631 -7.9559390103966994 8.0833333333333339  -54.774464438712435 -7.9382835756143901 8.0610737955969398  -54.862921350419143 -7.916170334009073 8.0398748145980274  -54.951201516584007 -7.8893615278244233 8.0199491010655368  -55.039075888931315 -7.85755747815241 8.0015750474822465  -55.126205811401917 -7.8203973877141504 7.9851073072883567  -55.212096041102178 -7.7775028245823847 7.9708862097665873 
 0 7 1 7
8 0.58320457725553521 1
7 0 0  14 15 2  -36.177190294915405 -6.2499999999999964 8.0833333333333339  -36.177190294913608 -4.7166035857466921 8.0833333333333339  -38.328257710149984 -3.1832066054847559 8.0833333333333339  -42.630395290521477 -2.037867232539905 8.0833333333333339  -48.440245557749577 -1.6685998809316893 8.0833333333333339  -54.471215593904034 -2.3243290582080811 8.0833333333333339  -59.075187169706282 -3.9748920786908677 8.0833333333333339  -60.80849059855602 -6.2499999999414708 8.0833333333333339  -59.075187169702801 -8.5251079214164438 8.0833333333333339  -54.471215593908859 -10.17567094170971 8.0833333333333339  -48.440245557745548 -10.831400119119992 8.0833333333333339  -42.630395290523829 -10.462132767434342 8.0833333333333339  -38.328257710149067 -9.3167933945247121 8.0833333333333339  -36.1771902949138 -7.7833964142512109 8.0833333333333339  -36.177190294915398 -6.2500000000000036 8.0833333333333339 
 0 15 1 15
8 0 1
7 0 0  14 15 2  -35.167631568993514 -6.2500000000000009 5.8416666666666668  -35.167631568990458 -4.5296040230328902 5.8416666666666668  -37.481384755133369 -2.8092074110316378 5.8416666666666668  -42.108894085261007 -1.5241925048009617 5.8416666666666668  -48.358144792913478 -1.1098925493377714 5.8416666666666668  -54.84523861323143 -1.845588699453508 5.8416666666666668  -59.797409720100859 -3.6974398931642893 5.8416666666666668  -61.661803324089313 -6.2499999999359153 5.8416666666666668  -59.797409720099743 -8.8025601069533206 5.8416666666666668  -54.845238613232979 -10.654411300456175 5.8416666666666668  -48.358144792912064 -11.390107450719164 5.8416666666666668  -42.10889408526198 -10.975807495170613 5.8416666666666668  -37.481384755132922 -9.6907925889788178 5.8416666666666668  -35.167631568990565 -7.970395976964797 5.8416666666666668  -35.167631568993507 -6.2499999999999973 5.8416666666666668 
 0 15 1 15
8 4.4875153432937243 6.2831853071795862
7 1 0  2 3 2  -54.68595068938631 -7.9559390103967011 8.0833333333333339  1 -52.395452733764223 -8.4454981823368698 8.0833333333333339  0.62330442701309308 -52.395452733764223 -6.2500000000000009 8.0833333333333339  1
 4.4875153432937243 3 6.2831853071795862 3
8 0 1.795669963885862
7 1 0  2 3 2  -52.395452733764223 -6.25 8.0833333333333339  1 -52.395452733764223 -4.0545018176631311 8.0833333333333339  0.62330442701309308 -54.68595068938631 -4.5440609896032997 8.0833333333333339  1
 0 3 1.795669963885862 3
8 1.3357615150337547 66
7 0 0  1 2 2  -52.395452733764223 -6.2500000000000009 8.0833333333333339  -39.028397949628967 -6.2500000000000009 58.434732895596269 
 1.3357615150337547 2 66 2
8 2.0805616807523775 4.2026236264272097
7 1 0  2 3 2  -55.21209507545796 -4.7224966931641799 7.9708863696512529  1 -57.877853337278708 -6.2500000000000018 8.9442720589155726  0.48797244740071888 -55.21209507545796 -7.7775033068358219 7.9708863696512529  1
 2.0805616807523775 3 4.2026236264272097 3
8 0 6.2831853071795853
7 1 1  2 6 4  -39.028397949628967 -6.25 58.434732895596284  1 -39.028397949628967 -3.2189110867544657 58.434732895596284  0.50000000000000011 -41.589454115779887 -4.7344555433772326 59.369887240698361  1 -44.150510281930799 -6.2499999999999991 60.305041585800438  0.50000000000000011 -41.589454115779887 -7.7655444566227674 59.369887240698361  1 -39.028397949628967 -9.2810889132455365 58.434732895596284  0.50000000000000011
 0 2 2.0943951023931953 2 4.1887902047863905 2 6.2831853071795862 2
8 -1.2734661826774438 1.2734661826774385
7 0 0  1 2 2  -55.520047437772533 -7.3112218188978684 8.0833333333333339  -55.520047437772533 -5.1887781811021334 8.0833333333333339 
 -1.2734661826774438 2 1.2734661826774385 2
8 0 6.2831853071795862
7 1 1  2 6 4  -41.825233889806469 -6.25 59.455980815326797  1 -41.825233889806469 -4.3158765982147544 59.455980815326797  0.50000000000000011 -40.191036145691122 -5.2829382991073768 58.85926328083309  1 -38.556838401575774 -6.25 58.262545746339384  0.50000000000000011 -40.191036145691122 -7.2170617008926232 58.85926328083309  1 -41.825233889806462 -8.1841234017852464 59.455980815326797  0.50000000000000011
 0 2 2.0943951023931953 2 4.1887902047863905 2 6.2831853071795862 2
8 0.19999999999999152 6.5600000000000005
7 0 0  1 2 2  -41.825233889806469 -6.25 59.455980815326797  -43.139939984224718 -6.25 54.503708760187017 
 0.19999999999999152 2 6.5600000000000005 2
8 0 6.2831853071795862
7 1 1  2 6 4  -43.139939984224718 -6.25 54.503708760187017  1 -43.139939984224718 -4.3158765982147544 54.503708760187017  0.50000000000000011 -41.50574224010937 -5.2829382991073768 53.906991225693304  1 -39.871544495994023 -6.25 53.310273691199605  0.50000000000000011 -41.50574224010937 -7.2170617008926232 53.906991225693304  1 -43.139939984224711 -8.1841234017852464 54.503708760187017  0.50000000000000011
 0 2 2.0943951023931953 2 4.1887902047863905 2 6.2831853071795862 2
Polygon3D 0
PolygonOnTriangulations 0
Surfaces 9
9 0 0 0 0 14 2 15 3 2 2 -35.167631568993514 -6.2500000000000009 5.8416666666666668  -34.565645460831675 -6.2500000000000053 7.2316086181920465  -36.177190294915405 -6.2499999999999964 8.0833333333333339  
-35.167631568990458 -4.5296040230328902 5.8416666666666668  -34.565645460828762 -4.1551901186005402 7.2316086181920465  -36.177190294913608 -4.7166035857466921 8.0833333333333339  
-37.481384755133369 -2.8092074110316378 5.8416666666666668  -37.044888056584938 -2.0603794639632258 7.2316086181920465  -38.328257710149984 -3.1832066054847559 8.0833333333333339  
-42.108894085261007 -1.5241925048009617 5.8416666666666668  -42.003376417500434 -0.49570368038882762 7.2316086181920465  -42.630395290521477 -2.037867232539905 8.0833333333333339  
-48.358144792913478 -1.1098925493377714 5.8416666666666668  -48.699599955419799 0.0087613684621905101 7.2316086181920465  -48.440245557749577 -1.6685998809316893 8.0833333333333339  
-54.84523861323143 -1.845588699453508 5.8416666666666668  -55.650678150922623 -0.88704610004939333 7.2316086181920465  -54.471215593904034 -2.3243290582080811 8.0833333333333339  
-59.797409720100859 -3.6974398931642893 5.8416666666666668  -60.957049471440811 -3.141920112432258 7.2316086181920465  -59.075187169706282 -3.9748920786908677 8.0833333333333339  
-61.661803324089313 -6.2499999999359153 5.8416666666666668  -62.954792387942071 -6.2499999999233129 7.2316086181920465  -60.80849059855602 -6.2499999999414708 8.0833333333333339  
-59.797409720099743 -8.8025601069533206 5.8416666666666668  -60.957049471447739 -9.3580798877077669 7.2316086181920465  -59.075187169702801 -8.5251079214164438 8.0833333333333339  
-54.845238613232979 -10.654411300456175 5.8416666666666668  -55.650678150911617 -11.61295389984466 7.2316086181920465  -54.471215593908859 -10.17567094170971 8.0833333333333339  
-48.358144792912064 -11.390107450719164 5.8416666666666668  -48.699599955430365 -12.508761368527445 7.2316086181920465  -48.440245557745548 -10.831400119119992 8.0833333333333339  
-42.10889408526198 -10.975807495170613 5.8416666666666668  -42.003376417493456 -12.004296319579504 7.2316086181920465  -42.630395290523829 -10.462132767434342 8.0833333333333339  
-37.481384755132922 -9.6907925889788178 5.8416666666666668  -37.044888056588015 -10.439620536048091 7.2316086181920465  -38.328257710149067 -9.3167933945247121 8.0833333333333339  
-35.167631568990565 -7.970395976964797 5.8416666666666668  -34.565645460828016 -8.3448098813970102 7.2316086181920465  -36.1771902949138 -7.7833964142512109 8.0833333333333339  
-35.167631568993507 -6.2499999999999973 5.8416666666666668  -34.565645460831675 -6.25 7.2316086181920465  -36.177190294915398 -6.2500000000000036 8.0833333333333339  

0 15
1 15

0 3
1 3

9 0 0 0 0 1 1 2 2 2 2 -36.177190294914659 -2.6137626047821283 8.0833333333333339  -36.177190294914659 -9.886237395217881 8.0833333333333339  
-54.68595068938631 -2.6137626047821323 8.0833333333333339  -54.68595068938631 -9.8862373952178846 8.0833333333333339  

-8.9733999999999999e-13 2
22.2105124733651 2

-4.3634848742614416 2
4.3634848742614611 2

9 0 1 1 0 2 1 6 2 4 2 -52.671574401139104 -6.25 7.0432304365986038  1 -39.028397949628967 -6.25 58.434732895596269  1 
-52.671574401139104 -3.2189110867544657 7.0432304365986038  0.5 -39.028397949628967 -3.2189110867544657 58.434732895596269  0.5 
-55.23263056729003 -4.7344555433772326 7.9783847817006848  1 -41.58945411577988 -4.7344555433772326 59.369887240698347  1 
-57.793686733440929 -6.2499999999999991 8.9135391268027657  0.5 -44.150510281930799 -6.2499999999999991 60.305041585800438  0.5 
-55.23263056729003 -7.7655444566227674 7.9783847817006848  1 -41.58945411577988 -7.7655444566227674 59.369887240698347  1 
-52.671574401139104 -9.2810889132455365 7.0432304365986056  0.5 -39.028397949628967 -9.2810889132455365 58.434732895596269  0.5 

0 2
2.0943951023931953 2
4.1887902047863905 2
6.2831853071795862 2

-1.042e-14 2
66 2

9 0 0 0 0 1 1 2 2 2 2 -56.086315956006999 -7.7775033068358219 8.2901028967347212  -56.086315956006999 -4.7224966931641799 8.2901028967347212  
-55.212095073198277 -7.7775033068358219 7.9708863688261484  -55.212095073198277 -4.7224966931641799 7.9708863688261484  

-2.1000000000000001 2
-1.0247421367622058 2

-1.8330039682029853 2
1.8330039682029846 2

9 0 0 0 0 1 1 2 2 2 2 -55.520047437772533 -5.1887781811021307 8.0833333333333339  -55.520047437772533 -7.3112218188978684 8.0833333333333339  
-56.048654147574652 -5.1887781811021307 8.0833333333333339  -56.048654147574652 -7.3112218188978684 8.0833333333333339  

23.211428571428559 2
23.8457566231911 2

-1.2734661826774434 2
1.273466182677442 2

9 0 0 0 0 1 1 2 2 2 2 -35.167631568990458 -11.390107450719164 5.8416666666666668  -35.167631568990458 -1.1098925493377729 5.8416666666666668  
-61.661803324089313 -11.390107450719164 5.8416666666666668  -61.661803324089313 -1.1098925493377714 5.8416666666666668  

-3.6663999999999998e-12 2
31.793006106114959 2

-6.1681289408629958 2
6.1681289407946736 2

9 0 0 0 0 1 1 2 2 2 2 -42.443139504496855 -8 59.68160535573238  -42.443139504496855 -4.5000000000000009 59.68160535573238  
-39.028397949628967 -8 58.434732895596284  -39.028397949628967 -4.5000000000000009 58.434732895596284  

-2.1000000000000001 2
2.1000000000000001 2

-2.1000000000000001 2
2.1000000000000001 2

9 0 1 1 0 2 1 6 2 4 2 -41.825233889806469 -6.25 59.455980815326797  1 -43.139939984224718 -6.25 54.503708760187024  1 
-41.825233889806469 -4.3158765982147544 59.455980815326797  0.5 -43.139939984224718 -4.3158765982147544 54.503708760187024  0.5 
-40.191036145691122 -5.2829382991073768 58.85926328083309  1 -41.505742240109377 -5.2829382991073768 53.906991225693318  1 
-38.556838401575774 -6.25 58.262545746339384  0.5 -39.871544495994023 -6.25 53.310273691199605  0.5 
-40.191036145691122 -7.2170617008926232 58.85926328083309  1 -41.505742240109377 -7.2170617008926232 53.906991225693318  1 
-41.825233889806469 -8.1841234017852464 59.455980815326797  0.5 -43.139939984224718 -8.1841234017852464 54.503708760187024  0.5 

0 2
2.0943951023931953 2
4.1887902047863905 2
6.2831853071795862 2

0.19999999999999152 2
6.5600000000000005 2

9 0 0 0 0 1 1 2 2 2 2 -40.961009658737588 -7.3666666666666671 53.70808538086208  -40.961009658737588 -5.1333333333333337 53.70808538086208  
-43.139939984224718 -7.3666666666666671 54.503708760187017  -43.139939984224718 -5.1333333333333337 54.503708760187017  

-1.3400000000000001 2
1.3400000000000001 2

-1.3400000000000001 2
1.3400000000000001 2

Triangulations 0

TShapes 53
Ve
1e-07
-35.1676315689935 -6.25 5.84166666666667
0 0

0101101
*
Ve
1e-07
-36.1771902949154 -6.25 8.08333333333333
0 0

0101101
*
Ed
 8.3333333e-08 1 1 0
1  1 0 0 1
3  1 2G2 1 0 0 1
0

0101000
+53 0 -52 0 *
Ve
4.166666679e-06
-54.6859506893863 -4.5440609896033 8.08333333333333
0 0

0101101
*
Ed
 8.3333333e-08 1 1 0
1  2 0 0 0.416795422744465
2  3 1 0 0 0.416795422744465
2  4 2 0 0 0.416795422744465
0

0101000
+52 0 -50 0 *
Ve
4.1666675e-06
-55.212095075458 -4.72249669316418 7.97088636965125
0 0

0101101
*
Ed
 4.166666667e-06 1 1 0
1  3 0 1.873794933e-06 1
2  5 1 0 1.873794933e-06 1
2  6 3 0 1.873794933e-06 1
0

0101000
+48 0 -50 0 *
Ve
4.166666686e-06
-55.5200474377725 -5.18877818110213 8.08333333333333
0 0

0101101
*
Ed
 4.166666667e-06 1 1 0
1  4 0 0.341797393022391 1
2  7 1 0 0.341797393022391 1
2  8 4 0 0.341797393022391 1
0

0101000
+48 0 -46 0 *
Ve
4.166666689e-06
-55.5200474377725 -7.31122181889787 8.08333333333333
0 0

0101101
*
Ed
 8.3333333e-08 1 1 0
1  5 0 0.449734766758111 0.550265233241889
2  9 1 0 0.449734766758111 0.550265233241889
2  10 5 0 0.449734766758111 0.550265233241889
0

0101000
+46 0 -44 0 *
Ve
4.1666675e-06
-55.212095075458 -7.77750330683582 7.97088636965125
0 0

0101101
*
Ed
 4.166666667e-06 1 1 0
1  6 0 0.341797393022382 1
2  11 1 0 0.341797393022382 1
2  12 4 0 0.341797393022382 1
0

0101000
+42 0 -44 0 *
Ve
4.166666668e-06
-54.6859506893863 -7.9559390103967 8.08333333333333
0 0

0101101
*
Ed
 4.166666667e-06 1 1 0
1  7 0 0 0.999998126204884
2  13 1 0 0 0.999998126204884
2  14 3 0 0 0.999998126204884
0

0101000
+40 0 -42 0 *
Ed
 8.3333333e-08 1 1 0
1  8 0 0.583204577255535 1
2  15 1 0 0.583204577255535 1
2  16 2 0 0.583204577255535 1
0

0101000
+40 0 -52 0 *
Ed
 8.3333333e-08 1 1 0
1  9 0 0 1
2  17 1 0 0 1
2  18 6 0 0 1
0

0101000
+53 0 -53 0 *
Wi

0101100
-51 0 -49 0 +47 0 -45 0 -43 0 +41 0 +39 0 -38 0 +51 0 +37 0 
*
Fa
0  8.3333333e-08 1 0

0101000
+36 0 *
Ve
1e-07
-52.3954527337642 -6.25 8.08333333333333
0 0

0101101
*
Ed
 8.3333333e-08 1 1 0
1  10 0 4.48751534329372 6.28318530717959
2  19 2 0 4.48751534329372 6.28318530717959
2  20 3 0 4.48751534329372 6.28318530717959
0

0101000
+40 0 -34 0 *
Ed
 8.3333333e-08 1 1 0
1  11 0 0 1.79566996388586
2  21 2 0 0 1.79566996388586
2  22 3 0 0 1.79566996388586
0

0101000
+34 0 -50 0 *
Wi

0101100
+38 0 -33 0 -32 0 +49 0 *
Fa
0  8.3333333e-08 2 0

0101000
+31 0 *
Ve
1e-07
-39.028397949629 -6.25 58.4347328955963
0 0

0101101
*
Ed
 8.3333333e-08 1 1 0
1  12 0 1.33576151503375 66
3  23 24CN 3 0 1.33576151503375 66
0

0101000
+34 0 -29 0 *
Ed
 8.3333333e-08 1 1 0
1  13 0 2.08056168075238 4.20262362642721
2  25 3 0 2.08056168075238 4.20262362642721
2  26 4 0 2.08056168075238 4.20262362642721
0

0101000
+48 0 -42 0 *
Ed
 8.3333333e-08 1 1 0
1  14 0 0 6.28318530717959
2  27 3 0 0 6.28318530717959
2  28 7 0 0 6.28318530717959
0

0101000
+29 0 -29 0 *
Wi

0101100
+28 0 +33 0 -39 0 +27 0 -47 0 +32 0 -28 0 -26 0 *
Fa
0  8.3333333e-08 3 0

0101000
+25 0 *
Ed
 1.25e-07 1 1 0
1  15 0 -1.27346618267744 1.27346618267744
2  29 4 0 -1.27346618267744 1.27346618267744
2  30 5 0 -1.27346618267744 1.27346618267744
0

0101000
+44 0 -46 0 *
Wi

0101100
-45 0 +23 0 +41 0 +27 0 *
Fa
0  8.3333333e-08 4 0

0101000
+22 0 *
Wi

0101100
+23 0 +43 0 *
Fa
0  8.3333333e-08 5 0

0101000
+20 0 *
Wi

0101000
-37 0 *
Fa
0  8.3333333e-08 6 0

0101000
+18 0 *
Wi

0101100
+26 0 *
Ve
1e-07
-41.8252338898065 -6.25 59.4559808153268
0 0

0101101
*
Ed
 8.3333333e-08 1 1 0
1  16 0 0 6.28318530717959
2  31 7 0 0 6.28318530717959
2  32 8 0 0 6.28318530717959
0

0101100
+15 0 -15 0 *
Wi

0101100
+14 0 *
Fa
0  8.3333333e-08 7 0

0101000
+16 0 +13 0 *
Ve
1e-07
-43.1399399842247 -6.25 54.503708760187
0 0

0101101
*
Ed
 8.3333333e-08 1 1 0
1  17 0 0.199999999999992 6.56
3  33 34CN 8 0 0.199999999999992 6.56
0

0101000
+15 0 -11 0 *
Ed
 8.3333333e-08 1 1 0
1  18 0 0 6.28318530717959
2  35 8 0 0 6.28318530717959
2  36 9 0 0 6.28318530717959
0

0101000
+11 0 -11 0 *
Wi

0101100
+10 0 +14 0 -10 0 -9 0 *
Fa
0  8.3333333e-08 8 0

0101000
+8 0 *
Wi

0101100
+9 0 *
Fa
0  8.3333333e-08 9 0

0101000
+6 0 *
Sh

0101100
+35 0 +30 0 +24 0 -21 0 +19 0 +17 0 +12 0 -7 0 -5 0 *
So

0100000
+4 0 *
Co

0100000
+3 0 *
Co

0100000
+2 0 *

+1 1 