DBRep_DrawableShape

CASCADE Topology V1, (c) Matra-Datavision
Locations 1
1
              1               0               0               0 
              0               1               0               0 
              0               0               1               0 
Curve2ds 17
8 0 1
7 0 0  8 201 26  0 34.59926654604832  0.11040703490242978 34.599266546040624  0.21422802782987965 34.599266546049137  0.3132182273414707 34.599266546022129  0.40863900141389259 34.599266546011805  0.50143377687234547 34.599266546040461  0.59235309228056865 34.599266546063951  0.68202876428995551 34.599266546032432  0.77099716744775548 34.59926654604832  0.80992112189508114 34.599266546048248  0.84871231395753499 34.599266546048227  0.88741110734339568 34.599266546048227  0.92605943702631588 34.599266546048263  0.96470080924532542 34.599266546048277  1.0033803015048282 34.599266546048298  1.0421445625746033 34.599266546048327  1.081041812489806 34.599266546048376  1.1175080408269225 34.599266546048391  1.1540911482281382 34.59926654604827  1.1908310430478357 34.599266546048142  1.2277689201897997 34.599266546048078  1.2649472611072179 34.599266546048099  1.3024098338026806 34.599266546048213  1.3402016928281812 34.599266546048341  1.378369179285116 34.599266546048391  1.4141502465476743 34.599266546051552  1.4502670992405278 34.599266546035885  1.4867619837873969 34.599266546043182  1.5236770107090933 34.599266546053911  1.561057932503831 34.599266546051375  1.5989558208630477 34.599266546045243  1.6374266432227362 34.599266546054274  1.6765287386502814 34.599266546048391  1.6948578866660491 34.599266546048227  1.7133258698550147 34.599266546048135  1.7319388081385969 34.599266546048078  1.7507030767609142 34.599266546048064  1.7696253062887806 34.599266546048085  1.7887123826117091 34.599266546048128  1.8079714469419104 34.599266546048213  1.8274098958142935 34.599266546048362  1.8462409402947615 34.599266546046081  1.8652400802019025 34.599266546063944  1.884414968243147 34.599266546044994  1.9037715712985508 34.599266546031551  1.9233168488211085 34.599266546048902  1.9430595242783646 34.599266546067852  1.963008949635312 34.599266546046081  1.9831720628785765 34.599266546048334  1.9929386553251376 34.599266546048362  2.0027554295176402 34.599266546048362  2.0126234104491942 34.599266546048348  2.0225436231129077 34.599266546048341  2.0325170925018892 34.599266546048327  2.0425448436092477 34.59926654604832  2.052627901428091 34.59926654604832  2.0627672909515269 34.599266546048341  2.0652624848334566 34.599266546048341  2.067761144011854 34.599266546048341  2.0702632684867188 34.599266546048341  2.0727688582580517 34.599266546048341  2.0752779133258517 34.599266546048341  2.0777904336901196 34.599266546048341  2.0803064193508556 34.599266546048341  2.0828258703080587 34.599266546048334  2.0840806965150964 34.599266546048334  2.0853364008520083 34.599266546048334  2.0865929833187944 34.599266546048334  2.0878504439154546 34.599266546048334  2.0891087826419898 34.599266546048334  2.0903679994984001 34.599266546048334  2.091628094484685 34.599266546048341  2.092889067600844 34.599266546048341  2.0954057721255595 34.599266546778381  2.0979311412447714 34.599266541539691  2.1004332946904469 34.599266551900655  2.1029556106368545 34.599266524426639  2.1054546437662793 34.599266553297639  2.1079620980817708 34.599266543635167  2.1104616376796912 34.599266546763829  2.1129589418166184 34.599266546048341  2.1527579445223983 34.59926654605043  2.1917173578548619 34.599266546049705  2.2299008094440715 34.599266546049364  2.2673660253867798 34.599266546049904  2.3041657796604835 34.599266546050451  2.3403488435374786 34.599266546049954  2.3759609349989161 34.599266546048447  2.4110456681488626 34.599266546048348  2.4439374991707954 34.599266546049584  2.476365278502469 34.599266546049627  2.5083644303167656 34.599266546049975  2.5399679414033312 34.599266546050622  2.5712067255300455 34.599266546050899  2.6021099878044951 34.599266546050195  2.6327055890354423 34.599266546048732  2.663020410094294 34.599266546048348  2.6914404428830472 34.599266546046081  2.7196140697154916 34.599266546063944  2.7475619479764641 34.599266546032013  2.7753061022305503 34.599266546006092  2.8028674692637146 34.599266546023827  2.8302650702431773 34.599266546054594  2.8575168099955404 34.59926654604336  2.8846419034031601 34.599266546048348  2.9100716509796514 34.599266546048248  2.935389954257972 34.599266546048185  2.9606120260562361 34.599266546048135  2.9857528346809983 34.599266546048149  3.0108271039272454 34.599266546048185  3.0358493130784003 34.599266546048256  3.0608336969063235 34.59926654604832  3.085794245671313 34.599266546048362  3.1325954589223111 34.599266546055631  3.1793116996645256 34.599266546030428  3.2260383269912358 34.599266546043779  3.2728679715915927 34.599266546060143  3.3198934955578023 34.59926654605195  3.3672102393476604 34.599266546039779  3.4149175559024338 34.599266546058359  3.4631196319201041 34.599266546048334  3.505296527180191 34.599266546051005  3.5478525118353965 34.599266546047595  3.5908577460145539 34.599266546047339  3.6343855588739298 34.599266546050551  3.6785136552527002 34.599266546053293  3.723325322328408 34.599266546051737  3.7689106362724267 34.599266546046742  3.8153676689054348 34.599266546048334  3.8560175493912858 34.599266546056995  3.8973355406511914 34.599266546039004  3.9393864059929262 34.599266546023181  3.9822424810417942 34.599266546014405  4.025981532999781 34.599266546014988  4.0706870333041563 34.599266546029654  4.1164508436855174 34.599266546054267  4.1633783156252866 34.599266546048341  4.1659445972756028 34.599266546048362  4.1685144091119124 34.599266546048369  4.1710877511342153 34.599266546048369  4.1736646233425114 34.599266546048369  4.1762450257368018 34.599266546048362  4.1788289583170863 34.599266546048348  4.1814164210833642 34.599266546048348  4.1840074140356345 34.599266546048348  4.184650130656161 34.599266546048341  4.1852930619661413 34.599266546048341  4.1859362079655771 34.599266546048341  4.1865795686544676 34.599266546048341  4.1872231440328127 34.599266546048341  4.1878669341006125 34.599266546048334  4.188510938857867 34.599266546048341  4.1891551583045761 34.599266546048348  4.2097237452177518 34.599266546048149  4.23005694585685 34.599266546048156  4.2501638044255836 34.59926654604822  4.2700529743517412 34.599266546048277  4.2897327182871789 34.59926654604827  4.3092109081078265 34.59926654604822  4.3284950249136802 34.599266546048213  4.3475921590288102 34.599266546048362  4.4192054716505016 34.599266546044717  4.4881997955901927 34.599266546055368  4.5549446508370259 34.599266546039615  4.6197574186333306 34.599266546024801  4.6829147831066642 34.599266546031231  4.7446605540795455 34.599266546045243  4.8052098710569373 34.599266546040639  4.8647497883914266 34.599266546048398  4.8870774363640521 34.599266546007129  4.9092622995813144 34.599266543984413  4.9313140894810203 34.599266543285921  4.9532577838981524 34.599266529083252  4.9750756544526666 34.599266546778381  4.9968011121673044 34.599266546079889  5.0184281009969709 34.59926654623996  5.0399706849243655 34.599266546048348  5.0776699704561601 34.599266546048369  5.1151073554294895 34.599266546048305  5.1523281881082372 34.599266546048256  5.1893764160099165 34.599266546048241  5.2262945859056744 34.599266546048284  5.2631238438202939 34.599266546048376  5.2999039350321864 34.599266546048433  5.3366732040733975 34.599266546048348  5.3642501452042204 34.599266546054267  5.3918212447766711 34.59926654603354  5.4194019206641277 34.599266546039672  5.4470091260042341 34.599266546050785  5.4746581613761212 34.599266546046891  5.502362491324571 34.599266546039011  5.5301365652312144 34.599266546050181  5.5580016425326946 34.599266546048348  5.6415961488143695 34.599266546062459  5.7259966211290632 34.599266546014839  5.8116683283529129 34.599266546020054  5.8991555849491837 34.59926654603467  5.9891053106784469 34.599266546023571  6.0823246250779199 34.599266546017184  6.179872476709936 34.599266546059717  6.2831853071795853 34.599266546048305 
 0 9 0.125 8 0.1796875 8 0.23095703125 8 0.279022216796875 8 0.30155277252197266 8 0.32337924838066101 8 0.33395144762471318 8 0.33655319978242915 8 0.33784899431410409 8 0.34043552168006463 8 0.38165830157506064 8 0.4203046577266194 8 0.45653561661870568 8 0.49050214058003655 8 0.55418937300753202 8 0.60991570138159057 8 0.6586762387088918 8 0.66134283059397858 8 0.66200427037797471 8 0.68312900347935135 8 0.76234675260951357 8 0.7920534085333244 8 0.84404005639999324 8 0.88303004229999493 8 1 9
8 0 1
7 0 0  8 303 44  0 -0.96744212585930733  0.080121897710732526 -0.96744212676810726  0.15676428862566638 -0.96580513756524056  0.23023549141001354 -0.96252956848621807  0.30079796315339991 -0.95763787645955745  0.36868423561872987 -0.95117781497845044  0.43410686880154969 -0.94321989439220033  0.4972640725379856 -0.93385262494447274  0.61560380659939162 -0.9131688177479409  0.67103807627266521 -0.90201074746223631  0.72479929946091004 -0.88978608995620234  0.77703277714246211 -0.87658817270447908  0.82787702674854646 -0.86251599654501598  0.87746464911679023 -0.84767064235940559  0.92592230338193637 -0.83215255261697263  0.97893004700063102 -0.81417380440052511  0.98447638725338038 -0.81228004387958208  0.9900092439056607 -0.81037847975676414  0.99552814369235421 -0.8084695021098014  1.0010343419708079 -0.80655289701826405  1.0065271684507024 -0.80462911786162294  1.0120072103341045 -0.80269818278338789  1.0608713484591836 -0.78537827633362944  1.1034675433756407 -0.76955753074630229  1.1453531495543263 -0.75337686629760514  1.1866189792217645 -0.73691091090047878  1.2273553438395459 -0.72022894063389387  1.2676512560171769 -0.70339438238391694  1.3075941063396972 -0.68646498705637793  1.3658678028018534 -0.66153836849445935  1.3844070898587566 -0.65357384772565685  1.4028965225528072 -0.6456055556797281  1.4213448707874312 -0.63763869322283839  1.4397608291527013 -0.62967823278121526  1.4581530179805922 -0.62172893366003901  1.4765299844002289 -0.61379535736233337  1.5037982782392716 -0.60204879354021945  1.5126947699696593 -0.59822042123844421  1.5215906417617349 -0.59439726278414773  1.530486852768469 -0.59057980593184622  1.5393843581183664 -0.58676852940895585  1.5482841089154717 -0.58296390291579347  1.5571870522393672 -0.57916638712557589  1.5748620354380434 -0.57164569911992535  1.5836339543137723 -0.56792229003976824  1.592410767892068 -0.56420664625910488  1.6011933870295252 -0.56049918556256484  1.609982709981957 -0.55680032217454167  1.6187796107346943 -0.55311047200970498  1.6275849590008367 -0.54943004470373846  1.6711077362322391 -0.53130629266813212  1.7059682196226733 -0.51700216348729378  1.74103651589311 -0.50287077153966719  1.7763698513486883 -0.48893333823353458  1.8120273323081091 -0.47520907317424133  1.8480701545380069 -0.461715600083624  1.8845619745789122 -0.4484693051922064  1.9389166932133886 -0.42939950001845095  1.9563772437713574 -0.4233710917927862  1.9739579569502361 -0.41740197104799398  1.9916658374300804 -0.41149367951512772  2.0095080420193643 -0.40564771827719953  2.027491889416857 -0.39986555301090665  2.0456248699734942 -0.3941486192283597  2.0661294342295475 -0.38781411249206527  2.0683465122240912 -0.38713087469763729  2.0705659031573886 -0.38644861662607088  2.0727876207489428 -0.38576734076791125  2.0750116787182549 -0.38508704961370305  2.0772380907848285 -0.38440774565399077  2.079466870668166 -0.38372943137931914  2.0828092550996398 -0.38271477112022784  2.0839210688752261 -0.3823776790670832  2.0850334751277622 -0.38204083342612077  2.0861464755704793 -0.38170423450266128  2.0872600719166097 -0.3813678826020257  2.088374265879386 -0.38103177802953503  2.0894890591720419 -0.38069592109051043  2.0911610485736674 -0.38019283532537429  2.0917179073439911 -0.38002542035064835  2.0922744691924891 -0.37985806695542124  2.0928321836836403 -0.37969077568050125  2.0933886659913696 -0.37952354602748528  2.0939464089315152 -0.37935637849204795  2.0945040253564002 -0.37918927270175118  2.0995153937941544 -0.37768718373236437  2.1039574641161756 -0.37635609702562384  2.1083876435218678 -0.3750289879245724  2.1128060567867428 -0.37370587553113488  2.1172128286863128 -0.37238677894723626  2.1216080839960885 -0.37107171727480104  2.1259919474915812 -0.36976070961575419  2.1347029715034722 -0.36715705217591499  2.1390303375588928 -0.36586432836705285  2.1433466176665661 -0.36457566334138392  2.1476521381409839 -0.36329101434671429  2.1519469898591979 -0.36201040612846214  2.1562311899732549 -0.36073388432534159  2.1605049371989256 -0.35946144159812232  2.1986088040051248 -0.34812568871011823  2.2317958905915187 -0.33831689447823399  2.2643849997006544 -0.32877546034615535  2.2964260472308196 -0.3195096433786091  2.3279641449364226 -0.31052729144907282  2.3590401928784042 -0.3018359108723207  2.3896913507704034 -0.29344273065829446  2.4270435835677153 -0.28345914626966767  2.4341142964211819 -0.28158029449956112  2.4411639591848928 -0.27971829879511689  2.4481929955124433 -0.2778732490344149  2.4552018203072028 -0.27604523425547794  2.4621908397223153 -0.27423434265627167  2.4691604511606968 -0.27244066159470426  2.5034790318297193 -0.26366975668142095  2.5305527491724908 -0.2569432410051169  2.5573558791142386 -0.25048998752711021  2.5839105437218812 -0.24431495780336429  2.6102372938567959 -0.23842285314434464  2.6363551597999488 -0.23281813895786291  2.662281761963722 -0.22750505826882919  2.700104614342242 -0.22013571369200813  2.7121373694069271 -0.21784874523061115  2.7241334453383685 -0.21562713867794578  2.736094497246973 -0.21347128921095135  2.7480221368997002 -0.21138157753728432  2.7599179327200609 -0.20935836989531834  2.7717834097881142 -0.20740201805414407  2.7893534245947293 -0.20459779776279627  2.795080025044173 -0.20369850225999672  2.8008000372895938 -0.20281500865213534  2.8065136230789687 -0.20194735513771989  2.8122209342552775 -0.20109558021027782  2.8179221272043211 -0.20025972060183214  2.8236173773025355 -0.19943980922637775  2.8517093453189784 -0.19547037355101465  2.8740225138768878 -0.19255262116190258  2.8962557063447325 -0.18988474877675221  2.9184180112266724 -0.1874686518103765  2.9405182982248341 -0.18530598827167108  2.9625652182393134 -0.18339817876361378  2.9845672033681754 -0.18174640648326493  3.0168286852125403 -0.17969781095033149  3.0271168363400687 -0.17910047159029235  3.0373977672758516 -0.17855969760618359  3.0476723151355007 -0.17807557570381102  3.0579413071644144 -0.17764818083025322  3.0682055607377876 -0.17727757617386108  3.0784658833606056 -0.17696381316425799  3.0936913977381342 -0.17658250310996967  3.098658989351962 -0.1764714221906773  3.1036259367538941 -0.17637369144095602  3.108592329188701 -0.17628931358729935  3.1135582559011477 -0.17621829135620085  3.1185238061360043 -0.17616062747415398  3.1234890691380399 -0.1761163246676522  3.1333416174034694 -0.17605492883575291  3.1382289218398367 -0.17603741957518498  3.1431160744808149 -0.17603285821915166  3.1480032226314245 -0.17604124558393763  3.1528904970573013 -0.1760625817666599  3.1577779630190643 -0.17609686570436633  3.1626656591657598 -0.17614409549001747  3.18680046696876 -0.17644120415220796  3.2060526520393076 -0.17687882192163287  3.2253155529802511 -0.17751699425866746  3.244594531681027 -0.1783554454055499  3.2638950384392857 -0.17939375234171695  3.2832226119608894 -0.18063134478380402  3.302582879359909 -0.18206750518564493  3.3310746893812273 -0.18446724269365575  3.3401762450476786 -0.18527655648087923  3.3492868645147418 -0.18612922476090404  3.3584070919872766 -0.18702514849416374  3.367537504039726 -0.18796422380520791  3.3766787520193802 -0.18894634480967631  3.3858315173314173 -0.18997140040360175  3.4127533011736446 -0.19310825252245858  3.4305557068556189 -0.19533794824680664  3.4484081748094182 -0.19772746217249546  3.4663154967968572 -0.20027582686301618  3.484282612452108 -0.20298198524956187  3.5023146043810467 -0.20584478901882944  3.5204167540916353 -0.20886300760000306  3.5471155493984088 -0.21352238171675264  3.5556530876378094 -0.21504328074171189  3.5642078424259416 -0.21659791008904428  3.5727803959975293 -0.21818613165186981  3.5813713438696162 -0.21980780395318128  3.5899812948415644 -0.22146278214584394  3.5986108709950533 -0.22315091801259559  3.6240197755704666 -0.22820677662422192  3.6408549697165569 -0.23166540297548205  3.6577708382590304 -0.23524682463656932  3.6747721859281435 -0.23894988581247273  3.6918640740577269 -0.24277338929642811  3.7090518205851817 -0.24671609646991813  3.7263410000514887 -0.2507767273026722  3.7518920270585223 -0.25691203741516172  3.760070184607097 -0.25889573492355583  3.7682725155516978 -0.26090491559710199  3.7764996340007215 -0.26293944017849274  3.7847521688661825 -0.26499916743386165  3.793030763863718 -0.26708395415278186  3.801336077512584 -0.26919365514826721  3.8419580643462496 -0.27959919986289855  3.8746594436801285 -0.28824238115204198  3.9078118008054124 -0.2972489326229909  3.9414583109924028 -0.30660987653337202  3.9756469051615442 -0.31631591236294754  4.0104309010958534 -0.32635732660948469  4.0458698058178086 -0.33672389191719748  4.0899403964922385 -0.34974119493108446  4.0978850210667588 -0.35209267048412585  4.1058649093320128 -0.35445908363362832  4.1138806831440888 -0.35684029016556451  4.1219331407046411 -0.35923619659843098  4.1300231379136676 -0.36164671166807238  4.1381510774481285 -0.36407161398869903  4.1502742448188261 -0.36769247371163244  4.1542393968645364 -0.36887738932797287  4.1582138147047631 -0.37006566400386037  4.1621975900547499 -0.37125728352466908  4.1661908146297399 -0.37245223367577268  4.1701935801449759 -0.37365050024254515  4.1742059783157011 -0.37485206901036022  4.1792179206537305 -0.37635343346185235  4.1802083296014887 -0.37665014027901078  4.1811993291284963 -0.37694704600208656  4.1821909206628121 -0.37724415041709902  4.1831831056324971 -0.37754145331006761  4.1841758854656126 -0.37783895446701204  4.1851692615902181 -0.37813665367395177  4.1866583002611151 -0.37858291740656114  4.1871533389785327 -0.37873133318225882  4.1876492157462053 -0.37887979790866666  4.1881437144766096 -0.37902831183600938  4.1886403118551243 -0.37917687457229476  4.1891359039291274 -0.37932548645494535  4.1896314449513739 -0.37947414716154526  4.2217740432776338 -0.38912168426293448  4.2529359828230318 -0.3988200872381506  4.2836519923457841 -0.40871113532693254  4.3139597127499769 -0.41878772552603094  4.3438953047032491 -0.42904250138853195  4.3734935933651391 -0.43946777217259098  4.4027882131154286 -0.45005543199016634  4.4572073473196241 -0.47019564308764777  4.4823954040311991 -0.47971214938212442  4.5073977362732238 -0.48934061832584635  4.5322355676319308 -0.4990749788511164  4.5569295729607893 -0.50890879891644181  4.5814999199175341 -0.51883521608709993  4.6059663105011968 -0.52884686811570403  4.6330147722758692 -0.54003930300059799  4.6356805105069725 -0.54114370790550481  4.6383452451755147 -0.54224902061304192  4.6410090621247946 -0.54335525602118651  4.6436718976669908 -0.54446236653228652  4.6463337711861641 -0.54557033911117969  4.6489949084740267 -0.54667924683215752  4.6935546537919004 -0.56526793621047133  4.7352507147452965 -0.58296495798772541  4.7768382822325917 -0.60083705826757527  4.8184142887831252 -0.61883822575390479  4.8600775428621752 -0.63691826575023514  4.901928696242174 -0.65502175258523432  4.9440703224130553 -0.67308713095960615  5.0185096906124187 -0.7045150933182831  5.0506345339836214 -0.7179243010626486  5.0830257690450535 -0.73124472073337798  5.1157281131985917 -0.7444453755449395  5.148786854429229 -0.75749298847575286  5.18224770748576 -0.77035197685443335  5.2161565401612267 -0.78298463369689086  5.2537841973675077 -0.79651088896218458  5.2570137633761957 -0.79766794646847217  5.2602477052227501 -0.79882263548608468  5.2634860604307567 -0.79997492318796604  5.2667288665238017 -0.80112477674706095  5.2699761610254736 -0.80227216333631446  5.273227981459363 -0.80341705012867071  5.2827936033063452 -0.80677271309787102  5.2891200360463699 -0.80897653563260974  5.2954635733913165 -0.81117050421016756  5.3018254162743688 -0.81335470294288825  5.3082048444484826 -0.81552853446919471  5.3146028801129432 -0.81769201964016247  5.3210194569255691 -0.81984478914682768  5.3757214679855601 -0.83805055342371015  5.4250530275726305 -0.853500116909089  5.4755748232569204 -0.86823371704963392  5.5274188446637709 -0.88214776509130388  5.5807234096382672 -0.89513822650201291  5.6356330581770635 -0.90710397581113966  5.6922994508943061 -0.91795098097935901  5.8094683014846664 -0.93724165348493538  5.8699707657915496 -0.94568531485168705  5.9325525561384893 -0.95284438388227954  5.9973846764369227 -0.95864696760963852  6.0646503730972654 -0.96303625836787887  6.1345497528532178 -0.9659739719372169  6.2073075758713996 -0.96744212648012495  6.2831853071795862 -0.96744212585931233 
 0 9 0.0625 7 0.12109375 7 0.127960205078125 7 0.18246269226074219 7 0.20801073312759399 7 0.22038556542247534 7 0.23256704096274916 7 0.28053160090257734 7 0.3030149883743718 7 0.30573758607603441 7 0.30709356735322968 7 0.30777023379136126 7 0.31317827883986626 7 0.31854407353642977 7 0.36113506894040293 7 0.37111733348820913 7 0.4104225001451961 7 0.4288467970156587 7 0.43777106581228908 7 0.47291037419902104 7 0.48938192500530164 7 0.49736033242709382 7 0.50521407723292044 7 0.53613819740586299 7 0.55063387873692982 7 0.5787192613158717 7 0.59188428439975072 7 0.61739151662476632 7 0.62934803173024234 7 0.67567952776396201 7 0.68581454252133822 7 0.69072369029444225 7 0.69193180087922956 7 0.69253349658063734 7 0.7309668095080577 7 0.76459595831955052 7 0.76827414647080761 7 0.82620560985310565 7 0.86965420738982924 7 0.87372751340889709 7 0.88161954382084096 7 0.94080977191042048 7 1 9
8 0 34.599266546048263
7 0 0  2 3 2  6.2831853071795862 0  6.2831853071795827 17.299633273024131  6.2831853071795862 34.599266546048263 
 0 3 34.599266546048263 3
8 0 34.599266546048263
7 0 0  2 3 2  0 0  -3.5500000000000001e-15 17.299633273024131  0 34.599266546048263 
 0 3 34.599266546048263 3
8 0 6.2831853071795853
7 0 0  2 7 4  0 0  1.0471975511966001 -1.5650000000000001e-14  2.0943951023931953 0  3.141592653589794 0  4.1887902047863905 0  5.2359877559829897 -3.47e-15  6.2831853071795853 0 
 0 3 2.0943951023931953 2 4.1887902047863905 2 6.2831853071795853 3
8 0 6.2831853071795853
7 1 1  2 6 4  2.0999999999999943 0  1 2.0999999999999943 3.6373066958946412  0.50000000000000011 -1.0500000000000114 1.818653347947321  1 -4.2000000000000028 8.9000000000000007e-16  0.50000000000000011 -1.0500000000000114 -1.8186533479473201  1 2.0999999999999943 -3.6373066958946438  0.50000000000000011
 0 2 2.0943951023931953 2 4.1887902047863905 2 6.2831853071795862 2
8 5.3157431813202605 7.8539816339744828
7 0 0  2 3 2  6.2831853071795862 -0.96744212585932576  6.2831853071795871 0.30167710046776919  6.2831853071795862 1.5707963267948966 
 5.3157431813202605 3 7.8539816339744828 3
8 5.3157431813202605 7.8539816339744828
7 0 0  2 3 2  0 -0.96744212585932576  8.9000000000000007e-16 0.30167710046776919  0 1.5707963267948966 
 5.3157431813202605 3 7.8539816339744828 3
7 0 0  1 2 2  0 1.5707963267948966  6.2831853071795862 1.5707963267948966 
 0 2 6.2831853071795862 2
8 0 6.2831853071795862
7 0 0  1 2 2  0 1.5707963267948966  6.2831853071795862 1.5707963267948966 
 0 2 6.2831853071795862 2
8 0 6.2831853071795862
7 0 0  1 2 2  0 1.5707963267948966  6.2831853071795862 1.5707963267948966 
 0 2 6.2831853071795862 2
8 0 6.2831853071795862
7 1 1  2 6 4  -1.0999999999999943 0  1 -1.0999999999999943 1.9052558883257644  0.50000000000000011 0.55000000000001137 0.95262794416288266  1 2.2000000000000028 0  0.50000000000000011 0.55000000000001137 -0.95262794416288266  1 -1.0999999999999943 -1.9052558883257653  0.50000000000000011
 0 2 2.0943951023931953 2 4.1887902047863905 2 6.2831853071795862 2
8 0 6.2831853071795862
7 0 0  2 7 4  0 0.19999999999999152  1.0471975511965812 0.20000000000000759  2.0943951023931953 0.19999999999999152  3.1415926535898033 0.199999999999975  4.1887902047863905 0.19999999999999152  5.2359877559830075 0.20000000000001253  6.2831853071795862 0.19999999999999152 
 0 3 2.0943951023931953 2 4.1887902047863905 2 6.2831853071795862 3
8 0.19999999999999152 6.2000000000000002
7 0 0  2 3 2  6.2831853071795862 0.19999999999999152  6.2831853071795871 3.2000000000000077  6.2831853071795862 6.2000000000000002 
 0.19999999999999152 3 6.2000000000000002 3
8 0.19999999999999152 6.2000000000000002
7 0 0  2 3 2  0 0.19999999999999152  8.9000000000000007e-16 3.2000000000000077  0 6.2000000000000002 
 0.19999999999999152 3 6.2000000000000002 3
8 0 6.2831853071795862
7 0 0  2 7 4  0 6.2000000000000135  1.0471975511966041 6.1999999999999993  2.0943951023931935 6.2000000000000162  3.1415926535897931 6.1999999999999762  4.1887902047863923 6.2000000000000162  5.2359877559829924 6.2000000000000091  6.2831853071795862 6.2000000000000135 
 0 3 2.0943951023931953 2 4.1887902047863905 2 6.2831853071795862 3
8 0 6.2831853071795862
7 1 1  2 6 4  1.0999999999999943 0  1 1.0999999999999943 1.9052558883257644  0.50000000000000011 -0.55000000000001137 0.95262794416288266  1 -2.2000000000000171 0  0.50000000000000011 -0.55000000000001137 -0.95262794416288266  1 1.0999999999999943 -1.9052558883257653  0.50000000000000011
 0 2 2.0943951023931953 2 4.1887902047863905 2 6.2831853071795862 2
Curves 7
8 0 1
7 0 0  8 107 16  -31.876217668105205 -6.2500000000000009 85.375767619547148  -31.876217668105205 -6.0914934843973141 85.375767619547148  -31.892225553155541 -5.9328948695431736 85.381612803053827  -31.924275034136201 -5.7756631194740313 85.393315479390608  -31.972409652378484 -5.6213109928712504 85.410891547421315  -32.03666269819427 -5.4715908496947447 85.434353162893558  -32.116781464288955 -5.3285836991188473 85.463608051260522  -32.21209619474665 -5.1944979513581231 85.498411655147237  -32.41696620229785 -4.9639832839604994 85.573218713373734  -32.52324211876806 -4.8649220900093013 85.612024728790729  -32.639379680921174 -4.7758410901177495 85.65443166515999  -32.764284061873049 -4.6980989237121547 85.700039752992538  -32.896657710955509 -4.6328591176553218 85.748375199420124  -33.035032988041351 -4.5810763606621139 85.798902104425551  -33.177789653515177 -4.5434743600506113 85.851028847202571  -33.433647240494899 -4.5029990277794765 85.944453715174561  -33.545688191774573 -4.4939519243674582 85.985364798579582  -33.658515445879722 -4.4935322694457733 86.026562995759747  -33.771361031831674 -4.5018351339084024 86.067767886704132  -33.883455181936142 -4.5188659587915687 86.108698395341946  -33.994030829122998 -4.5445442765303712 86.149074431719328  -34.102328269167323 -4.5787006865190296 86.188618594381467  -34.278947520549039 -4.6497807607948962 86.253110057919542  -34.348912347149373 -4.6822686176286981 86.278657295994265  -34.417264663287462 -4.7184492721840092 86.303615735515876  -34.483782582273442 -4.7582244546123942 86.327904355886318  -34.548252627403819 -4.8014792879154857 86.351445207363753  -34.610470224332197 -4.8480825673513399 86.374163590848781  -34.670240193440058 -4.8978870398407777 86.395988237670807  -34.766865174764511 -4.9872497135290033 86.431270271827358  -34.805096476581085 -5.025221673574813 86.445230203079689  -34.842010236663107 -5.0645918744303744 86.458709041845907  -34.877548597913915 -5.1053037769660268 86.471685661953174  -34.911656757134324 -5.147297992003228 86.484140052341033  -34.944282965022524 -5.1905122803145636 86.496053317061325  -34.975378526174111 -5.2348815526237376 86.507407675278301  -35.025425352497784 -5.3119479630462783 86.525681974652784  -35.045190794813898 -5.3440839207895614 86.532899207726004  -35.064178847709442 -5.376722971970791 86.539832581700779  -35.082375068950654 -5.4098418586353949 86.546476823081747  -35.099765852390924 -5.4434168357388542 86.552826963665851  -35.116338427970852 -5.4774236711467141 86.558878340542321  -35.132080861718272 -5.5118376456345839 86.564626596092523  -35.182444824545229 -5.6294429714851386 86.583016695964844  -35.213144688682021 -5.7144193926896305 86.594226567782854  -35.238929693642788 -5.801219315235925 86.603641808161626  -35.259679651250714 -5.889490439087858 86.6112185311068  -35.275303972607439 -5.9788730414513633 86.616923658623691  -35.285741055028275 -6.0690009939811205 86.620734696860481  -35.290959222973079 -6.1595024211812479 86.622640079683308  -35.290959222973079 -6.3142399005147141 86.622640079683308  -35.288329797163662 -6.3784804736050695 86.621679960571782  -35.283070994461667 -6.4425878199568336 86.619759740210384  -35.275190621295678 -6.5064289341496657 86.616882269069905  -35.264704220551728 -6.5698718587791625 86.613053222542248  -35.251635050519049 -6.6327858385788954 86.608281093252643  -35.236014063835739 -6.6950414745424291 86.60257718337175  -35.210467306925693 -6.7816372915985079 86.593248937844194  -35.202634778094392 -6.8066324548716128 86.590388936776435  -35.194384927036388 -6.8314876838130969 86.587376552992993  -35.185720584691047 -6.856194374019533 86.58421282019448  -35.176644785841269 -6.8807440007356613 86.580898846513705  -35.167160769113551 -6.9051281188543774 86.577435814515766  -35.157271976977952 -6.9293383629167318 86.573824981198001  -35.132080861718244 -6.9881623543654738 86.564626596092509  -35.116338427970831 -7.0225763288533427 86.558878340542307  -35.099765852390888 -7.0565831642612054 86.552826963665879  -35.082375068950626 -7.0901581413646637 86.546476823081747  -35.064178847709414 -7.1232770280292659 86.53983258170075  -35.045190794813863 -7.1559160792104954 86.532899207725976  -35.025425352497763 -7.1880520369537759 86.525681974652727  -34.975752513688178 -7.264542549215089 86.507544234582753  -34.945070636472437 -7.3083632822546791 86.496340930581269  -34.912896087222848 -7.3510589508703186 86.484592586312147  -34.879275692025281 -7.3925668796782746 86.472316300040646  -34.844259183263524 -7.4328270965540311 86.459530231249332  -34.807899199619285 -7.4717823326322774 86.446253600638059  -34.770251286072167 -7.5093780223069135 86.432506690124015  -34.674400429763423 -7.5985891066334261 86.397507323088035  -34.614784618324769 -7.6485864505198453 86.375738966017011  -34.552711214698284 -7.695390702113313 86.35307323385392  -34.488374909660664 -7.7388539602581377 86.329581216771686  -34.421979838656839 -7.7788443361906001 86.305337453607422  -34.353739090806357 -7.8152462343096465 86.280419752578922  -34.283874217909585 -7.8479606329475544 86.254909012001292  -34.10747649715087 -7.9196112425799576 86.190498439045541  -33.999286862270473 -7.954117561704698 86.150993640794368  -33.88879235085296 -7.9801537001147622 86.110647230658046  -33.776751980889777 -7.997547655150079 86.069736359517265  -33.663932421529758 -8.006216287103511 86.028540972027258  -33.551103329084803 -8.0061623083752362 85.987342103588276  -33.439032873835217 -7.9974780185685646 85.946420246985113  -33.183058415173676 -7.9578319083993323 85.852952704017355  -33.040194060536621 -7.9206952706574887 85.800786639186242  -32.901664301077794 -7.8693645408129953 85.750203325866167  -32.769091274318029 -7.8045570435180966 85.701795077871822  -32.643945563635832 -7.7272214241637105 85.656098869931256  -32.52752881103811 -7.6385157426260903 85.613589988840658  -32.420941116278058 -7.5397942041169026 85.574670129445408  -32.214871949525637 -7.3093957370463309 85.499425205407022  -32.118781725783151 -7.1749774745609791 85.464338434784253  -32.037999633311173 -7.0315170156776459 85.434841336757955  -31.973210750909011 -6.8812525038986267 85.411184063758355  -31.924674774587476 -6.7262950371594821 85.393461442227078  -31.892358262103567 -6.5684205273437088 85.381661260932361  -31.876217668105205 -6.4091622169114935 85.375767619547148  -31.876217668105205 -6.2500000000000009 85.375767619547148 
 0 9 0.123999459366835 7 0.23241637537628329 7 0.31482484674684508 7 0.37067689502131512 7 0.40927675208457159 7 0.43611889789798008 7 0.49999947076272239 7 0.54534523248602174 7 0.56388089896419025 7 0.59072304444767498 7 0.62883386919428785 7 0.68468395546734662 7 0.76708675413356553 7 0.87548561237085432 7 1 9
8 0 34.599266546048263
7 0 0  1 2 2  -39.028397949628967 -6.2500000000000009 58.434732895596284  -31.876217668105209 -6.2500000000000009 85.375767619547105 
 0 2 34.599266546048263 2
8 0 6.2831853071795853
7 1 1  2 6 4  -39.028397949628967 -6.25 58.434732895596284  1 -39.028397949628967 -3.2189110867544657 58.434732895596284  0.50000000000000011 -41.589454115779887 -4.7344555433772326 59.369887240698361  1 -44.150510281930799 -6.2499999999999991 60.305041585800438  0.50000000000000011 -41.589454115779887 -7.7655444566227674 59.369887240698361  1 -39.028397949628967 -9.2810889132455365 58.434732895596284  0.50000000000000011
 0 2 2.0943951023931953 2 4.1887902047863905 2 6.2831853071795862 2
8 5.3157431813202605 7.8539816339744828
7 1 0  2 3 2  -31.876217668105191 -6.25 85.375767619547091  1 -26.701656270992061 -6.2500000000000018 89.250571353699868  0.29712198558335312 -33.530615745773893 -6.25 89.250571353699868  1
 5.3157431813202605 3 7.8539816339744828 3
8 0 6.2831853071795862
7 1 1  2 6 4  -41.630105800956869 -6.25 59.38473096046188  1 -41.630105800956869 -4.6622867597285298 59.38473096046188  0.50000000000000011 -40.288600190115915 -5.4561433798642645 58.894888208265549  1 -38.94709457927496 -6.25 58.405045456069224  0.50000000000000011 -40.288600190115915 -7.0438566201357355 58.894888208265549  1 -41.630105800956869 -7.8377132402714711 59.38473096046188  0.50000000000000011
 0 2 2.0943951023931953 2 4.1887902047863905 2 6.2831853071795862 2
8 0.19999999999999152 6.2000000000000002
7 0 0  1 2 2  -41.630105800956869 -6.25 59.38473096046188  -42.870394569275973 -6.25 54.712776191462098 
 0.19999999999999152 2 6.2000000000000002 2
8 0 6.2831853071795862
7 1 1  2 6 4  -42.870394569275973 -6.25 54.712776191462083  1 -42.870394569275973 -4.6622867597285298 54.712776191462083  0.50000000000000011 -41.528888958435019 -5.4561433798642645 54.222933439265752  1 -40.187383347594064 -6.25 53.733090687069428  0.50000000000000011 -41.528888958435019 -7.0438566201357355 54.222933439265752  1 -42.870394569275973 -7.8377132402714711 54.712776191462083  0.50000000000000011
 0 2 2.0943951023931953 2 4.1887902047863905 2 6.2831853071795862 2
Polygon3D 0
PolygonOnTriangulations 0
Surfaces 7
9 0 1 1 0 2 1 6 2 4 2 -39.028397949628967 -6.25 58.434732895596284  1 -31.876217668105134 -6.25 85.375767619547389  1 
-39.028397949628967 -3.2189110867544657 58.434732895596284  0.5 -31.876217668105134 -3.2189110867544657 85.375767619547389  0.5 
-41.589454115779887 -4.7344555433772326 59.369887240698361  1 -34.437273834256047 -4.7344555433772326 86.310921964649481  1 
-44.150510281930799 -6.2499999999999991 60.305041585800438  0.5 -36.998330000406966 -6.2499999999999991 87.246076309751558  0.5 
-41.589454115779887 -7.7655444566227674 59.369887240698361  1 -34.437273834256054 -7.7655444566227674 86.310921964649481  1 
-39.028397949628967 -9.2810889132455365 58.434732895596284  0.5 -31.876217668105134 -9.2810889132455365 85.375767619547403  0.5 

0 2
2.0943951023931953 2
4.1887902047863905 2
6.2831853071795862 2

0 2
34.599266546048639 2

9 1 1 1 0 2 2 6 3 4 2 -31.876217668105191 -6.25 85.375767619547091  1 -26.701656270992061 -6.25 89.250571353699868  0.29712198558335312 -33.530615745773893 -6.25 89.250571353699868  1 
-31.876217668105191 -4.1615949445007043 85.375767619547091  0.5 -26.701656270992061 5.5781047731510061 89.250571353699868  0.14856099279167656 -33.530615745773893 -6.25 89.250571353699868  0.5 
-33.684829499559434 -5.2057974722503522 85.375767619547091  1 -36.945095483164813 -0.33594761342449508 89.250571353699868  0.29712198558335312 -33.530615745773893 -6.25 89.250571353699868  1 
-35.49344133101367 -6.25 85.375767619547091  0.5 -47.188534695337552 -6.2499999999999991 89.250571353699868  0.14856099279167656 -33.530615745773893 -6.25 89.250571353699868  0.5 
-33.684829499559434 -7.2942025277496487 85.375767619547091  1 -36.945095483164813 -12.164052386575504 89.250571353699868  0.29712198558335312 -33.530615745773893 -6.25 89.250571353699868  1 
-31.876217668105191 -8.3384050554992974 85.375767619547091  0.5 -26.701656270992071 -18.078104773151011 89.250571353699868  0.14856099279167656 -33.530615745773893 -6.25 89.250571353699868  0.5 

0 2
2.0943951023931953 2
4.1887902047863905 2
6.2831853071795862 2

-0.96744212585932576 3
1.5707963267948966 3

9 0 0 0 0 1 1 2 2 2 2 -42.443139504496855 -8 59.68160535573238  -42.443139504496855 -4.5000000000000009 59.68160535573238  
-39.028397949628967 -8 58.434732895596284  -39.028397949628967 -4.5000000000000009 58.434732895596284  

-2.1000000000000001 2
2.1000000000000001 2

-2.1000000000000001 2
2.1000000000000001 2

9 1 1 1 0 2 2 6 3 4 2 -27.199363292403113 -7.5 102.45092114345651  1 -20.451501387828309 -7.5 107.10068562443983  0.29712198558335312 -28.646252757566508 -7.5 107.10068562443983  1 
-27.199363292403113 -4.9939139334008447 102.45092114345651  0.5 -20.451501387828309 6.6937257277812066 107.10068562443983  0.14856099279167656 -28.646252757566508 -7.5 107.10068562443983  0.5 
-29.369697490148205 -6.2469569667004219 102.45092114345651  1 -32.743628442435607 -0.40313713610939406 107.10068562443983  0.29712198558335312 -28.646252757566508 -7.5 107.10068562443983  1 
-31.540031687893293 -7.5 102.45092114345651  0.5 -45.035755497042899 -7.4999999999999982 107.10068562443983  0.14856099279167656 -28.646252757566508 -7.5 107.10068562443983  0.5 
-29.369697490148205 -8.7530430332995781 102.45092114345651  1 -32.743628442435607 -14.596862863890603 107.10068562443983  0.29712198558335312 -28.646252757566508 -7.5 107.10068562443983  1 
-27.199363292403117 -10.006086066599156 102.45092114345651  0.5 -20.451501387828323 -21.693725727781214 107.10068562443983  0.14856099279167656 -28.646252757566508 -7.5 107.10068562443983  0.5 

0 2
2.0943951023931953 2
4.1887902047863905 2
6.2831853071795862 2

-0.96744212585932576 3
1.5707963267948966 3

9 1 1 1 0 2 2 6 3 4 2 -38.251461201726229 -7.5 102.45092114345651  1 -32.041987525190471 -7.5 107.10068562443983  0.29712198558335312 -40.236738894928671 -7.5 107.10068562443983  1 
-38.251461201726229 -4.9939139334008447 102.45092114345651  0.5 -32.041987525190471 6.6937257277812066 107.10068562443983  0.14856099279167656 -40.236738894928671 -7.5 107.10068562443983  0.5 
-40.421795399471321 -6.2469569667004219 102.45092114345651  1 -44.33411457979777 -0.40313713610939406 107.10068562443983  0.29712198558335312 -40.236738894928671 -7.5 107.10068562443983  1 
-42.592129597216406 -7.5 102.45092114345651  0.5 -56.626241634405062 -7.4999999999999982 107.10068562443983  0.14856099279167656 -40.236738894928671 -7.5 107.10068562443983  0.5 
-40.421795399471321 -8.7530430332995781 102.45092114345651  1 -44.33411457979777 -14.596862863890603 107.10068562443983  0.29712198558335312 -40.236738894928671 -7.5 107.10068562443983  1 
-38.251461201726229 -10.006086066599156 102.45092114345651  0.5 -32.041987525190486 -21.693725727781214 107.10068562443983  0.14856099279167656 -40.236738894928671 -7.5 107.10068562443983  0.5 

0 2
2.0943951023931953 2
4.1887902047863905 2
6.2831853071795862 2

-0.96744212585932576 3
1.5707963267948966 3

9 0 1 1 0 2 1 6 2 4 2 -41.630105800956869 -6.25 59.38473096046188  1 -42.870394569275973 -6.25 54.712776191462098  1 
-41.630105800956869 -4.6622867597285298 59.38473096046188  0.5 -42.870394569275973 -4.6622867597285298 54.712776191462098  0.5 
-40.288600190115915 -5.4561433798642645 58.894888208265563  1 -41.528888958435026 -5.4561433798642645 54.222933439265759  1 
-38.94709457927496 -6.25 58.405045456069224  0.5 -40.187383347594071 -6.25 53.733090687069428  0.5 
-40.288600190115915 -7.0438566201357355 58.894888208265549  1 -41.528888958435026 -7.0438566201357355 54.222933439265759  1 
-41.630105800956869 -7.8377132402714711 59.38473096046188  0.5 -42.870394569275973 -7.8377132402714711 54.712776191462098  0.5 

0 2
2.0943951023931953 2
4.1887902047863905 2
6.2831853071795862 2

0.19999999999999152 2
6.2000000000000002 2

9 0 0 0 0 1 1 2 2 2 2 -41.081720421488036 -7.166666666666667 54.05965252186698  -41.081720421488036 -5.3333333333333339 54.05965252186698  
-42.870394569275973 -7.166666666666667 54.712776191462083  -42.870394569275973 -5.3333333333333339 54.712776191462083  

-1.1000000000000001 2
1.1000000000000001 2

-1.1000000000000001 2
1.1000000000000001 2

Triangulations 0

TShapes 27
Ve
1.42862481e-07
-31.8762176681052 -6.25 85.3757676195471
0 0

0101101
*
Ed
 1.42862481e-07 1 1 0
1  1 0 0 1
2  1 1 0 0 1
2  2 2 0 0 1
0

0101100
+27 0 -27 0 *
Ve
1e-07
-39.028397949629 -6.25 58.4347328955963
0 0

0101101
*
Ed
 8.3333333e-08 1 1 0
1  2 0 0 34.5992665460483
3  3 4CN 1 0 0 34.5992665460483
0

0101000
+25 0 -27 0 *
Ed
 8.3333333e-08 1 1 0
1  3 0 0 6.28318530717959
2  5 1 0 0 6.28318530717959
2  6 3 0 0 6.28318530717959
0

0101000
+25 0 -25 0 *
Wi

0101100
-26 0 +24 0 +23 0 -24 0 *
Fa
0  8.3333333e-08 1 0

0101000
+22 0 *
Ve
1e-07
-33.5306157457739 -6.25 89.2505713536999
0 0

0101101
*
Ed
 8.3333333e-08 1 1 0
1  4 0 5.31574318132026 7.85398163397448
3  7 8CN 2 0 5.31574318132026 7.85398163397448
0

0101000
+27 0 -20 0 *
Ed
 1e-07 1 1 1
2  9 4 0 0 6.28318530717959
2  10 5 0 0 6.28318530717959
2  11 2 0 0 6.28318530717959
0

0101000
+20 0 -20 0 *
Wi

0101100
+19 0 +26 0 -19 0 -18 0 *
Fa
0  8.3333333e-08 2 0

0101000
+17 0 *
Wi

0101100
+23 0 *
Ve
1e-07
-41.6301058009569 -6.25 59.3847309604619
0 0

0101101
*
Ed
 8.3333333e-08 1 1 0
1  5 0 0 6.28318530717959
2  12 3 0 0 6.28318530717959
2  13 6 0 0 6.28318530717959
0

0101100
+14 0 -14 0 *
Wi

0101100
+13 0 *
Fa
0  8.3333333e-08 3 0

0101000
+15 0 +12 0 *
Ve
1e-07
-42.870394569276 -6.25 54.7127761914621
0 0

0101101
*
Ed
 8.3333333e-08 1 1 0
1  6 0 0.199999999999992 6.2
3  14 15CN 6 0 0.199999999999992 6.2
0

0101000
+14 0 -10 0 *
Ed
 8.3333333e-08 1 1 0
1  7 0 0 6.28318530717959
2  16 6 0 0 6.28318530717959
2  17 7 0 0 6.28318530717959
0

0101000
+10 0 -10 0 *
Wi

0101100
+9 0 +13 0 -9 0 -8 0 *
Fa
0  8.3333333e-08 6 0

0101000
+7 0 *
Wi

0101100
+8 0 *
Fa
0  8.3333333e-08 7 0

0101000
+5 0 *
Sh

0101100
+21 0 +16 0 -11 0 +6 0 +4 0 *
So

0100000
+3 0 *
Co

0100000
+2 0 *

+1 1 